<?xml version="1.0" encoding="UTF-8" standalone="no"?><svg xmlns="http://www.w3.org/2000/svg" xmlns:xlink="http://www.w3.org/1999/xlink" clip-rule="evenodd" stroke-miterlimit="10" viewBox="0 0 2048 1536"><desc>SVG generated by Keynote</desc><defs></defs><g transform="matrix(1.00, 0.00, -0.00, -1.00, 0.0, 1536.0)"><g><clipPath id="clip0x6000024a31e0"><path d="M 0.0 1536.0 L 2048.0 1536.0 L 2048.0 0.0 L 0.0 0.0 Z M 0.0 1536.0 "></path></clipPath><g clip-path="url(#clip0x6000024a31e0)"><image xlink:href="../../10608769-753F-4634-8741-A78A32A9A97F/assets/6226BCCF418C71F3710EAD4022AB8668.jpeg" width="2048.00" height="1536.00" transform="matrix(1.00, 0.00, -0.00, -1.00, 0.0, 1536.0)"></image></g></g><g><clipPath id="clip0x6000024a3180"><path d="M 1888.1 60.7 L 1978.8 60.7 L 1978.8 151.4 L 1888.1 151.4 Z M 1888.1 60.7 "></path></clipPath><g clip-path="url(#clip0x6000024a3180)"><path d="M 1964.8 137.4 C 1982.1 120.1 1982.1 92.1 1964.8 74.7 C 1947.5 57.4 1919.4 57.4 1902.1 74.7 C 1884.8 92.1 1884.8 120.1 1902.1 137.4 C 1919.4 154.8 1947.5 154.8 1964.8 137.4 " fill="#10ABC8"></path></g></g><g><clipPath id="clip0x6000024a3d80"><path d="M 1930.4 81.8 L 1906.2 106.0 L 1930.4 130.2 L 1954.6 106.0 Z M 1930.4 81.8 "></path></clipPath><g clip-path="url(#clip0x6000024a3d80)"><path d="M 1930.4 83.2 L 1923.8 89.8 L 1940.6 106.6 L 1924.4 122.9 L 1930.4 128.8 L 1953.2 106.0 Z M 1930.4 83.2 " fill="#FEFFFF"></path></g></g><g><clipPath id="clip0x6000024a3fc0"><path d="M 1770.6 60.7 L 1861.3 60.7 L 1861.3 151.4 L 1770.6 151.4 Z M 1770.6 60.7 "></path></clipPath><g clip-path="url(#clip0x6000024a3fc0)"><path d="M 1847.3 137.4 C 1864.6 120.1 1864.6 92.1 1847.3 74.7 C 1830.0 57.4 1801.9 57.4 1784.6 74.7 C 1767.2 92.1 1767.2 120.1 1784.6 137.4 C 1801.9 154.8 1830.0 154.8 1847.3 137.4 " fill="#10ABC8"></path></g></g><g><clipPath id="clip0x6000024a4200"><path d="M 1817.5 130.2 L 1841.7 106.0 L 1817.5 81.8 L 1793.3 106.0 Z M 1817.5 130.2 "></path></clipPath><g clip-path="url(#clip0x6000024a4200)"><path d="M 1817.5 128.8 L 1824.1 122.3 L 1807.3 105.4 L 1823.5 89.2 L 1817.5 83.2 L 1794.7 106.0 Z M 1817.5 128.8 " fill="#FEFFFF"></path></g></g><text xml:space="preserve" font-family="Cantarell-Regular,Cantarell" font-size="68.0" fill="#01A1D6" transform="matrix(1.00, 0.00, -0.00, -1.00, 711.7, 1255.2)">P</text><text xml:space="preserve" font-family="Cantarell-Regular,Cantarell" font-size="68.0" fill="#01A1D6" transform="matrix(1.00, 0.00, -0.00, -1.00, 756.2, 1255.2)">a</text><text xml:space="preserve" font-family="Cantarell-Regular,Cantarell" font-size="68.0" fill="#01A1D6" transform="matrix(1.00, 0.00, -0.00, -1.00, 791.7, 1255.2)">r</text><text xml:space="preserve" font-family="Cantarell-Regular,Cantarell" font-size="68.0" fill="#01A1D6" transform="matrix(1.00, 0.00, -0.00, -1.00, 818.3, 1255.2)">t</text><text xml:space="preserve" font-family="Cantarell-Regular,Cantarell" font-size="68.0" fill="#01A1D6" transform="matrix(1.00, 0.00, -0.00, -1.00, 844.0, 1255.2)"> </text><text xml:space="preserve" font-family="Cantarell-Regular,Cantarell" font-size="68.0" fill="#01A1D6" transform="matrix(1.00, 0.00, -0.00, -1.00, 862.7, 1255.2)">1</text><text xml:space="preserve" font-family="Cantarell-Regular,Cantarell" font-size="68.0" fill="#01A1D6" transform="matrix(1.00, 0.00, -0.00, -1.00, 905.8, 1255.2)">)</text><text xml:space="preserve" font-family="Cantarell-Regular,Cantarell" font-size="68.0" fill="#01A1D6" transform="matrix(1.00, 0.00, -0.00, -1.00, 930.5, 1255.2)"> </text><text xml:space="preserve" font-family="Cantarell-Regular,Cantarell" font-size="68.0" fill="#01A1D6" transform="matrix(1.00, 0.00, -0.00, -1.00, 949.1, 1255.2)">O</text><text xml:space="preserve" font-family="Cantarell-Regular,Cantarell" font-size="68.0" fill="#01A1D6" transform="matrix(1.00, 0.00, -0.00, -1.00, 1005.1, 1255.2)">U</text><text xml:space="preserve" font-family="Cantarell-Regular,Cantarell" font-size="68.0" fill="#01A1D6" transform="matrix(1.00, 0.00, -0.00, -1.00, 1057.6, 1255.2)">T</text><text xml:space="preserve" font-family="Cantarell-Regular,Cantarell" font-size="68.0" fill="#01A1D6" transform="matrix(1.00, 0.00, -0.00, -1.00, 1097.8, 1255.2)">R</text><text xml:space="preserve" font-family="Cantarell-Regular,Cantarell" font-size="68.0" fill="#01A1D6" transform="matrix(1.00, 0.00, -0.00, -1.00, 1145.6, 1255.2)">E</text><text xml:space="preserve" font-family="Cantarell-Regular,Cantarell" font-size="68.0" fill="#01A1D6" transform="matrix(1.00, 0.00, -0.00, -1.00, 1188.2, 1255.2)">A</text><text xml:space="preserve" font-family="Cantarell-Regular,Cantarell" font-size="68.0" fill="#01A1D6" transform="matrix(1.00, 0.00, -0.00, -1.00, 1234.1, 1255.2)">C</text><text xml:space="preserve" font-family="Cantarell-Regular,Cantarell" font-size="68.0" fill="#01A1D6" transform="matrix(1.00, 0.00, -0.00, -1.00, 1282.3, 1255.2)">H</text></g></svg>