<?xml version="1.0" encoding="UTF-8" standalone="no"?><svg xmlns="http://www.w3.org/2000/svg" xmlns:xlink="http://www.w3.org/1999/xlink" clip-rule="evenodd" stroke-miterlimit="10" viewBox="0 0 360 710"><desc>SVG generated by Keynote</desc><defs></defs><g transform="matrix(1.00, 0.00, -0.00, -1.00, 0.0, 710.0)"><g><clipPath id="clip0x600000ebf920"><path d="M 43.7 348.8 L 316.6 348.8 L 316.6 405.8 L 43.7 405.8 Z M 43.7 348.8 "></path></clipPath><g clip-path="url(#clip0x600000ebf920)"><text xml:space="preserve" font-family="Novecentosanswide-Medium,Novecento sans wide" font-size="56.0" fill="#FEFFFF" transform="matrix(1.00, 0.00, -0.00, -1.00, 64.0, 348.8)">B</text><text xml:space="preserve" font-family="Novecentosanswide-Medium,Novecento sans wide" font-size="56.0" fill="#FEFFFF" transform="matrix(1.00, 0.00, -0.00, -1.00, 99.0, 348.8)">O</text><text xml:space="preserve" font-family="Novecentosanswide-Medium,Novecento sans wide" font-size="56.0" fill="#FEFFFF" transform="matrix(1.00, 0.00, -0.00, -1.00, 144.1, 348.8)">O</text><text xml:space="preserve" font-family="Novecentosanswide-Medium,Novecento sans wide" font-size="56.0" fill="#FEFFFF" transform="matrix(1.00, 0.00, -0.00, -1.00, 186.8, 348.8)">T</text><text xml:space="preserve" font-family="Novecentosanswide-Medium,Novecento sans wide" font-size="56.0" fill="#FEFFFF" transform="matrix(1.00, 0.00, -0.00, -1.00, 222.9, 348.8)">H</text><text xml:space="preserve" font-family="Novecentosanswide-Medium,Novecento sans wide" font-size="56.0" fill="#FEFFFF" transform="matrix(1.00, 0.00, -0.00, -1.00, 262.5, 348.8)">S</text></g></g><g><clipPath id="clip0x6000010a01e0"><path d="M 0.3 308.3 L 358.5 308.3 L 358.5 314.3 L 0.3 314.3 Z M 0.3 308.3 "></path></clipPath><g clip-path="url(#clip0x6000010a01e0)"><path d="M -0.3 0.3 L 355.7 0.3 " fill="none" stroke="#FEFFFF" stroke-width="4.00" stroke-linejoin="round" transform="matrix(1.00, 0.00, 0.00, -1.00, 1.3, 311.3)"></path></g></g><g><clipPath id="clip0x6000010a0420"><path d="M -10.1 2.0 L 370.4 2.0 L 370.4 308.1 L -10.1 308.1 Z M -10.1 2.0 "></path></clipPath><g clip-path="url(#clip0x6000010a0420)"><text xml:space="preserve" font-family="Cantarell-Regular,Cantarell" font-size="44.0" fill="#D8D8D8" transform="matrix(1.00, 0.00, -0.00, -1.00, 43.1, 247.1)">…</text><text xml:space="preserve" font-family="Cantarell-Regular,Cantarell" font-size="44.0" fill="#D8D8D8" transform="matrix(1.00, 0.00, -0.00, -1.00, 80.0, 247.1)"> </text><text xml:space="preserve" font-family="Cantarell-Regular,Cantarell" font-size="44.0" fill="#D8D8D8" transform="matrix(1.00, 0.00, -0.00, -1.00, 92.1, 247.1)">a</text><text xml:space="preserve" font-family="Cantarell-Regular,Cantarell" font-size="44.0" fill="#D8D8D8" transform="matrix(1.00, 0.00, -0.00, -1.00, 115.0, 247.1)">t</text><text xml:space="preserve" font-family="Cantarell-Regular,Cantarell" font-size="44.0" fill="#D8D8D8" transform="matrix(1.00, 0.00, -0.00, -1.00, 131.7, 247.1)"> </text><text xml:space="preserve" font-family="Cantarell-Regular,Cantarell" font-size="44.0" fill="#D8D8D8" transform="matrix(1.00, 0.00, -0.00, -1.00, 143.7, 247.1)">c</text><text xml:space="preserve" font-family="Cantarell-Regular,Cantarell" font-size="44.0" fill="#D8D8D8" transform="matrix(1.00, 0.00, -0.00, -1.00, 165.2, 247.1)">h</text><text xml:space="preserve" font-family="Cantarell-Regular,Cantarell" font-size="44.0" fill="#D8D8D8" transform="matrix(1.00, 0.00, -0.00, -1.00, 190.8, 247.1)">r</text><text xml:space="preserve" font-family="Cantarell-Regular,Cantarell" font-size="44.0" fill="#D8D8D8" transform="matrix(1.00, 0.00, -0.00, -1.00, 208.0, 247.1)">i</text><text xml:space="preserve" font-family="Cantarell-Regular,Cantarell" font-size="44.0" fill="#D8D8D8" transform="matrix(1.00, 0.00, -0.00, -1.00, 219.3, 247.1)">s</text><text xml:space="preserve" font-family="Cantarell-Regular,Cantarell" font-size="44.0" fill="#D8D8D8" transform="matrix(1.00, 0.00, -0.00, -1.00, 241.1, 247.1)">t</text><text xml:space="preserve" font-family="Cantarell-Regular,Cantarell" font-size="44.0" fill="#D8D8D8" transform="matrix(1.00, 0.00, -0.00, -1.00, 257.8, 247.1)">i</text><text xml:space="preserve" font-family="Cantarell-Regular,Cantarell" font-size="44.0" fill="#D8D8D8" transform="matrix(1.00, 0.00, -0.00, -1.00, 269.0, 247.1)">a</text><text xml:space="preserve" font-family="Cantarell-Regular,Cantarell" font-size="44.0" fill="#D8D8D8" transform="matrix(1.00, 0.00, -0.00, -1.00, 292.0, 247.1)">n</text><text xml:space="preserve" font-family="Cantarell-Regular,Cantarell" font-size="44.0" fill="#D8D8D8" transform="matrix(1.00, 0.00, -0.00, -1.00, 317.3, 247.1)"> </text><text xml:space="preserve" font-family="Cantarell-Regular,Cantarell" font-size="44.0" fill="#D8D8D8" transform="matrix(1.00, 0.00, -0.00, -1.00, 57.3, 184.1)">h</text><text xml:space="preserve" font-family="Cantarell-Regular,Cantarell" font-size="44.0" fill="#D8D8D8" transform="matrix(1.00, 0.00, -0.00, -1.00, 82.9, 184.1)">o</text><text xml:space="preserve" font-family="Cantarell-Regular,Cantarell" font-size="44.0" fill="#D8D8D8" transform="matrix(1.00, 0.00, -0.00, -1.00, 108.9, 184.1)">m</text><text xml:space="preserve" font-family="Cantarell-Regular,Cantarell" font-size="44.0" fill="#D8D8D8" transform="matrix(1.00, 0.00, -0.00, -1.00, 146.2, 184.1)">e</text><text xml:space="preserve" font-family="Cantarell-Regular,Cantarell" font-size="44.0" fill="#D8D8D8" transform="matrix(1.00, 0.00, -0.00, -1.00, 169.9, 184.1)">s</text><text xml:space="preserve" font-family="Cantarell-Regular,Cantarell" font-size="44.0" fill="#D8D8D8" transform="matrix(1.00, 0.00, -0.00, -1.00, 191.7, 184.1)">c</text><text xml:space="preserve" font-family="Cantarell-Regular,Cantarell" font-size="44.0" fill="#D8D8D8" transform="matrix(1.00, 0.00, -0.00, -1.00, 213.2, 184.1)">h</text><text xml:space="preserve" font-family="Cantarell-Regular,Cantarell" font-size="44.0" fill="#D8D8D8" transform="matrix(1.00, 0.00, -0.00, -1.00, 238.8, 184.1)">o</text><text xml:space="preserve" font-family="Cantarell-Regular,Cantarell" font-size="44.0" fill="#D8D8D8" transform="matrix(1.00, 0.00, -0.00, -1.00, 264.8, 184.1)">o</text><text xml:space="preserve" font-family="Cantarell-Regular,Cantarell" font-size="44.0" fill="#D8D8D8" transform="matrix(1.00, 0.00, -0.00, -1.00, 290.9, 184.1)">l</text><text xml:space="preserve" font-family="Cantarell-Regular,Cantarell" font-size="44.0" fill="#D8D8D8" transform="matrix(1.00, 0.00, -0.00, -1.00, 303.0, 184.1)"> </text><text xml:space="preserve" font-family="Cantarell-Regular,Cantarell" font-size="44.0" fill="#D8D8D8" transform="matrix(1.00, 0.00, -0.00, -1.00, 48.7, 121.1)">c</text><text xml:space="preserve" font-family="Cantarell-Regular,Cantarell" font-size="44.0" fill="#D8D8D8" transform="matrix(1.00, 0.00, -0.00, -1.00, 70.2, 121.1)">o</text><text xml:space="preserve" font-family="Cantarell-Regular,Cantarell" font-size="44.0" fill="#D8D8D8" transform="matrix(1.00, 0.00, -0.00, -1.00, 96.3, 121.1)">n</text><text xml:space="preserve" font-family="Cantarell-Regular,Cantarell" font-size="44.0" fill="#D8D8D8" transform="matrix(1.00, 0.00, -0.00, -1.00, 121.5, 121.1)">f</text><text xml:space="preserve" font-family="Cantarell-Regular,Cantarell" font-size="44.0" fill="#D8D8D8" transform="matrix(1.00, 0.00, -0.00, -1.00, 139.2, 121.1)">e</text><text xml:space="preserve" font-family="Cantarell-Regular,Cantarell" font-size="44.0" fill="#D8D8D8" transform="matrix(1.00, 0.00, -0.00, -1.00, 162.9, 121.1)">r</text><text xml:space="preserve" font-family="Cantarell-Regular,Cantarell" font-size="44.0" fill="#D8D8D8" transform="matrix(1.00, 0.00, -0.00, -1.00, 180.1, 121.1)">e</text><text xml:space="preserve" font-family="Cantarell-Regular,Cantarell" font-size="44.0" fill="#D8D8D8" transform="matrix(1.00, 0.00, -0.00, -1.00, 203.7, 121.1)">n</text><text xml:space="preserve" font-family="Cantarell-Regular,Cantarell" font-size="44.0" fill="#D8D8D8" transform="matrix(1.00, 0.00, -0.00, -1.00, 229.0, 121.1)">c</text><text xml:space="preserve" font-family="Cantarell-Regular,Cantarell" font-size="44.0" fill="#D8D8D8" transform="matrix(1.00, 0.00, -0.00, -1.00, 250.5, 121.1)">e</text><text xml:space="preserve" font-family="Cantarell-Regular,Cantarell" font-size="44.0" fill="#D8D8D8" transform="matrix(1.00, 0.00, -0.00, -1.00, 274.1, 121.1)">s</text><text xml:space="preserve" font-family="Cantarell-Regular,Cantarell" font-size="44.0" fill="#D8D8D8" transform="matrix(1.00, 0.00, -0.00, -1.00, 296.0, 121.1)">/</text><text xml:space="preserve" font-family="Cantarell-Regular,Cantarell" font-size="44.0" fill="#D8D8D8" transform="matrix(1.00, 0.00, -0.00, -1.00, 134.7, 58.1)">f</text><text xml:space="preserve" font-family="Cantarell-Regular,Cantarell" font-size="44.0" fill="#D8D8D8" transform="matrix(1.00, 0.00, -0.00, -1.00, 152.3, 58.1)">a</text><text xml:space="preserve" font-family="Cantarell-Regular,Cantarell" font-size="44.0" fill="#D8D8D8" transform="matrix(1.00, 0.00, -0.00, -1.00, 175.3, 58.1)">i</text><text xml:space="preserve" font-family="Cantarell-Regular,Cantarell" font-size="44.0" fill="#D8D8D8" transform="matrix(1.00, 0.00, -0.00, -1.00, 186.6, 58.1)">r</text><text xml:space="preserve" font-family="Cantarell-Regular,Cantarell" font-size="44.0" fill="#D8D8D8" transform="matrix(1.00, 0.00, -0.00, -1.00, 203.8, 58.1)">s</text></g></g><g><clipPath id="clip0x6000010a1620"><path d="M 39.9 428.5 L 320.4 428.5 L 320.4 709.0 L 39.9 709.0 Z M 39.9 428.5 "></path></clipPath><g clip-path="url(#clip0x6000010a1620)"><path d="M 278.6 667.2 C 333.0 612.8 333.0 524.7 278.6 470.3 C 224.2 415.9 136.1 415.9 81.7 470.3 C 27.3 524.7 27.3 612.8 81.7 667.2 C 136.1 721.6 224.2 721.6 278.6 667.2 " fill="#01A1D6"></path></g></g><g><clipPath id="clip0x6000010a1860"><path d="M 25.0 429.5 L 335.3 429.5 L 335.3 708.0 L 25.0 708.0 Z M 25.0 429.5 "></path></clipPath><g clip-path="url(#clip0x6000010a1860)"><text xml:space="preserve" font-family="MarkerFelt-Thin,Marker Felt" font-size="130.0" fill="#FEFFFF" transform="matrix(1.00, 0.00, -0.00, -1.00, 143.1, 526.5)">2</text></g></g></g></svg>