<?xml version="1.0" encoding="UTF-8" standalone="no"?><svg xmlns="http://www.w3.org/2000/svg" xmlns:xlink="http://www.w3.org/1999/xlink" clip-rule="evenodd" stroke-miterlimit="10" viewBox="0 0 1014 85"><desc>SVG generated by Keynote</desc><defs></defs><g transform="matrix(1.00, 0.00, -0.00, -1.00, 0.0, 85.0)"><text xml:space="preserve" font-family="Novecentosanswide-Medium,Novecento sans wide" font-size="112.0" fill="#FEFFFF" transform="matrix(1.00, 0.00, -0.00, -1.00, -0.7, 3.0)">W</text><text xml:space="preserve" font-family="Novecentosanswide-Medium,Novecento sans wide" font-size="112.0" fill="#FEFFFF" transform="matrix(1.00, 0.00, -0.00, -1.00, 107.6, 3.0)">H</text><text xml:space="preserve" font-family="Novecentosanswide-Medium,Novecento sans wide" font-size="112.0" fill="#FEFFFF" transform="matrix(1.00, 0.00, -0.00, -1.00, 182.6, 3.0)">A</text><text xml:space="preserve" font-family="Novecentosanswide-Medium,Novecento sans wide" font-size="112.0" fill="#FEFFFF" transform="matrix(1.00, 0.00, -0.00, -1.00, 248.9, 3.0)">T</text><text xml:space="preserve" font-family="Novecentosanswide-Medium,Novecento sans wide" font-size="112.0" fill="#FEFFFF" transform="matrix(1.00, 0.00, -0.00, -1.00, 316.9, 3.0)"> </text><text xml:space="preserve" font-family="Novecentosanswide-DemiBold,Novecento sans wide" font-weight="bold" font-size="112.0" fill="#01A1D6" transform="matrix(1.00, 0.00, -0.00, -1.00, 340.7, 3.0)">W</text><text xml:space="preserve" font-family="Novecentosanswide-DemiBold,Novecento sans wide" font-weight="bold" font-size="112.0" fill="#01A1D6" transform="matrix(1.00, 0.00, -0.00, -1.00, 452.4, 3.0)">E</text><text xml:space="preserve" font-family="Novecentosanswide-DemiBold,Novecento sans wide" font-weight="bold" font-size="112.0" fill="#01A1D6" transform="matrix(1.00, 0.00, -0.00, -1.00, 516.4, 3.0)">’</text><text xml:space="preserve" font-family="Novecentosanswide-DemiBold,Novecento sans wide" font-weight="bold" font-size="112.0" fill="#01A1D6" transform="matrix(1.00, 0.00, -0.00, -1.00, 541.8, 3.0)">V</text><text xml:space="preserve" font-family="Novecentosanswide-DemiBold,Novecento sans wide" font-weight="bold" font-size="112.0" fill="#01A1D6" transform="matrix(1.00, 0.00, -0.00, -1.00, 618.2, 3.0)">E</text><text xml:space="preserve" font-family="Novecentosanswide-DemiBold,Novecento sans wide" font-weight="bold" font-size="112.0" fill="#01A1D6" transform="matrix(1.00, 0.00, -0.00, -1.00, 682.2, 3.0)"> </text><text xml:space="preserve" font-family="Novecentosanswide-DemiBold,Novecento sans wide" font-weight="bold" font-size="112.0" fill="#01A1D6" transform="matrix(1.00, 0.00, -0.00, -1.00, 706.0, 3.0)">D</text><text xml:space="preserve" font-family="Novecentosanswide-DemiBold,Novecento sans wide" font-weight="bold" font-size="112.0" fill="#01A1D6" transform="matrix(1.00, 0.00, -0.00, -1.00, 785.7, 3.0)">O</text><text xml:space="preserve" font-family="Novecentosanswide-DemiBold,Novecento sans wide" font-weight="bold" font-size="112.0" fill="#01A1D6" transform="matrix(1.00, 0.00, -0.00, -1.00, 870.8, 3.0)">N</text><text xml:space="preserve" font-family="Novecentosanswide-DemiBold,Novecento sans wide" font-weight="bold" font-size="112.0" fill="#01A1D6" transform="matrix(1.00, 0.00, -0.00, -1.00, 949.7, 3.0)">E</text></g></svg>