<?xml version="1.0" encoding="UTF-8" standalone="no"?><svg xmlns="http://www.w3.org/2000/svg" xmlns:xlink="http://www.w3.org/1999/xlink" clip-rule="evenodd" stroke-miterlimit="10" viewBox="0 0 360 640"><desc>SVG generated by Keynote</desc><defs></defs><g transform="matrix(1.00, 0.00, -0.00, -1.00, 0.0, 640.0)"><g><clipPath id="clip0x7fac77a9a4a0"><path d="M 0.0 277.2 L 360.0 277.2 L 360.0 334.2 L 0.0 334.2 Z M 0.0 277.2 "></path></clipPath><g clip-path="url(#clip0x7fac77a9a4a0)"><text xml:space="preserve" font-family="Novecentosanswide-Medium,Novecento sans wide" font-size="56.0" fill="#FEFFFF" transform="matrix(1.00, 0.00, -0.00, -1.00, 31.5, 277.3)">i</text><text xml:space="preserve" font-family="Novecentosanswide-Medium,Novecento sans wide" font-size="56.0" fill="#FEFFFF" transform="matrix(1.00, 0.00, -0.00, -1.00, 45.1, 277.3)">n</text><text xml:space="preserve" font-family="Novecentosanswide-Medium,Novecento sans wide" font-size="56.0" fill="#FEFFFF" transform="matrix(1.00, 0.00, -0.00, -1.00, 80.9, 277.3)">v</text><text xml:space="preserve" font-family="Novecentosanswide-Medium,Novecento sans wide" font-size="56.0" fill="#FEFFFF" transform="matrix(1.00, 0.00, -0.00, -1.00, 115.4, 277.3)">i</text><text xml:space="preserve" font-family="Novecentosanswide-Medium,Novecento sans wide" font-size="56.0" fill="#FEFFFF" transform="matrix(1.00, 0.00, -0.00, -1.00, 129.1, 277.3)">t</text><text xml:space="preserve" font-family="Novecentosanswide-Medium,Novecento sans wide" font-size="56.0" fill="#FEFFFF" transform="matrix(1.00, 0.00, -0.00, -1.00, 154.8, 277.3)">a</text><text xml:space="preserve" font-family="Novecentosanswide-Medium,Novecento sans wide" font-size="56.0" fill="#FEFFFF" transform="matrix(1.00, 0.00, -0.00, -1.00, 183.4, 277.3)">t</text><text xml:space="preserve" font-family="Novecentosanswide-Medium,Novecento sans wide" font-size="56.0" fill="#FEFFFF" transform="matrix(1.00, 0.00, -0.00, -1.00, 214.5, 277.3)">i</text><text xml:space="preserve" font-family="Novecentosanswide-Medium,Novecento sans wide" font-size="56.0" fill="#FEFFFF" transform="matrix(1.00, 0.00, -0.00, -1.00, 228.1, 277.3)">o</text><text xml:space="preserve" font-family="Novecentosanswide-Medium,Novecento sans wide" font-size="56.0" fill="#FEFFFF" transform="matrix(1.00, 0.00, -0.00, -1.00, 265.3, 277.3)">n</text><text xml:space="preserve" font-family="Novecentosanswide-Medium,Novecento sans wide" font-size="56.0" fill="#FEFFFF" transform="matrix(1.00, 0.00, -0.00, -1.00, 301.0, 277.3)">s</text></g></g><g><clipPath id="clip0x7fac77a99de0"><path d="M 1.1 237.2 L 357.9 237.2 L 357.9 243.2 L 1.1 243.2 Z M 1.1 237.2 "></path></clipPath><g clip-path="url(#clip0x7fac77a99de0)"><path d="M -0.1 0.2 L 354.9 0.2 " fill="none" stroke="#FEFFFF" stroke-width="4.00" stroke-linejoin="round" transform="matrix(1.00, 0.00, 0.00, -1.00, 2.1, 240.2)"></path></g></g><g><clipPath id="clip0x7fac77a95fb0"><path d="M -10.8 1.0 L 369.8 1.0 L 369.8 237.6 L -10.8 237.6 Z M -10.8 1.0 "></path></clipPath><g clip-path="url(#clip0x7fac77a95fb0)"><text xml:space="preserve" font-family="Cantarell-Regular,Cantarell" font-size="46.0" fill="#D8D8D8" transform="matrix(1.00, 0.00, -0.00, -1.00, 9.8, 174.7)">…</text><text xml:space="preserve" font-family="Cantarell-Regular,Cantarell" font-size="46.0" fill="#D8D8D8" transform="matrix(1.00, 0.00, -0.00, -1.00, 48.4, 174.7)"> </text><text xml:space="preserve" font-family="Cantarell-Regular,Cantarell" font-size="46.0" fill="#D8D8D8" transform="matrix(1.00, 0.00, -0.00, -1.00, 61.0, 174.7)">p</text><text xml:space="preserve" font-family="Cantarell-Regular,Cantarell" font-size="46.0" fill="#D8D8D8" transform="matrix(1.00, 0.00, -0.00, -1.00, 87.4, 174.7)">a</text><text xml:space="preserve" font-family="Cantarell-Regular,Cantarell" font-size="46.0" fill="#D8D8D8" transform="matrix(1.00, 0.00, -0.00, -1.00, 111.4, 174.7)">s</text><text xml:space="preserve" font-family="Cantarell-Regular,Cantarell" font-size="46.0" fill="#D8D8D8" transform="matrix(1.00, 0.00, -0.00, -1.00, 134.2, 174.7)">s</text><text xml:space="preserve" font-family="Cantarell-Regular,Cantarell" font-size="46.0" fill="#D8D8D8" transform="matrix(1.00, 0.00, -0.00, -1.00, 157.1, 174.7)">e</text><text xml:space="preserve" font-family="Cantarell-Regular,Cantarell" font-size="46.0" fill="#D8D8D8" transform="matrix(1.00, 0.00, -0.00, -1.00, 181.8, 174.7)">d</text><text xml:space="preserve" font-family="Cantarell-Regular,Cantarell" font-size="46.0" fill="#D8D8D8" transform="matrix(1.00, 0.00, -0.00, -1.00, 208.5, 174.7)"> </text><text xml:space="preserve" font-family="Cantarell-Regular,Cantarell" font-size="46.0" fill="#D8D8D8" transform="matrix(1.00, 0.00, -0.00, -1.00, 221.1, 174.7)">o</text><text xml:space="preserve" font-family="Cantarell-Regular,Cantarell" font-size="46.0" fill="#D8D8D8" transform="matrix(1.00, 0.00, -0.00, -1.00, 248.3, 174.7)">u</text><text xml:space="preserve" font-family="Cantarell-Regular,Cantarell" font-size="46.0" fill="#D8D8D8" transform="matrix(1.00, 0.00, -0.00, -1.00, 274.7, 174.7)">t</text><text xml:space="preserve" font-family="Cantarell-Regular,Cantarell" font-size="46.0" fill="#D8D8D8" transform="matrix(1.00, 0.00, -0.00, -1.00, 292.2, 174.7)"> </text><text xml:space="preserve" font-family="Cantarell-Regular,Cantarell" font-size="46.0" fill="#D8D8D8" transform="matrix(1.00, 0.00, -0.00, -1.00, 304.8, 174.7)">t</text><text xml:space="preserve" font-family="Cantarell-Regular,Cantarell" font-size="46.0" fill="#D8D8D8" transform="matrix(1.00, 0.00, -0.00, -1.00, 322.2, 174.7)">o</text><text xml:space="preserve" font-family="Cantarell-Regular,Cantarell" font-size="46.0" fill="#D8D8D8" transform="matrix(1.00, 0.00, -0.00, -1.00, 349.4, 174.7)"> </text><text xml:space="preserve" font-family="Cantarell-Regular,Cantarell" font-size="46.0" fill="#D8D8D8" transform="matrix(1.00, 0.00, -0.00, -1.00, 105.1, 109.7)">f</text><text xml:space="preserve" font-family="Cantarell-Regular,Cantarell" font-size="46.0" fill="#D8D8D8" transform="matrix(1.00, 0.00, -0.00, -1.00, 123.5, 109.7)">r</text><text xml:space="preserve" font-family="Cantarell-Regular,Cantarell" font-size="46.0" fill="#D8D8D8" transform="matrix(1.00, 0.00, -0.00, -1.00, 141.5, 109.7)">i</text><text xml:space="preserve" font-family="Cantarell-Regular,Cantarell" font-size="46.0" fill="#D8D8D8" transform="matrix(1.00, 0.00, -0.00, -1.00, 153.3, 109.7)">e</text><text xml:space="preserve" font-family="Cantarell-Regular,Cantarell" font-size="46.0" fill="#D8D8D8" transform="matrix(1.00, 0.00, -0.00, -1.00, 178.1, 109.7)">n</text><text xml:space="preserve" font-family="Cantarell-Regular,Cantarell" font-size="46.0" fill="#D8D8D8" transform="matrix(1.00, 0.00, -0.00, -1.00, 204.5, 109.7)">d</text><text xml:space="preserve" font-family="Cantarell-Regular,Cantarell" font-size="46.0" fill="#D8D8D8" transform="matrix(1.00, 0.00, -0.00, -1.00, 231.2, 109.7)">s</text></g></g><g><clipPath id="clip0x7fac77a84b50"><path d="M 40.2 358.5 L 320.7 358.5 L 320.7 639.0 L 40.2 639.0 Z M 40.2 358.5 "></path></clipPath><g clip-path="url(#clip0x7fac77a84b50)"><path d="M 278.9 597.2 C 333.3 542.8 333.3 454.7 278.9 400.3 C 224.5 345.9 136.4 345.9 82.0 400.3 C 27.6 454.7 27.6 542.8 82.0 597.2 C 136.4 651.6 224.5 651.6 278.9 597.2 " fill="#009192"></path></g></g><g><clipPath id="clip0x7fac77a7f110"><path d="M 25.4 359.5 L 335.5 359.5 L 335.5 638.0 L 25.4 638.0 Z M 25.4 359.5 "></path></clipPath><g clip-path="url(#clip0x7fac77a7f110)"><text xml:space="preserve" font-family="MarkerFelt-Thin,Marker Felt" font-size="130.0" fill="#FFFFFF" transform="matrix(1.00, 0.00, -0.00, -1.00, 69.3, 456.3)">1</text><text xml:space="preserve" font-family="MarkerFelt-Thin,Marker Felt" font-size="130.0" fill="#FFFFFF" transform="matrix(1.00, 0.00, -0.00, -1.00, 143.4, 456.3)">0</text><text xml:space="preserve" font-family="MarkerFelt-Thin,Marker Felt" font-size="130.0" fill="#FFFFFF" transform="matrix(1.00, 0.00, -0.00, -1.00, 217.5, 456.3)">0</text></g></g></g></svg>