<?xml version="1.0" encoding="UTF-8" standalone="no"?><svg xmlns="http://www.w3.org/2000/svg" xmlns:xlink="http://www.w3.org/1999/xlink" clip-rule="evenodd" stroke-miterlimit="10" viewBox="0 0 360 641"><desc>SVG generated by Keynote</desc><defs></defs><g transform="matrix(1.00, 0.00, -0.00, -1.00, 0.0, 641.0)"><g><clipPath id="clip0x6000022bc8c0"><path d="M 0.0 278.4 L 360.0 278.4 L 360.0 335.4 L 0.0 335.4 Z M 0.0 278.4 "></path></clipPath><g clip-path="url(#clip0x6000022bc8c0)"><text xml:space="preserve" font-family="Novecentosanswide-Medium,Novecento sans wide" font-size="56.0" fill="#FEFFFF" transform="matrix(1.00, 0.00, -0.00, -1.00, 65.2, 278.4)">m</text><text xml:space="preserve" font-family="Novecentosanswide-Medium,Novecento sans wide" font-size="56.0" fill="#FEFFFF" transform="matrix(1.00, 0.00, -0.00, -1.00, 104.9, 278.4)">a</text><text xml:space="preserve" font-family="Novecentosanswide-Medium,Novecento sans wide" font-size="56.0" fill="#FEFFFF" transform="matrix(1.00, 0.00, -0.00, -1.00, 138.8, 278.4)">i</text><text xml:space="preserve" font-family="Novecentosanswide-Medium,Novecento sans wide" font-size="56.0" fill="#FEFFFF" transform="matrix(1.00, 0.00, -0.00, -1.00, 152.4, 278.4)">l</text><text xml:space="preserve" font-family="Novecentosanswide-Medium,Novecento sans wide" font-size="56.0" fill="#FEFFFF" transform="matrix(1.00, 0.00, -0.00, -1.00, 179.6, 278.4)">i</text><text xml:space="preserve" font-family="Novecentosanswide-Medium,Novecento sans wide" font-size="56.0" fill="#FEFFFF" transform="matrix(1.00, 0.00, -0.00, -1.00, 193.3, 278.4)">n</text><text xml:space="preserve" font-family="Novecentosanswide-Medium,Novecento sans wide" font-size="56.0" fill="#FEFFFF" transform="matrix(1.00, 0.00, -0.00, -1.00, 229.1, 278.4)">g</text><text xml:space="preserve" font-family="Novecentosanswide-Medium,Novecento sans wide" font-size="56.0" fill="#FEFFFF" transform="matrix(1.00, 0.00, -0.00, -1.00, 266.7, 278.4)">s</text></g></g><g><clipPath id="clip0x6000022bd1c0"><path d="M 0.6 238.2 L 357.8 238.2 L 357.8 244.2 L 0.6 244.2 Z M 0.6 238.2 "></path></clipPath><g clip-path="url(#clip0x6000022bd1c0)"><path d="M 0.4 0.2 L 355.4 0.2 " fill="none" stroke="#FEFFFF" stroke-width="4.00" stroke-linejoin="round" transform="matrix(1.00, 0.00, 0.00, -1.00, 1.6, 241.2)"></path></g></g><g><clipPath id="clip0x6000022bd400"><path d="M -11.8 1.8 L 371.7 1.8 L 371.7 240.0 L -11.8 240.0 Z M -11.8 1.8 "></path></clipPath><g clip-path="url(#clip0x6000022bd400)"><text xml:space="preserve" font-family="Cantarell-Regular,Cantarell" font-size="50.0" fill="#D8D8D8" transform="matrix(1.00, 0.00, -0.00, -1.00, 26.4, 171.3)">…</text><text xml:space="preserve" font-family="Cantarell-Regular,Cantarell" font-size="50.0" fill="#D8D8D8" transform="matrix(1.00, 0.00, -0.00, -1.00, 68.4, 171.3)"> </text><text xml:space="preserve" font-family="Cantarell-Regular,Cantarell" font-size="50.0" fill="#D8D8D8" transform="matrix(1.00, 0.00, -0.00, -1.00, 82.1, 171.3)">t</text><text xml:space="preserve" font-family="Cantarell-Regular,Cantarell" font-size="44.0" fill="#D8D8D8" transform="matrix(1.00, 0.00, -0.00, -1.00, 101.0, 171.3)">o</text><text xml:space="preserve" font-family="Cantarell-Regular,Cantarell" font-size="44.0" fill="#D8D8D8" transform="matrix(1.00, 0.00, -0.00, -1.00, 127.0, 171.3)"> </text><text xml:space="preserve" font-family="Cantarell-Regular,Cantarell" font-size="44.0" fill="#D8D8D8" transform="matrix(1.00, 0.00, -0.00, -1.00, 139.1, 171.3)">c</text><text xml:space="preserve" font-family="Cantarell-Regular,Cantarell" font-size="44.0" fill="#D8D8D8" transform="matrix(1.00, 0.00, -0.00, -1.00, 160.5, 171.3)">h</text><text xml:space="preserve" font-family="Cantarell-Regular,Cantarell" font-size="44.0" fill="#D8D8D8" transform="matrix(1.00, 0.00, -0.00, -1.00, 186.1, 171.3)">u</text><text xml:space="preserve" font-family="Cantarell-Regular,Cantarell" font-size="44.0" fill="#D8D8D8" transform="matrix(1.00, 0.00, -0.00, -1.00, 211.3, 171.3)">r</text><text xml:space="preserve" font-family="Cantarell-Regular,Cantarell" font-size="44.0" fill="#D8D8D8" transform="matrix(1.00, 0.00, -0.00, -1.00, 228.6, 171.3)">c</text><text xml:space="preserve" font-family="Cantarell-Regular,Cantarell" font-size="44.0" fill="#D8D8D8" transform="matrix(1.00, 0.00, -0.00, -1.00, 250.0, 171.3)">h</text><text xml:space="preserve" font-family="Cantarell-Regular,Cantarell" font-size="44.0" fill="#D8D8D8" transform="matrix(1.00, 0.00, -0.00, -1.00, 275.6, 171.3)">e</text><text xml:space="preserve" font-family="Cantarell-Regular,Cantarell" font-size="44.0" fill="#D8D8D8" transform="matrix(1.00, 0.00, -0.00, -1.00, 299.3, 171.3)">s</text><text xml:space="preserve" font-family="Cantarell-Regular,Cantarell" font-size="44.0" fill="#D8D8D8" transform="matrix(1.00, 0.00, -0.00, -1.00, 321.1, 171.3)">,</text><text xml:space="preserve" font-family="Cantarell-Regular,Cantarell" font-size="44.0" fill="#D8D8D8" transform="matrix(1.00, 0.00, -0.00, -1.00, 333.4, 171.3)"> </text><text xml:space="preserve" font-family="Cantarell-Regular,Cantarell" font-size="44.0" fill="#D8D8D8" transform="matrix(1.00, 0.00, -0.00, -1.00, 9.7, 106.0)">c</text><text xml:space="preserve" font-family="Cantarell-Regular,Cantarell" font-size="44.0" fill="#D8D8D8" transform="matrix(1.00, 0.00, -0.00, -1.00, 31.2, 106.0)">h</text><text xml:space="preserve" font-family="Cantarell-Regular,Cantarell" font-size="44.0" fill="#D8D8D8" transform="matrix(1.00, 0.00, -0.00, -1.00, 56.8, 106.0)">r</text><text xml:space="preserve" font-family="Cantarell-Regular,Cantarell" font-size="44.0" fill="#D8D8D8" transform="matrix(1.00, 0.00, -0.00, -1.00, 74.0, 106.0)">i</text><text xml:space="preserve" font-family="Cantarell-Regular,Cantarell" font-size="44.0" fill="#D8D8D8" transform="matrix(1.00, 0.00, -0.00, -1.00, 85.2, 106.0)">s</text><text xml:space="preserve" font-family="Cantarell-Regular,Cantarell" font-size="44.0" fill="#D8D8D8" transform="matrix(1.00, 0.00, -0.00, -1.00, 107.1, 106.0)">t</text><text xml:space="preserve" font-family="Cantarell-Regular,Cantarell" font-size="44.0" fill="#D8D8D8" transform="matrix(1.00, 0.00, -0.00, -1.00, 123.7, 106.0)">i</text><text xml:space="preserve" font-family="Cantarell-Regular,Cantarell" font-size="44.0" fill="#D8D8D8" transform="matrix(1.00, 0.00, -0.00, -1.00, 135.0, 106.0)">a</text><text xml:space="preserve" font-family="Cantarell-Regular,Cantarell" font-size="44.0" fill="#D8D8D8" transform="matrix(1.00, 0.00, -0.00, -1.00, 158.0, 106.0)">n</text><text xml:space="preserve" font-family="Cantarell-Regular,Cantarell" font-size="44.0" fill="#D8D8D8" transform="matrix(1.00, 0.00, -0.00, -1.00, 183.2, 106.0)"> </text><text xml:space="preserve" font-family="Cantarell-Regular,Cantarell" font-size="44.0" fill="#D8D8D8" transform="matrix(1.00, 0.00, -0.00, -1.00, 195.3, 106.0)">s</text><text xml:space="preserve" font-family="Cantarell-Regular,Cantarell" font-size="44.0" fill="#D8D8D8" transform="matrix(1.00, 0.00, -0.00, -1.00, 217.1, 106.0)">c</text><text xml:space="preserve" font-family="Cantarell-Regular,Cantarell" font-size="44.0" fill="#D8D8D8" transform="matrix(1.00, 0.00, -0.00, -1.00, 238.6, 106.0)">h</text><text xml:space="preserve" font-family="Cantarell-Regular,Cantarell" font-size="44.0" fill="#D8D8D8" transform="matrix(1.00, 0.00, -0.00, -1.00, 264.2, 106.0)">o</text><text xml:space="preserve" font-family="Cantarell-Regular,Cantarell" font-size="44.0" fill="#D8D8D8" transform="matrix(1.00, 0.00, -0.00, -1.00, 290.2, 106.0)">o</text><text xml:space="preserve" font-family="Cantarell-Regular,Cantarell" font-size="44.0" fill="#D8D8D8" transform="matrix(1.00, 0.00, -0.00, -1.00, 316.2, 106.0)">l</text><text xml:space="preserve" font-family="Cantarell-Regular,Cantarell" font-size="44.0" fill="#D8D8D8" transform="matrix(1.00, 0.00, -0.00, -1.00, 328.4, 106.0)">s</text><text xml:space="preserve" font-family="Cantarell-Regular,Cantarell" font-size="44.0" fill="#D8D8D8" transform="matrix(1.00, 0.00, -0.00, -1.00, 350.2, 106.0)"> </text><text xml:space="preserve" font-family="Cantarell-Regular,Cantarell" font-size="44.0" fill="#D8D8D8" transform="matrix(1.00, 0.00, -0.00, -1.00, 85.0, 43.0)">a</text><text xml:space="preserve" font-family="Cantarell-Regular,Cantarell" font-size="44.0" fill="#D8D8D8" transform="matrix(1.00, 0.00, -0.00, -1.00, 107.9, 43.0)">n</text><text xml:space="preserve" font-family="Cantarell-Regular,Cantarell" font-size="44.0" fill="#D8D8D8" transform="matrix(1.00, 0.00, -0.00, -1.00, 133.2, 43.0)">d</text><text xml:space="preserve" font-family="Cantarell-Regular,Cantarell" font-size="44.0" fill="#D8D8D8" transform="matrix(1.00, 0.00, -0.00, -1.00, 158.7, 43.0)"> </text><text xml:space="preserve" font-family="Cantarell-Regular,Cantarell" font-size="44.0" fill="#D8D8D8" transform="matrix(1.00, 0.00, -0.00, -1.00, 170.8, 43.0)">m</text><text xml:space="preserve" font-family="Cantarell-Regular,Cantarell" font-size="44.0" fill="#D8D8D8" transform="matrix(1.00, 0.00, -0.00, -1.00, 208.0, 43.0)">o</text><text xml:space="preserve" font-family="Cantarell-Regular,Cantarell" font-size="44.0" fill="#D8D8D8" transform="matrix(1.00, 0.00, -0.00, -1.00, 234.1, 43.0)">r</text><text xml:space="preserve" font-family="Cantarell-Regular,Cantarell" font-size="44.0" fill="#D8D8D8" transform="matrix(1.00, 0.00, -0.00, -1.00, 251.3, 43.0)">e</text></g></g><g><clipPath id="clip0x6000022be540"><path d="M 39.9 359.5 L 320.4 359.5 L 320.4 640.0 L 39.9 640.0 Z M 39.9 359.5 "></path></clipPath><g clip-path="url(#clip0x6000022be540)"><path d="M 278.6 598.2 C 333.0 543.8 333.0 455.7 278.6 401.3 C 224.2 346.9 136.0 346.9 81.6 401.3 C 27.3 455.7 27.3 543.8 81.6 598.2 C 136.0 652.6 224.2 652.6 278.6 598.2 " fill="#6DB9A4"></path></g></g><g><clipPath id="clip0x6000022be780"><path d="M 25.1 360.5 L 335.2 360.5 L 335.2 639.0 L 25.1 639.0 Z M 25.1 360.5 "></path></clipPath><g clip-path="url(#clip0x6000022be780)"><text xml:space="preserve" font-family="MarkerFelt-Thin,Marker Felt" font-size="130.0" fill="#FFFFFF" transform="matrix(1.00, 0.00, -0.00, -1.00, 69.0, 457.3)">1</text><text xml:space="preserve" font-family="MarkerFelt-Thin,Marker Felt" font-size="130.0" fill="#FFFFFF" transform="matrix(1.00, 0.00, -0.00, -1.00, 143.1, 457.3)">3</text><text xml:space="preserve" font-family="MarkerFelt-Thin,Marker Felt" font-size="130.0" fill="#FFFFFF" transform="matrix(1.00, 0.00, -0.00, -1.00, 217.2, 457.3)">1</text></g></g></g></svg>