<?xml version="1.0" encoding="UTF-8" standalone="no"?><svg xmlns="http://www.w3.org/2000/svg" xmlns:xlink="http://www.w3.org/1999/xlink" clip-rule="evenodd" stroke-miterlimit="10" viewBox="0 0 1744 85"><desc>SVG generated by Keynote</desc><defs></defs><g transform="matrix(1.00, 0.00, -0.00, -1.00, 0.0, 85.0)"><text xml:space="preserve" font-family="Novecentosanswide-Medium,Novecento sans wide" font-size="112.0" fill="#FEFFFF" transform="matrix(1.00, 0.00, -0.00, -1.00, -0.7, 3.0)">W</text><text xml:space="preserve" font-family="Novecentosanswide-Medium,Novecento sans wide" font-size="112.0" fill="#FEFFFF" transform="matrix(1.00, 0.00, -0.00, -1.00, 107.5, 3.0)">H</text><text xml:space="preserve" font-family="Novecentosanswide-Medium,Novecento sans wide" font-size="112.0" fill="#FEFFFF" transform="matrix(1.00, 0.00, -0.00, -1.00, 182.5, 3.0)">A</text><text xml:space="preserve" font-family="Novecentosanswide-Medium,Novecento sans wide" font-size="112.0" fill="#FEFFFF" transform="matrix(1.00, 0.00, -0.00, -1.00, 248.9, 3.0)">T</text><text xml:space="preserve" font-family="Novecentosanswide-Medium,Novecento sans wide" font-size="112.0" fill="#FEFFFF" transform="matrix(1.00, 0.00, -0.00, -1.00, 316.8, 3.0)"> </text><text xml:space="preserve" font-family="Novecentosanswide-DemiBold,Novecento sans wide" font-weight="bold" font-size="112.0" fill="#01A1D6" transform="matrix(1.00, 0.00, -0.00, -1.00, 340.6, 3.0)">A</text><text xml:space="preserve" font-family="Novecentosanswide-DemiBold,Novecento sans wide" font-weight="bold" font-size="112.0" fill="#01A1D6" transform="matrix(1.00, 0.00, -0.00, -1.00, 420.3, 3.0)">R</text><text xml:space="preserve" font-family="Novecentosanswide-DemiBold,Novecento sans wide" font-weight="bold" font-size="112.0" fill="#01A1D6" transform="matrix(1.00, 0.00, -0.00, -1.00, 486.8, 3.0)">E</text><text xml:space="preserve" font-family="Novecentosanswide-DemiBold,Novecento sans wide" font-weight="bold" font-size="112.0" fill="#01A1D6" transform="matrix(1.00, 0.00, -0.00, -1.00, 550.8, 3.0)"> </text><text xml:space="preserve" font-family="Novecentosanswide-DemiBold,Novecento sans wide" font-weight="bold" font-size="112.0" fill="#01A1D6" transform="matrix(1.00, 0.00, -0.00, -1.00, 574.6, 3.0)">Y</text><text xml:space="preserve" font-family="Novecentosanswide-DemiBold,Novecento sans wide" font-weight="bold" font-size="112.0" fill="#01A1D6" transform="matrix(1.00, 0.00, -0.00, -1.00, 642.5, 3.0)">O</text><text xml:space="preserve" font-family="Novecentosanswide-DemiBold,Novecento sans wide" font-weight="bold" font-size="112.0" fill="#01A1D6" transform="matrix(1.00, 0.00, -0.00, -1.00, 728.3, 3.0)">U</text><text xml:space="preserve" font-family="Novecentosanswide-DemiBold,Novecento sans wide" font-weight="bold" font-size="112.0" fill="#01A1D6" transform="matrix(1.00, 0.00, -0.00, -1.00, 803.1, 3.0)"> </text><text xml:space="preserve" font-family="Novecentosanswide-DemiBold,Novecento sans wide" font-weight="bold" font-size="112.0" fill="#01A1D6" transform="matrix(1.00, 0.00, -0.00, -1.00, 826.9, 3.0)">T</text><text xml:space="preserve" font-family="Novecentosanswide-DemiBold,Novecento sans wide" font-weight="bold" font-size="112.0" fill="#01A1D6" transform="matrix(1.00, 0.00, -0.00, -1.00, 883.3, 3.0)">A</text><text xml:space="preserve" font-family="Novecentosanswide-DemiBold,Novecento sans wide" font-weight="bold" font-size="112.0" fill="#01A1D6" transform="matrix(1.00, 0.00, -0.00, -1.00, 963.0, 3.0)">L</text><text xml:space="preserve" font-family="Novecentosanswide-DemiBold,Novecento sans wide" font-weight="bold" font-size="112.0" fill="#01A1D6" transform="matrix(1.00, 0.00, -0.00, -1.00, 1022.3, 3.0)">K</text><text xml:space="preserve" font-family="Novecentosanswide-DemiBold,Novecento sans wide" font-weight="bold" font-size="112.0" fill="#01A1D6" transform="matrix(1.00, 0.00, -0.00, -1.00, 1094.9, 3.0)">I</text><text xml:space="preserve" font-family="Novecentosanswide-DemiBold,Novecento sans wide" font-weight="bold" font-size="112.0" fill="#01A1D6" transform="matrix(1.00, 0.00, -0.00, -1.00, 1120.4, 3.0)">N</text><text xml:space="preserve" font-family="Novecentosanswide-DemiBold,Novecento sans wide" font-weight="bold" font-size="112.0" fill="#01A1D6" transform="matrix(1.00, 0.00, -0.00, -1.00, 1199.3, 3.0)">G</text><text xml:space="preserve" font-family="Novecentosanswide-DemiBold,Novecento sans wide" font-weight="bold" font-size="112.0" fill="#01A1D6" transform="matrix(1.00, 0.00, -0.00, -1.00, 1282.8, 3.0)"> </text><text xml:space="preserve" font-family="Novecentosanswide-DemiBold,Novecento sans wide" font-weight="bold" font-size="112.0" fill="#01A1D6" transform="matrix(1.00, 0.00, -0.00, -1.00, 1306.6, 3.0)">A</text><text xml:space="preserve" font-family="Novecentosanswide-DemiBold,Novecento sans wide" font-weight="bold" font-size="112.0" fill="#01A1D6" transform="matrix(1.00, 0.00, -0.00, -1.00, 1386.3, 3.0)">B</text><text xml:space="preserve" font-family="Novecentosanswide-DemiBold,Novecento sans wide" font-weight="bold" font-size="112.0" fill="#01A1D6" transform="matrix(1.00, 0.00, -0.00, -1.00, 1452.5, 3.0)">O</text><text xml:space="preserve" font-family="Novecentosanswide-DemiBold,Novecento sans wide" font-weight="bold" font-size="112.0" fill="#01A1D6" transform="matrix(1.00, 0.00, -0.00, -1.00, 1538.4, 3.0)">U</text><text xml:space="preserve" font-family="Novecentosanswide-DemiBold,Novecento sans wide" font-weight="bold" font-size="112.0" fill="#01A1D6" transform="matrix(1.00, 0.00, -0.00, -1.00, 1613.1, 3.0)">T</text><text xml:space="preserve" font-family="Novecentosanswide-DemiBold,Novecento sans wide" font-weight="bold" font-size="112.0" fill="#01A1D6" transform="matrix(1.00, 0.00, -0.00, -1.00, 1681.9, 3.0)">?</text></g></svg>