<?xml version="1.0" encoding="UTF-8" standalone="no"?><svg xmlns="http://www.w3.org/2000/svg" xmlns:xlink="http://www.w3.org/1999/xlink" clip-rule="evenodd" stroke-miterlimit="10" viewBox="0 0 2048 1536"><desc>SVG generated by Keynote</desc><defs></defs><g transform="matrix(1.00, 0.00, -0.00, -1.00, 0.0, 1536.0)"><g><clipPath id="clip0x6000018b7e80"><path d="M 0.0 1536.0 L 2048.0 1536.0 L 2048.0 0.0 L 0.0 0.0 Z M 0.0 1536.0 "></path></clipPath><g clip-path="url(#clip0x6000018b7e80)"><image xlink:href="../../10608769-753F-4634-8741-A78A32A9A97F/assets/6226BCCF418C71F3710EAD4022AB8668.jpeg" width="2048.00" height="1536.00" transform="matrix(1.00, 0.00, -0.00, -1.00, 0.0, 1536.0)"></image></g></g><text xml:space="preserve" font-family="Novecentosanswide-Medium,Novecento sans wide" font-size="112.0" fill="#FEFFFF" transform="matrix(1.00, 0.00, -0.00, -1.00, 712.2, 1350.0)">T</text><text xml:space="preserve" font-family="Novecentosanswide-Medium,Novecento sans wide" font-size="112.0" fill="#FEFFFF" transform="matrix(1.00, 0.00, -0.00, -1.00, 780.1, 1350.0)">H</text><text xml:space="preserve" font-family="Novecentosanswide-Medium,Novecento sans wide" font-size="112.0" fill="#FEFFFF" transform="matrix(1.00, 0.00, -0.00, -1.00, 855.1, 1350.0)">A</text><text xml:space="preserve" font-family="Novecentosanswide-Medium,Novecento sans wide" font-size="112.0" fill="#FEFFFF" transform="matrix(1.00, 0.00, -0.00, -1.00, 933.8, 1350.0)">N</text><text xml:space="preserve" font-family="Novecentosanswide-Medium,Novecento sans wide" font-size="112.0" fill="#FEFFFF" transform="matrix(1.00, 0.00, -0.00, -1.00, 1011.9, 1350.0)">K</text><text xml:space="preserve" font-family="Novecentosanswide-Medium,Novecento sans wide" font-size="112.0" fill="#FEFFFF" transform="matrix(1.00, 0.00, -0.00, -1.00, 1082.5, 1350.0)"> </text><text xml:space="preserve" font-family="Novecentosanswide-DemiBold,Novecento sans wide" font-weight="bold" font-size="112.0" fill="#01A1D6" transform="matrix(1.00, 0.00, -0.00, -1.00, 1106.3, 1350.0)">Y</text><text xml:space="preserve" font-family="Novecentosanswide-DemiBold,Novecento sans wide" font-weight="bold" font-size="112.0" fill="#01A1D6" transform="matrix(1.00, 0.00, -0.00, -1.00, 1174.4, 1350.0)">O</text><text xml:space="preserve" font-family="Novecentosanswide-DemiBold,Novecento sans wide" font-weight="bold" font-size="112.0" fill="#01A1D6" transform="matrix(1.00, 0.00, -0.00, -1.00, 1260.4, 1350.0)">U</text></g></svg>