<?xml version="1.0" encoding="UTF-8" standalone="no"?><svg xmlns="http://www.w3.org/2000/svg" xmlns:xlink="http://www.w3.org/1999/xlink" clip-rule="evenodd" stroke-miterlimit="10" viewBox="0 0 2048 1536"><desc>SVG generated by Keynote</desc><defs></defs><g transform="matrix(1.00, 0.00, -0.00, -1.00, 0.0, 1536.0)"><g><clipPath id="clip0x7fac7b20f700"><path d="M 0.0 1536.0 L 2048.0 1536.0 L 2048.0 0.0 L 0.0 0.0 Z M 0.0 1536.0 "></path></clipPath><g clip-path="url(#clip0x7fac7b20f700)"><image xlink:href="../../10608769-753F-4634-8741-A78A32A9A97F/assets/6226BCCF418C71F3710EAD4022AB8668.jpeg" width="2048.00" height="1536.00" transform="matrix(1.00, 0.00, -0.00, -1.00, 0.0, 1536.0)"></image></g></g><text xml:space="preserve" font-family="Novecentosanswide-Medium,Novecento sans wide" font-size="112.0" fill="#FEFFFF" transform="matrix(1.00, 0.00, -0.00, -1.00, 712.2, 1350.0)">T</text><text xml:space="preserve" font-family="Novecentosanswide-Medium,Novecento sans wide" font-size="112.0" fill="#FEFFFF" transform="matrix(1.00, 0.00, -0.00, -1.00, 780.1, 1350.0)">H</text><text xml:space="preserve" font-family="Novecentosanswide-Medium,Novecento sans wide" font-size="112.0" fill="#FEFFFF" transform="matrix(1.00, 0.00, -0.00, -1.00, 855.1, 1350.0)">A</text><text xml:space="preserve" font-family="Novecentosanswide-Medium,Novecento sans wide" font-size="112.0" fill="#FEFFFF" transform="matrix(1.00, 0.00, -0.00, -1.00, 933.8, 1350.0)">N</text><text xml:space="preserve" font-family="Novecentosanswide-Medium,Novecento sans wide" font-size="112.0" fill="#FEFFFF" transform="matrix(1.00, 0.00, -0.00, -1.00, 1011.9, 1350.0)">K</text><text xml:space="preserve" font-family="Novecentosanswide-Medium,Novecento sans wide" font-size="112.0" fill="#FEFFFF" transform="matrix(1.00, 0.00, -0.00, -1.00, 1082.5, 1350.0)"> </text><text xml:space="preserve" font-family="Novecentosanswide-DemiBold,Novecento sans wide" font-weight="bold" font-size="112.0" fill="#01A1D6" transform="matrix(1.00, 0.00, -0.00, -1.00, 1106.3, 1350.0)">Y</text><text xml:space="preserve" font-family="Novecentosanswide-DemiBold,Novecento sans wide" font-weight="bold" font-size="112.0" fill="#01A1D6" transform="matrix(1.00, 0.00, -0.00, -1.00, 1174.4, 1350.0)">O</text><text xml:space="preserve" font-family="Novecentosanswide-DemiBold,Novecento sans wide" font-weight="bold" font-size="112.0" fill="#01A1D6" transform="matrix(1.00, 0.00, -0.00, -1.00, 1260.4, 1350.0)">U</text><g><clipPath id="clip0x7fac79aa09c0"><path d="M 639.8 309.6 L 1672.1 309.6 L 1672.1 1130.7 L 639.8 1130.7 Z M 639.8 309.6 "></path></clipPath><g clip-path="url(#clip0x7fac79aa09c0)"><text xml:space="preserve" font-family="Novecentosanswide-Medium,Novecento sans wide" font-size="50.0" fill="#FEFFFF" transform="matrix(1.00, 0.00, -0.00, -1.00, 656.2, 1061.9)">S</text><text xml:space="preserve" font-family="Novecentosanswide-Medium,Novecento sans wide" font-size="50.0" fill="#FEFFFF" transform="matrix(1.00, 0.00, -0.00, -1.00, 686.4, 1061.9)">L</text><text xml:space="preserve" font-family="Novecentosanswide-Medium,Novecento sans wide" font-size="50.0" fill="#FEFFFF" transform="matrix(1.00, 0.00, -0.00, -1.00, 714.7, 1061.9)">I</text><text xml:space="preserve" font-family="Novecentosanswide-Medium,Novecento sans wide" font-size="50.0" fill="#FEFFFF" transform="matrix(1.00, 0.00, -0.00, -1.00, 727.2, 1061.9)">D</text><text xml:space="preserve" font-family="Novecentosanswide-Medium,Novecento sans wide" font-size="50.0" fill="#FEFFFF" transform="matrix(1.00, 0.00, -0.00, -1.00, 764.0, 1061.9)">E</text><text xml:space="preserve" font-family="Novecentosanswide-Medium,Novecento sans wide" font-size="50.0" fill="#FEFFFF" transform="matrix(1.00, 0.00, -0.00, -1.00, 794.2, 1061.9)">S</text><text xml:space="preserve" font-family="Novecentosanswide-Medium,Novecento sans wide" font-size="50.0" fill="#FEFFFF" transform="matrix(1.00, 0.00, -0.00, -1.00, 824.4, 1061.9)"> </text><text xml:space="preserve" font-family="Novecentosanswide-Medium,Novecento sans wide" font-size="50.0" fill="#FEFFFF" transform="matrix(1.00, 0.00, -0.00, -1.00, 836.9, 1061.9)">A</text><text xml:space="preserve" font-family="Novecentosanswide-Medium,Novecento sans wide" font-size="50.0" fill="#FEFFFF" transform="matrix(1.00, 0.00, -0.00, -1.00, 869.1, 1061.9)">V</text><text xml:space="preserve" font-family="Novecentosanswide-Medium,Novecento sans wide" font-size="50.0" fill="#FEFFFF" transform="matrix(1.00, 0.00, -0.00, -1.00, 899.5, 1061.9)">A</text><text xml:space="preserve" font-family="Novecentosanswide-Medium,Novecento sans wide" font-size="50.0" fill="#FEFFFF" transform="matrix(1.00, 0.00, -0.00, -1.00, 936.5, 1061.9)">I</text><text xml:space="preserve" font-family="Novecentosanswide-Medium,Novecento sans wide" font-size="50.0" fill="#FEFFFF" transform="matrix(1.00, 0.00, -0.00, -1.00, 949.0, 1061.9)">L</text><text xml:space="preserve" font-family="Novecentosanswide-Medium,Novecento sans wide" font-size="50.0" fill="#FEFFFF" transform="matrix(1.00, 0.00, -0.00, -1.00, 977.5, 1061.9)">A</text><text xml:space="preserve" font-family="Novecentosanswide-Medium,Novecento sans wide" font-size="50.0" fill="#FEFFFF" transform="matrix(1.00, 0.00, -0.00, -1.00, 1014.5, 1061.9)">B</text><text xml:space="preserve" font-family="Novecentosanswide-Medium,Novecento sans wide" font-size="50.0" fill="#FEFFFF" transform="matrix(1.00, 0.00, -0.00, -1.00, 1045.8, 1061.9)">L</text><text xml:space="preserve" font-family="Novecentosanswide-Medium,Novecento sans wide" font-size="50.0" fill="#FEFFFF" transform="matrix(1.00, 0.00, -0.00, -1.00, 1074.1, 1061.9)">E</text><text xml:space="preserve" font-family="Novecentosanswide-Medium,Novecento sans wide" font-size="50.0" fill="#FEFFFF" transform="matrix(1.00, 0.00, -0.00, -1.00, 1104.3, 1061.9)"> </text><text xml:space="preserve" font-family="Novecentosanswide-Medium,Novecento sans wide" font-size="50.0" fill="#FEFFFF" transform="matrix(1.00, 0.00, -0.00, -1.00, 1116.8, 1061.9)">A</text><text xml:space="preserve" font-family="Novecentosanswide-Medium,Novecento sans wide" font-size="50.0" fill="#FEFFFF" transform="matrix(1.00, 0.00, -0.00, -1.00, 1148.3, 1061.9)">T</text><text xml:space="preserve" font-family="LucidaGrande-Bold,Lucida Grande" font-weight="bold" font-size="50.0" fill="#009ED8" transform="matrix(1.00, 0.00, -0.00, -1.00, 1180.5, 1061.9)"> </text><text xml:space="preserve" font-family="Cantarell-Regular,Cantarell" font-size="50.0" fill="#D8D8D8" transform="matrix(1.00, 0.00, -0.00, -1.00, 656.2, 990.9)">h</text><text xml:space="preserve" font-family="Cantarell-Regular,Cantarell" font-size="50.0" fill="#D8D8D8" transform="matrix(1.00, 0.00, -0.00, -1.00, 685.3, 990.9)">t</text><text xml:space="preserve" font-family="Cantarell-Regular,Cantarell" font-size="50.0" fill="#D8D8D8" transform="matrix(1.00, 0.00, -0.00, -1.00, 704.2, 990.9)">t</text><text xml:space="preserve" font-family="Cantarell-Regular,Cantarell" font-size="50.0" fill="#D8D8D8" transform="matrix(1.00, 0.00, -0.00, -1.00, 723.2, 990.9)">p</text><text xml:space="preserve" font-family="Cantarell-Regular,Cantarell" font-size="50.0" fill="#D8D8D8" transform="matrix(1.00, 0.00, -0.00, -1.00, 751.9, 990.9)">:</text><text xml:space="preserve" font-family="Cantarell-Regular,Cantarell" font-size="50.0" fill="#D8D8D8" transform="matrix(1.00, 0.00, -0.00, -1.00, 765.8, 990.9)">/</text><text xml:space="preserve" font-family="Cantarell-Regular,Cantarell" font-size="50.0" fill="#D8D8D8" transform="matrix(1.00, 0.00, -0.00, -1.00, 783.6, 990.9)">/</text><text xml:space="preserve" font-family="Cantarell-Regular,Cantarell" font-size="50.0" fill="#D8D8D8" transform="matrix(1.00, 0.00, -0.00, -1.00, 801.3, 990.9)">b</text><text xml:space="preserve" font-family="Cantarell-Regular,Cantarell" font-size="50.0" fill="#D8D8D8" transform="matrix(1.00, 0.00, -0.00, -1.00, 830.2, 990.9)">k</text><text xml:space="preserve" font-family="Cantarell-Regular,Cantarell" font-size="50.0" fill="#D8D8D8" transform="matrix(1.00, 0.00, -0.00, -1.00, 856.4, 990.9)">u</text><text xml:space="preserve" font-family="Cantarell-Regular,Cantarell" font-size="50.0" fill="#D8D8D8" transform="matrix(1.00, 0.00, -0.00, -1.00, 885.1, 990.9)">h</text><text xml:space="preserve" font-family="Cantarell-Regular,Cantarell" font-size="50.0" fill="#D8D8D8" transform="matrix(1.00, 0.00, -0.00, -1.00, 914.2, 990.9)">l</text><text xml:space="preserve" font-family="Cantarell-Regular,Cantarell" font-size="50.0" fill="#D8D8D8" transform="matrix(1.00, 0.00, -0.00, -1.00, 927.9, 990.9)">.</text><text xml:space="preserve" font-family="Cantarell-Regular,Cantarell" font-size="50.0" fill="#D8D8D8" transform="matrix(1.00, 0.00, -0.00, -1.00, 941.9, 990.9)">g</text><text xml:space="preserve" font-family="Cantarell-Regular,Cantarell" font-size="50.0" fill="#D8D8D8" transform="matrix(1.00, 0.00, -0.00, -1.00, 970.6, 990.9)">i</text><text xml:space="preserve" font-family="Cantarell-Regular,Cantarell" font-size="50.0" fill="#D8D8D8" transform="matrix(1.00, 0.00, -0.00, -1.00, 983.4, 990.9)">t</text><text xml:space="preserve" font-family="Cantarell-Regular,Cantarell" font-size="50.0" fill="#D8D8D8" transform="matrix(1.00, 0.00, -0.00, -1.00, 1002.3, 990.9)">h</text><text xml:space="preserve" font-family="Cantarell-Regular,Cantarell" font-size="50.0" fill="#D8D8D8" transform="matrix(1.00, 0.00, -0.00, -1.00, 1031.4, 990.9)">u</text><text xml:space="preserve" font-family="Cantarell-Regular,Cantarell" font-size="50.0" fill="#D8D8D8" transform="matrix(1.00, 0.00, -0.00, -1.00, 1060.1, 990.9)">b</text><text xml:space="preserve" font-family="Cantarell-Regular,Cantarell" font-size="50.0" fill="#D8D8D8" transform="matrix(1.00, 0.00, -0.00, -1.00, 1089.0, 990.9)">.</text><text xml:space="preserve" font-family="Cantarell-Regular,Cantarell" font-size="50.0" fill="#D8D8D8" transform="matrix(1.00, 0.00, -0.00, -1.00, 1102.9, 990.9)">i</text><text xml:space="preserve" font-family="Cantarell-Regular,Cantarell" font-size="50.0" fill="#D8D8D8" transform="matrix(1.00, 0.00, -0.00, -1.00, 1115.7, 990.9)">o</text><text xml:space="preserve" font-family="Cantarell-Regular,Cantarell" font-size="50.0" fill="#D8D8D8" transform="matrix(1.00, 0.00, -0.00, -1.00, 1145.3, 990.9)">/</text><text xml:space="preserve" font-family="Cantarell-Regular,Cantarell" font-size="50.0" fill="#D8D8D8" transform="matrix(1.00, 0.00, -0.00, -1.00, 1163.0, 990.9)">b</text><text xml:space="preserve" font-family="Cantarell-Regular,Cantarell" font-size="50.0" fill="#D8D8D8" transform="matrix(1.00, 0.00, -0.00, -1.00, 1191.9, 990.9)">b</text><text xml:space="preserve" font-family="Cantarell-Regular,Cantarell" font-size="50.0" fill="#D8D8D8" transform="matrix(1.00, 0.00, -0.00, -1.00, 1220.7, 990.9)">o</text><text xml:space="preserve" font-family="Cantarell-Regular,Cantarell" font-size="50.0" fill="#D8D8D8" transform="matrix(1.00, 0.00, -0.00, -1.00, 1250.3, 990.9)">w</text><text xml:space="preserve" font-family="Cantarell-Regular,Cantarell" font-size="50.0" fill="#D8D8D8" transform="matrix(1.00, 0.00, -0.00, -1.00, 1291.4, 990.9)">l</text><text xml:space="preserve" font-family="Cantarell-Regular,Cantarell" font-size="50.0" fill="#D8D8D8" transform="matrix(1.00, 0.00, -0.00, -1.00, 1305.2, 990.9)">-</text><text xml:space="preserve" font-family="Cantarell-Regular,Cantarell" font-size="50.0" fill="#D8D8D8" transform="matrix(1.00, 0.00, -0.00, -1.00, 1334.8, 990.9)">o</text><text xml:space="preserve" font-family="Cantarell-Regular,Cantarell" font-size="50.0" fill="#D8D8D8" transform="matrix(1.00, 0.00, -0.00, -1.00, 1364.3, 990.9)">u</text><text xml:space="preserve" font-family="Cantarell-Regular,Cantarell" font-size="50.0" fill="#D8D8D8" transform="matrix(1.00, 0.00, -0.00, -1.00, 1393.1, 990.9)">t</text><text xml:space="preserve" font-family="Cantarell-Regular,Cantarell" font-size="50.0" fill="#D8D8D8" transform="matrix(1.00, 0.00, -0.00, -1.00, 1412.0, 990.9)">r</text><text xml:space="preserve" font-family="Cantarell-Regular,Cantarell" font-size="50.0" fill="#D8D8D8" transform="matrix(1.00, 0.00, -0.00, -1.00, 1431.6, 990.9)">e</text><text xml:space="preserve" font-family="Cantarell-Regular,Cantarell" font-size="50.0" fill="#D8D8D8" transform="matrix(1.00, 0.00, -0.00, -1.00, 1458.5, 990.9)">a</text><text xml:space="preserve" font-family="Cantarell-Regular,Cantarell" font-size="50.0" fill="#D8D8D8" transform="matrix(1.00, 0.00, -0.00, -1.00, 1484.6, 990.9)">c</text><text xml:space="preserve" font-family="Cantarell-Regular,Cantarell" font-size="50.0" fill="#D8D8D8" transform="matrix(1.00, 0.00, -0.00, -1.00, 1509.0, 990.9)">h</text><text xml:space="preserve" font-family="Cantarell-Regular,Cantarell" font-size="50.0" fill="#D8D8D8" transform="matrix(1.00, 0.00, -0.00, -1.00, 1538.1, 990.9)"> </text><text xml:space="preserve" font-family="Novecentosanswide-Medium,Novecento sans wide" font-size="50.0" fill="#FEFFFF" transform="matrix(1.00, 0.00, -0.00, -1.00, 656.2, 778.9)">E</text><text xml:space="preserve" font-family="Novecentosanswide-Medium,Novecento sans wide" font-size="50.0" fill="#FEFFFF" transform="matrix(1.00, 0.00, -0.00, -1.00, 686.4, 778.9)">M</text><text xml:space="preserve" font-family="Novecentosanswide-Medium,Novecento sans wide" font-size="50.0" fill="#FEFFFF" transform="matrix(1.00, 0.00, -0.00, -1.00, 726.8, 778.9)">A</text><text xml:space="preserve" font-family="Novecentosanswide-Medium,Novecento sans wide" font-size="50.0" fill="#FEFFFF" transform="matrix(1.00, 0.00, -0.00, -1.00, 763.8, 778.9)">I</text><text xml:space="preserve" font-family="Novecentosanswide-Medium,Novecento sans wide" font-size="50.0" fill="#FEFFFF" transform="matrix(1.00, 0.00, -0.00, -1.00, 776.3, 778.9)">L</text><text xml:space="preserve" font-family="LucidaGrande-Bold,Lucida Grande" font-weight="bold" font-size="50.0" fill="#009ED8" transform="matrix(1.00, 0.00, -0.00, -1.00, 804.6, 778.9)"> </text><text xml:space="preserve" font-family="Cantarell-Regular,Cantarell" font-size="50.0" fill="#D8D8D8" transform="matrix(1.00, 0.00, -0.00, -1.00, 656.2, 707.9)">b</text><text xml:space="preserve" font-family="Cantarell-Regular,Cantarell" font-size="50.0" fill="#D8D8D8" transform="matrix(1.00, 0.00, -0.00, -1.00, 685.1, 707.9)">e</text><text xml:space="preserve" font-family="Cantarell-Regular,Cantarell" font-size="50.0" fill="#D8D8D8" transform="matrix(1.00, 0.00, -0.00, -1.00, 712.0, 707.9)">n</text><text xml:space="preserve" font-family="Cantarell-Regular,Cantarell" font-size="50.0" fill="#D8D8D8" transform="matrix(1.00, 0.00, -0.00, -1.00, 740.7, 707.9)">k</text><text xml:space="preserve" font-family="Cantarell-Regular,Cantarell" font-size="50.0" fill="#D8D8D8" transform="matrix(1.00, 0.00, -0.00, -1.00, 766.9, 707.9)">u</text><text xml:space="preserve" font-family="Cantarell-Regular,Cantarell" font-size="50.0" fill="#D8D8D8" transform="matrix(1.00, 0.00, -0.00, -1.00, 795.6, 707.9)">h</text><text xml:space="preserve" font-family="Cantarell-Regular,Cantarell" font-size="50.0" fill="#D8D8D8" transform="matrix(1.00, 0.00, -0.00, -1.00, 824.7, 707.9)">l</text><text xml:space="preserve" font-family="Cantarell-Regular,Cantarell" font-size="50.0" fill="#D8D8D8" transform="matrix(1.00, 0.00, -0.00, -1.00, 838.5, 707.9)">@</text><text xml:space="preserve" font-family="Cantarell-Regular,Cantarell" font-size="50.0" fill="#D8D8D8" transform="matrix(1.00, 0.00, -0.00, -1.00, 889.8, 707.9)">g</text><text xml:space="preserve" font-family="Cantarell-Regular,Cantarell" font-size="50.0" fill="#D8D8D8" transform="matrix(1.00, 0.00, -0.00, -1.00, 918.5, 707.9)">m</text><text xml:space="preserve" font-family="Cantarell-Regular,Cantarell" font-size="50.0" fill="#D8D8D8" transform="matrix(1.00, 0.00, -0.00, -1.00, 960.8, 707.9)">a</text><text xml:space="preserve" font-family="Cantarell-Regular,Cantarell" font-size="50.0" fill="#D8D8D8" transform="matrix(1.00, 0.00, -0.00, -1.00, 986.9, 707.9)">i</text><text xml:space="preserve" font-family="Cantarell-Regular,Cantarell" font-size="50.0" fill="#D8D8D8" transform="matrix(1.00, 0.00, -0.00, -1.00, 999.7, 707.9)">l</text><text xml:space="preserve" font-family="Cantarell-Regular,Cantarell" font-size="50.0" fill="#D8D8D8" transform="matrix(1.00, 0.00, -0.00, -1.00, 1013.5, 707.9)">.</text><text xml:space="preserve" font-family="Cantarell-Regular,Cantarell" font-size="50.0" fill="#D8D8D8" transform="matrix(1.00, 0.00, -0.00, -1.00, 1027.4, 707.9)">c</text><text xml:space="preserve" font-family="Cantarell-Regular,Cantarell" font-size="50.0" fill="#D8D8D8" transform="matrix(1.00, 0.00, -0.00, -1.00, 1051.9, 707.9)">o</text><text xml:space="preserve" font-family="Cantarell-Regular,Cantarell" font-size="50.0" fill="#D8D8D8" transform="matrix(1.00, 0.00, -0.00, -1.00, 1081.4, 707.9)">m</text><text xml:space="preserve" font-family="Cantarell-Regular,Cantarell" font-size="90.0" fill="#009ED8" transform="matrix(1.00, 0.00, -0.00, -1.00, 1123.7, 707.9)"> </text><text xml:space="preserve" font-family="Novecentosanswide-Medium,Novecento sans wide" font-size="50.0" fill="#FEFFFF" transform="matrix(1.00, 0.00, -0.00, -1.00, 656.2, 601.9)">T</text><text xml:space="preserve" font-family="Novecentosanswide-Medium,Novecento sans wide" font-size="50.0" fill="#FEFFFF" transform="matrix(1.00, 0.00, -0.00, -1.00, 688.4, 601.9)">W</text><text xml:space="preserve" font-family="Novecentosanswide-Medium,Novecento sans wide" font-size="50.0" fill="#FEFFFF" transform="matrix(1.00, 0.00, -0.00, -1.00, 738.6, 601.9)">I</text><text xml:space="preserve" font-family="Novecentosanswide-Medium,Novecento sans wide" font-size="50.0" fill="#FEFFFF" transform="matrix(1.00, 0.00, -0.00, -1.00, 751.1, 601.9)">T</text><text xml:space="preserve" font-family="Novecentosanswide-Medium,Novecento sans wide" font-size="50.0" fill="#FEFFFF" transform="matrix(1.00, 0.00, -0.00, -1.00, 783.3, 601.9)">T</text><text xml:space="preserve" font-family="Novecentosanswide-Medium,Novecento sans wide" font-size="50.0" fill="#FEFFFF" transform="matrix(1.00, 0.00, -0.00, -1.00, 815.5, 601.9)">E</text><text xml:space="preserve" font-family="Novecentosanswide-Medium,Novecento sans wide" font-size="50.0" fill="#FEFFFF" transform="matrix(1.00, 0.00, -0.00, -1.00, 845.7, 601.9)">R</text><text xml:space="preserve" font-family="LucidaGrande-Bold,Lucida Grande" font-weight="bold" font-size="50.0" fill="#009ED8" transform="matrix(1.00, 0.00, -0.00, -1.00, 876.5, 601.9)"> </text><text xml:space="preserve" font-family="Cantarell-Regular,Cantarell" font-size="50.0" fill="#D8D8D8" transform="matrix(1.00, 0.00, -0.00, -1.00, 656.2, 530.9)">t</text><text xml:space="preserve" font-family="Cantarell-Regular,Cantarell" font-size="50.0" fill="#D8D8D8" transform="matrix(1.00, 0.00, -0.00, -1.00, 675.2, 530.9)">w</text><text xml:space="preserve" font-family="Cantarell-Regular,Cantarell" font-size="50.0" fill="#D8D8D8" transform="matrix(1.00, 0.00, -0.00, -1.00, 716.3, 530.9)">i</text><text xml:space="preserve" font-family="Cantarell-Regular,Cantarell" font-size="50.0" fill="#D8D8D8" transform="matrix(1.00, 0.00, -0.00, -1.00, 729.1, 530.9)">t</text><text xml:space="preserve" font-family="Cantarell-Regular,Cantarell" font-size="50.0" fill="#D8D8D8" transform="matrix(1.00, 0.00, -0.00, -1.00, 748.0, 530.9)">t</text><text xml:space="preserve" font-family="Cantarell-Regular,Cantarell" font-size="50.0" fill="#D8D8D8" transform="matrix(1.00, 0.00, -0.00, -1.00, 766.9, 530.9)">e</text><text xml:space="preserve" font-family="Cantarell-Regular,Cantarell" font-size="50.0" fill="#D8D8D8" transform="matrix(1.00, 0.00, -0.00, -1.00, 793.9, 530.9)">r</text><text xml:space="preserve" font-family="Cantarell-Regular,Cantarell" font-size="50.0" fill="#D8D8D8" transform="matrix(1.00, 0.00, -0.00, -1.00, 813.4, 530.9)">.</text><text xml:space="preserve" font-family="Cantarell-Regular,Cantarell" font-size="50.0" fill="#D8D8D8" transform="matrix(1.00, 0.00, -0.00, -1.00, 827.4, 530.9)">c</text><text xml:space="preserve" font-family="Cantarell-Regular,Cantarell" font-size="50.0" fill="#D8D8D8" transform="matrix(1.00, 0.00, -0.00, -1.00, 851.8, 530.9)">o</text><text xml:space="preserve" font-family="Cantarell-Regular,Cantarell" font-size="50.0" fill="#D8D8D8" transform="matrix(1.00, 0.00, -0.00, -1.00, 881.4, 530.9)">m</text><text xml:space="preserve" font-family="Cantarell-Regular,Cantarell" font-size="50.0" fill="#D8D8D8" transform="matrix(1.00, 0.00, -0.00, -1.00, 923.7, 530.9)">/</text><text xml:space="preserve" font-family="Cantarell-Regular,Cantarell" font-size="50.0" fill="#D8D8D8" transform="matrix(1.00, 0.00, -0.00, -1.00, 941.4, 530.9)">B</text><text xml:space="preserve" font-family="Cantarell-Regular,Cantarell" font-size="50.0" fill="#D8D8D8" transform="matrix(1.00, 0.00, -0.00, -1.00, 976.2, 530.9)">K</text><text xml:space="preserve" font-family="Cantarell-Regular,Cantarell" font-size="50.0" fill="#D8D8D8" transform="matrix(1.00, 0.00, -0.00, -1.00, 1010.8, 530.9)">u</text><text xml:space="preserve" font-family="Cantarell-Regular,Cantarell" font-size="50.0" fill="#D8D8D8" transform="matrix(1.00, 0.00, -0.00, -1.00, 1039.5, 530.9)">h</text><text xml:space="preserve" font-family="Cantarell-Regular,Cantarell" font-size="50.0" fill="#D8D8D8" transform="matrix(1.00, 0.00, -0.00, -1.00, 1068.5, 530.9)">l</text><text xml:space="preserve" font-family="Cantarell-Regular,Cantarell" font-size="50.0" fill="#D8D8D8" transform="matrix(1.00, 0.00, -0.00, -1.00, 1082.3, 530.9)">O</text><text xml:space="preserve" font-family="Cantarell-Regular,Cantarell" font-size="50.0" fill="#D8D8D8" transform="matrix(1.00, 0.00, -0.00, -1.00, 1123.5, 530.9)">r</text><text xml:space="preserve" font-family="Cantarell-Regular,Cantarell" font-size="50.0" fill="#D8D8D8" transform="matrix(1.00, 0.00, -0.00, -1.00, 1143.1, 530.9)">E</text><text xml:space="preserve" font-family="Cantarell-Regular,Cantarell" font-size="50.0" fill="#D8D8D8" transform="matrix(1.00, 0.00, -0.00, -1.00, 1174.4, 530.9)">l</text><text xml:space="preserve" font-family="Cantarell-Regular,Cantarell" font-size="50.0" fill="#D8D8D8" transform="matrix(1.00, 0.00, -0.00, -1.00, 1188.2, 530.9)">s</text><text xml:space="preserve" font-family="Cantarell-Regular,Cantarell" font-size="50.0" fill="#D8D8D8" transform="matrix(1.00, 0.00, -0.00, -1.00, 1213.0, 530.9)">e</text><text xml:space="preserve" font-family="Cantarell-Regular,Cantarell" font-size="90.0" fill="#009ED8" transform="matrix(1.00, 0.00, -0.00, -1.00, 1239.8, 530.9)"> </text><text xml:space="preserve" font-family="Novecentosanswide-Medium,Novecento sans wide" font-size="50.0" fill="#FEFFFF" transform="matrix(1.00, 0.00, -0.00, -1.00, 656.2, 424.9)">G</text><text xml:space="preserve" font-family="Novecentosanswide-Medium,Novecento sans wide" font-size="50.0" fill="#FEFFFF" transform="matrix(1.00, 0.00, -0.00, -1.00, 695.6, 424.9)">O</text><text xml:space="preserve" font-family="Novecentosanswide-Medium,Novecento sans wide" font-size="50.0" fill="#FEFFFF" transform="matrix(1.00, 0.00, -0.00, -1.00, 735.8, 424.9)">O</text><text xml:space="preserve" font-family="Novecentosanswide-Medium,Novecento sans wide" font-size="50.0" fill="#FEFFFF" transform="matrix(1.00, 0.00, -0.00, -1.00, 776.0, 424.9)">G</text><text xml:space="preserve" font-family="Novecentosanswide-Medium,Novecento sans wide" font-size="50.0" fill="#FEFFFF" transform="matrix(1.00, 0.00, -0.00, -1.00, 815.3, 424.9)">L</text><text xml:space="preserve" font-family="Novecentosanswide-Medium,Novecento sans wide" font-size="50.0" fill="#FEFFFF" transform="matrix(1.00, 0.00, -0.00, -1.00, 843.6, 424.9)">E</text><text xml:space="preserve" font-family="Novecentosanswide-Medium,Novecento sans wide" font-size="50.0" fill="#FEFFFF" transform="matrix(1.00, 0.00, -0.00, -1.00, 873.8, 424.9)">+</text><text xml:space="preserve" font-family="LucidaGrande-Bold,Lucida Grande" font-weight="bold" font-size="50.0" fill="#009ED8" transform="matrix(1.00, 0.00, -0.00, -1.00, 907.2, 424.9)"> </text><text xml:space="preserve" font-family="Cantarell-Regular,Cantarell" font-size="50.0" fill="#DCDDE0" transform="matrix(1.00, 0.00, -0.00, -1.00, 656.2, 353.9)">p</text><text xml:space="preserve" font-family="Cantarell-Regular,Cantarell" font-size="50.0" fill="#DCDDE0" transform="matrix(1.00, 0.00, -0.00, -1.00, 685.0, 353.9)">l</text><text xml:space="preserve" font-family="Cantarell-Regular,Cantarell" font-size="50.0" fill="#DCDDE0" transform="matrix(1.00, 0.00, -0.00, -1.00, 698.8, 353.9)">u</text><text xml:space="preserve" font-family="Cantarell-Regular,Cantarell" font-size="50.0" fill="#DCDDE0" transform="matrix(1.00, 0.00, -0.00, -1.00, 727.5, 353.9)">s</text><text xml:space="preserve" font-family="Cantarell-Regular,Cantarell" font-size="50.0" fill="#DCDDE0" transform="matrix(1.00, 0.00, -0.00, -1.00, 752.3, 353.9)">.</text><text xml:space="preserve" font-family="Cantarell-Regular,Cantarell" font-size="50.0" fill="#DCDDE0" transform="matrix(1.00, 0.00, -0.00, -1.00, 766.2, 353.9)">g</text><text xml:space="preserve" font-family="Cantarell-Regular,Cantarell" font-size="50.0" fill="#DCDDE0" transform="matrix(1.00, 0.00, -0.00, -1.00, 795.0, 353.9)">o</text><text xml:space="preserve" font-family="Cantarell-Regular,Cantarell" font-size="50.0" fill="#DCDDE0" transform="matrix(1.00, 0.00, -0.00, -1.00, 824.6, 353.9)">o</text><text xml:space="preserve" font-family="Cantarell-Regular,Cantarell" font-size="50.0" fill="#DCDDE0" transform="matrix(1.00, 0.00, -0.00, -1.00, 854.2, 353.9)">g</text><text xml:space="preserve" font-family="Cantarell-Regular,Cantarell" font-size="50.0" fill="#DCDDE0" transform="matrix(1.00, 0.00, -0.00, -1.00, 882.9, 353.9)">l</text><text xml:space="preserve" font-family="Cantarell-Regular,Cantarell" font-size="50.0" fill="#DCDDE0" transform="matrix(1.00, 0.00, -0.00, -1.00, 896.7, 353.9)">e</text><text xml:space="preserve" font-family="Cantarell-Regular,Cantarell" font-size="50.0" fill="#DCDDE0" transform="matrix(1.00, 0.00, -0.00, -1.00, 923.6, 353.9)">.</text><text xml:space="preserve" font-family="Cantarell-Regular,Cantarell" font-size="50.0" fill="#DCDDE0" transform="matrix(1.00, 0.00, -0.00, -1.00, 937.6, 353.9)">c</text><text xml:space="preserve" font-family="Cantarell-Regular,Cantarell" font-size="50.0" fill="#DCDDE0" transform="matrix(1.00, 0.00, -0.00, -1.00, 962.0, 353.9)">o</text><text xml:space="preserve" font-family="Cantarell-Regular,Cantarell" font-size="50.0" fill="#DCDDE0" transform="matrix(1.00, 0.00, -0.00, -1.00, 991.6, 353.9)">m</text><text xml:space="preserve" font-family="Cantarell-Regular,Cantarell" font-size="50.0" fill="#DCDDE0" transform="matrix(1.00, 0.00, -0.00, -1.00, 1033.9, 353.9)">/</text><text xml:space="preserve" font-family="Cantarell-Regular,Cantarell" font-size="50.0" fill="#DCDDE0" transform="matrix(1.00, 0.00, -0.00, -1.00, 1051.7, 353.9)">+</text><text xml:space="preserve" font-family="Cantarell-Regular,Cantarell" font-size="50.0" fill="#DCDDE0" transform="matrix(1.00, 0.00, -0.00, -1.00, 1085.8, 353.9)">B</text><text xml:space="preserve" font-family="Cantarell-Regular,Cantarell" font-size="50.0" fill="#DCDDE0" transform="matrix(1.00, 0.00, -0.00, -1.00, 1120.6, 353.9)">e</text><text xml:space="preserve" font-family="Cantarell-Regular,Cantarell" font-size="50.0" fill="#DCDDE0" transform="matrix(1.00, 0.00, -0.00, -1.00, 1147.5, 353.9)">n</text><text xml:space="preserve" font-family="Cantarell-Regular,Cantarell" font-size="50.0" fill="#DCDDE0" transform="matrix(1.00, 0.00, -0.00, -1.00, 1176.3, 353.9)">K</text><text xml:space="preserve" font-family="Cantarell-Regular,Cantarell" font-size="50.0" fill="#DCDDE0" transform="matrix(1.00, 0.00, -0.00, -1.00, 1210.8, 353.9)">u</text><text xml:space="preserve" font-family="Cantarell-Regular,Cantarell" font-size="50.0" fill="#DCDDE0" transform="matrix(1.00, 0.00, -0.00, -1.00, 1239.6, 353.9)">h</text><text xml:space="preserve" font-family="Cantarell-Regular,Cantarell" font-size="50.0" fill="#DCDDE0" transform="matrix(1.00, 0.00, -0.00, -1.00, 1268.6, 353.9)">l</text></g></g><g><clipPath id="clip0x7fac79a42020"><path d="M 502.2 525.0 L 609.2 525.0 L 609.2 632.0 L 502.2 632.0 Z M 502.2 525.0 "></path></clipPath><g clip-path="url(#clip0x7fac79a42020)"><path d="M 592.8 615.6 C 613.3 595.1 613.3 561.9 592.8 541.4 C 572.3 520.9 539.1 520.9 518.6 541.4 C 498.1 561.9 498.1 595.1 518.6 615.6 C 539.1 636.1 572.3 636.1 592.8 615.6 " fill="#01A1D6"></path></g></g><g><clipPath id="clip0x7fac79a4d0a0"><path d="M 502.3 526.0 L 609.1 526.0 L 609.1 631.0 L 502.3 631.0 Z M 502.3 526.0 "></path></clipPath><g clip-path="url(#clip0x7fac79a4d0a0)"><text xml:space="preserve" font-family="Sosa-Regular,Sosa" font-size="56.0" fill="#FEFFFF" transform="matrix(1.00, 0.00, -0.00, -1.00, 527.7, 563.9)">t</text></g></g><g><clipPath id="clip0x7fac79a4f320"><path d="M 502.2 343.0 L 609.2 343.0 L 609.2 450.0 L 502.2 450.0 Z M 502.2 343.0 "></path></clipPath><g clip-path="url(#clip0x7fac79a4f320)"><path d="M 592.8 433.6 C 613.3 413.1 613.3 379.9 592.8 359.4 C 572.3 338.9 539.1 338.9 518.6 359.4 C 498.1 379.9 498.1 413.1 518.6 433.6 C 539.1 454.1 572.3 454.1 592.8 433.6 " fill="#01A1D6"></path></g></g><g><clipPath id="clip0x7fac79a502a0"><path d="M 502.8 344.0 L 608.7 344.0 L 608.7 449.0 L 502.8 449.0 Z M 502.8 344.0 "></path></clipPath><g clip-path="url(#clip0x7fac79a502a0)"><text xml:space="preserve" font-family="FontAwesome,FontAwesome" font-size="64.0" fill="#FEFFFF" transform="matrix(1.00, 0.00, -0.00, -1.00, 526.0, 374.9)">+</text></g></g><g><clipPath id="clip0x7fac76fe5220"><path d="M 502.2 707.0 L 609.2 707.0 L 609.2 814.0 L 502.2 814.0 Z M 502.2 707.0 "></path></clipPath><g clip-path="url(#clip0x7fac76fe5220)"><path d="M 592.8 797.6 C 613.3 777.1 613.3 743.9 592.8 723.4 C 572.3 702.9 539.1 702.9 518.6 723.4 C 498.1 743.9 498.1 777.1 518.6 797.6 C 539.1 818.1 572.3 818.1 592.8 797.6 " fill="#01A1D6"></path></g></g><g><clipPath id="clip0x7fac7b20c1f0"><path d="M 503.2 707.7 L 608.2 707.7 L 608.2 813.0 L 503.2 813.0 Z M 503.2 707.7 "></path></clipPath><g clip-path="url(#clip0x7fac7b20c1f0)"><text xml:space="preserve" font-family="Sosa-Regular,Sosa" font-size="64.0" fill="#FEFFFF" transform="matrix(1.00, 0.00, -0.00, -1.00, 523.7, 744.4)">É</text></g></g><g><clipPath id="clip0x7fac7b213920"><path d="M 502.2 996.0 L 609.2 996.0 L 609.2 1103.0 L 502.2 1103.0 Z M 502.2 996.0 "></path></clipPath><g clip-path="url(#clip0x7fac7b213920)"><path d="M 592.8 1086.6 C 613.3 1066.1 613.3 1032.9 592.8 1012.4 C 572.3 991.9 539.1 991.9 518.6 1012.4 C 498.1 1032.9 498.1 1066.1 518.6 1086.6 C 539.1 1107.1 572.3 1107.1 592.8 1086.6 " fill="#01A1D6"></path></g></g><g><clipPath id="clip0x7fac7b214940"><path d="M 502.6 997.0 L 608.9 997.0 L 608.9 1102.0 L 502.6 1102.0 Z M 502.6 997.0 "></path></clipPath><g clip-path="url(#clip0x7fac7b214940)"><text xml:space="preserve" font-family="Sosa-Regular,Sosa" font-size="60.0" fill="#FEFFFF" transform="matrix(1.00, 0.00, -0.00, -1.00, 525.7, 1034.5)">à</text></g></g></g></svg>