<?xml version="1.0" encoding="UTF-8" standalone="no"?><svg xmlns="http://www.w3.org/2000/svg" xmlns:xlink="http://www.w3.org/1999/xlink" clip-rule="evenodd" stroke-miterlimit="10" viewBox="0 0 435 449"><desc>SVG generated by Keynote</desc><defs></defs><g transform="matrix(1.00, 0.00, -0.00, -1.00, 0.0, 449.0)"><g><clipPath id="clip0x6000014a8160"><path d="M 55.2 124.4 L 379.8 124.4 L 379.8 448.9 L 55.2 448.9 Z M 55.2 124.4 "></path></clipPath><g clip-path="url(#clip0x6000014a8160)"><path d="M 331.5 400.7 C 394.5 337.7 394.5 235.6 331.5 172.6 C 268.6 109.7 166.4 109.7 103.5 172.6 C 40.5 235.6 40.5 337.7 103.5 400.7 C 166.4 463.7 268.6 463.7 331.5 400.7 " fill="#6DB9A4"></path></g></g><g><clipPath id="clip0x6000014a83a0"><path d="M 54.0 98.8 L 381.0 98.8 L 381.0 474.8 L 54.0 474.8 Z M 54.0 98.8 "></path></clipPath><g clip-path="url(#clip0x6000014a83a0)"><text xml:space="preserve" font-family="Entypo,Entypo" font-size="250.0" fill="#FEFFFF" transform="matrix(1.00, 0.00, -0.00, -1.00, 142.5, 223.8)">9</text></g></g><g><clipPath id="clip0x608000eb36e0"><path d="M -16.5 -23.6 L 451.5 -23.6 L 451.5 109.5 L -16.5 109.5 Z M -16.5 -23.6 "></path></clipPath><g clip-path="url(#clip0x608000eb36e0)"><text xml:space="preserve" font-family="Cantarell-Regular,Cantarell" font-size="64.0" fill="#FFFFFF" transform="matrix(1.00, 0.00, -0.00, -1.00, 20.6, 21.4)">1</text><text xml:space="preserve" font-family="Cantarell-Regular,Cantarell" font-size="64.0" fill="#FFFFFF" transform="matrix(1.00, 0.00, -0.00, -1.00, 61.2, 21.4)">)</text><text xml:space="preserve" font-family="Cantarell-Regular,Cantarell" font-size="64.0" fill="#FFFFFF" transform="matrix(1.00, 0.00, -0.00, -1.00, 84.5, 21.4)"> </text><text xml:space="preserve" font-family="Novecentosanswide-Medium,Novecento sans wide" font-size="64.0" fill="#FFFFFF" transform="matrix(1.00, 0.00, -0.00, -1.00, 101.9, 21.4)">O</text><text xml:space="preserve" font-family="Novecentosanswide-Medium,Novecento sans wide" font-size="64.0" fill="#FFFFFF" transform="matrix(1.00, 0.00, -0.00, -1.00, 153.1, 21.4)">u</text><text xml:space="preserve" font-family="Novecentosanswide-Medium,Novecento sans wide" font-size="64.0" fill="#FFFFFF" transform="matrix(1.00, 0.00, -0.00, -1.00, 192.7, 21.4)">t</text><text xml:space="preserve" font-family="Novecentosanswide-Medium,Novecento sans wide" font-size="64.0" fill="#FFFFFF" transform="matrix(1.00, 0.00, -0.00, -1.00, 228.1, 21.4)">r</text><text xml:space="preserve" font-family="Novecentosanswide-Medium,Novecento sans wide" font-size="64.0" fill="#FFFFFF" transform="matrix(1.00, 0.00, -0.00, -1.00, 263.3, 21.4)">e</text><text xml:space="preserve" font-family="Novecentosanswide-Medium,Novecento sans wide" font-size="64.0" fill="#FFFFFF" transform="matrix(1.00, 0.00, -0.00, -1.00, 297.3, 21.4)">a</text><text xml:space="preserve" font-family="Novecentosanswide-Medium,Novecento sans wide" font-size="64.0" fill="#FFFFFF" transform="matrix(1.00, 0.00, -0.00, -1.00, 334.6, 21.4)">c</text><text xml:space="preserve" font-family="Novecentosanswide-Medium,Novecento sans wide" font-size="64.0" fill="#FFFFFF" transform="matrix(1.00, 0.00, -0.00, -1.00, 374.8, 21.4)">h</text></g></g></g></svg>