<?xml version="1.0" encoding="UTF-8" standalone="no"?><svg xmlns="http://www.w3.org/2000/svg" xmlns:xlink="http://www.w3.org/1999/xlink" clip-rule="evenodd" stroke-miterlimit="10" viewBox="0 0 435 444"><desc>SVG generated by Keynote</desc><defs></defs><g transform="matrix(1.00, 0.00, -0.00, -1.00, 0.0, 444.0)"><g><clipPath id="clip0x7fac78e77490"><path d="M 55.2 119.4 L 379.8 119.4 L 379.8 443.9 L 55.2 443.9 Z M 55.2 119.4 "></path></clipPath><g clip-path="url(#clip0x7fac78e77490)"><path d="M 331.5 395.7 C 394.5 332.7 394.5 230.6 331.5 167.6 C 268.6 104.7 166.4 104.7 103.5 167.6 C 40.5 230.6 40.5 332.7 103.5 395.7 C 166.4 458.7 268.6 458.7 331.5 395.7 " fill="#ADD8E7"></path></g></g><g><clipPath id="clip0x7fac78e78f50"><path d="M 54.0 93.8 L 381.0 93.8 L 381.0 469.8 L 54.0 469.8 Z M 54.0 93.8 "></path></clipPath><g clip-path="url(#clip0x7fac78e78f50)"><text xml:space="preserve" font-family="Entypo,Entypo" font-size="250.0" fill="#FEFFFF" transform="matrix(1.00, 0.00, -0.00, -1.00, 142.5, 218.8)">,</text></g></g><g><clipPath id="clip0x7fac78e7a590"><path d="M -16.5 -23.6 L 451.5 -23.6 L 451.5 109.5 L -16.5 109.5 Z M -16.5 -23.6 "></path></clipPath><g clip-path="url(#clip0x7fac78e7a590)"><text xml:space="preserve" font-family="Cantarell-Regular,Cantarell" font-size="64.0" fill="#FFFFFF" transform="matrix(1.00, 0.00, -0.00, -1.00, 8.4, 21.4)">2</text><text xml:space="preserve" font-family="Cantarell-Regular,Cantarell" font-size="64.0" fill="#FFFFFF" transform="matrix(1.00, 0.00, -0.00, -1.00, 49.0, 21.4)">)</text><text xml:space="preserve" font-family="Cantarell-Regular,Cantarell" font-size="64.0" fill="#FFFFFF" transform="matrix(1.00, 0.00, -0.00, -1.00, 72.3, 21.4)"> </text><text xml:space="preserve" font-family="Novecentosanswide-Medium,Novecento sans wide" font-size="64.0" fill="#FFFFFF" transform="matrix(1.00, 0.00, -0.00, -1.00, 89.7, 21.4)">M</text><text xml:space="preserve" font-family="Novecentosanswide-Medium,Novecento sans wide" font-size="64.0" fill="#FFFFFF" transform="matrix(1.00, 0.00, -0.00, -1.00, 141.4, 21.4)">e</text><text xml:space="preserve" font-family="Novecentosanswide-Medium,Novecento sans wide" font-size="64.0" fill="#FFFFFF" transform="matrix(1.00, 0.00, -0.00, -1.00, 175.4, 21.4)">n</text><text xml:space="preserve" font-family="Novecentosanswide-Medium,Novecento sans wide" font-size="64.0" fill="#FFFFFF" transform="matrix(1.00, 0.00, -0.00, -1.00, 216.3, 21.4)">t</text><text xml:space="preserve" font-family="Novecentosanswide-Medium,Novecento sans wide" font-size="64.0" fill="#FFFFFF" transform="matrix(1.00, 0.00, -0.00, -1.00, 249.5, 21.4)">o</text><text xml:space="preserve" font-family="Novecentosanswide-Medium,Novecento sans wide" font-size="64.0" fill="#FFFFFF" transform="matrix(1.00, 0.00, -0.00, -1.00, 291.9, 21.4)">r</text><text xml:space="preserve" font-family="Novecentosanswide-Medium,Novecento sans wide" font-size="64.0" fill="#FFFFFF" transform="matrix(1.00, 0.00, -0.00, -1.00, 327.1, 21.4)">i</text><text xml:space="preserve" font-family="Novecentosanswide-Medium,Novecento sans wide" font-size="64.0" fill="#FFFFFF" transform="matrix(1.00, 0.00, -0.00, -1.00, 342.7, 21.4)">n</text><text xml:space="preserve" font-family="Novecentosanswide-Medium,Novecento sans wide" font-size="64.0" fill="#FFFFFF" transform="matrix(1.00, 0.00, -0.00, -1.00, 383.6, 21.4)">g</text></g></g></g></svg>