<?xml version="1.0" encoding="UTF-8" standalone="no"?><svg xmlns="http://www.w3.org/2000/svg" xmlns:xlink="http://www.w3.org/1999/xlink" clip-rule="evenodd" stroke-miterlimit="10" viewBox="0 0 464 123"><desc>SVG generated by Keynote</desc><defs></defs><g transform="matrix(1.00, 0.00, -0.00, -1.00, 0.0, 123.0)"><text xml:space="preserve" font-family="Novecentosanswide-Medium,Novecento sans wide" font-size="50.0" fill="#FEFFFF" transform="matrix(1.00, 0.00, -0.00, -1.00, -1.8, 85.9)">E</text><text xml:space="preserve" font-family="Novecentosanswide-Medium,Novecento sans wide" font-size="50.0" fill="#FEFFFF" transform="matrix(1.00, 0.00, -0.00, -1.00, 28.4, 85.9)">M</text><text xml:space="preserve" font-family="Novecentosanswide-Medium,Novecento sans wide" font-size="50.0" fill="#FEFFFF" transform="matrix(1.00, 0.00, -0.00, -1.00, 68.8, 85.9)">A</text><text xml:space="preserve" font-family="Novecentosanswide-Medium,Novecento sans wide" font-size="50.0" fill="#FEFFFF" transform="matrix(1.00, 0.00, -0.00, -1.00, 105.8, 85.9)">I</text><text xml:space="preserve" font-family="Novecentosanswide-Medium,Novecento sans wide" font-size="50.0" fill="#FEFFFF" transform="matrix(1.00, 0.00, -0.00, -1.00, 118.3, 85.9)">L</text><text xml:space="preserve" font-family="LucidaGrande-Bold,Lucida Grande" font-weight="bold" font-size="50.0" fill="#009ED8" transform="matrix(1.00, 0.00, -0.00, -1.00, 146.6, 85.9)"> </text><text xml:space="preserve" font-family="Cantarell-Regular,Cantarell" font-size="50.0" fill="#D8D8D8" transform="matrix(1.00, 0.00, -0.00, -1.00, -1.8, 14.9)">b</text><text xml:space="preserve" font-family="Cantarell-Regular,Cantarell" font-size="50.0" fill="#D8D8D8" transform="matrix(1.00, 0.00, -0.00, -1.00, 27.1, 14.9)">e</text><text xml:space="preserve" font-family="Cantarell-Regular,Cantarell" font-size="50.0" fill="#D8D8D8" transform="matrix(1.00, 0.00, -0.00, -1.00, 54.0, 14.9)">n</text><text xml:space="preserve" font-family="Cantarell-Regular,Cantarell" font-size="50.0" fill="#D8D8D8" transform="matrix(1.00, 0.00, -0.00, -1.00, 82.7, 14.9)">k</text><text xml:space="preserve" font-family="Cantarell-Regular,Cantarell" font-size="50.0" fill="#D8D8D8" transform="matrix(1.00, 0.00, -0.00, -1.00, 108.9, 14.9)">u</text><text xml:space="preserve" font-family="Cantarell-Regular,Cantarell" font-size="50.0" fill="#D8D8D8" transform="matrix(1.00, 0.00, -0.00, -1.00, 137.6, 14.9)">h</text><text xml:space="preserve" font-family="Cantarell-Regular,Cantarell" font-size="50.0" fill="#D8D8D8" transform="matrix(1.00, 0.00, -0.00, -1.00, 166.7, 14.9)">l</text><text xml:space="preserve" font-family="Cantarell-Regular,Cantarell" font-size="50.0" fill="#D8D8D8" transform="matrix(1.00, 0.00, -0.00, -1.00, 180.5, 14.9)">@</text><text xml:space="preserve" font-family="Cantarell-Regular,Cantarell" font-size="50.0" fill="#D8D8D8" transform="matrix(1.00, 0.00, -0.00, -1.00, 231.8, 14.9)">g</text><text xml:space="preserve" font-family="Cantarell-Regular,Cantarell" font-size="50.0" fill="#D8D8D8" transform="matrix(1.00, 0.00, -0.00, -1.00, 260.5, 14.9)">m</text><text xml:space="preserve" font-family="Cantarell-Regular,Cantarell" font-size="50.0" fill="#D8D8D8" transform="matrix(1.00, 0.00, -0.00, -1.00, 302.8, 14.9)">a</text><text xml:space="preserve" font-family="Cantarell-Regular,Cantarell" font-size="50.0" fill="#D8D8D8" transform="matrix(1.00, 0.00, -0.00, -1.00, 328.9, 14.9)">i</text><text xml:space="preserve" font-family="Cantarell-Regular,Cantarell" font-size="50.0" fill="#D8D8D8" transform="matrix(1.00, 0.00, -0.00, -1.00, 341.7, 14.9)">l</text><text xml:space="preserve" font-family="Cantarell-Regular,Cantarell" font-size="50.0" fill="#D8D8D8" transform="matrix(1.00, 0.00, -0.00, -1.00, 355.5, 14.9)">.</text><text xml:space="preserve" font-family="Cantarell-Regular,Cantarell" font-size="50.0" fill="#D8D8D8" transform="matrix(1.00, 0.00, -0.00, -1.00, 369.4, 14.9)">c</text><text xml:space="preserve" font-family="Cantarell-Regular,Cantarell" font-size="50.0" fill="#D8D8D8" transform="matrix(1.00, 0.00, -0.00, -1.00, 393.9, 14.9)">o</text><text xml:space="preserve" font-family="Cantarell-Regular,Cantarell" font-size="50.0" fill="#D8D8D8" transform="matrix(1.00, 0.00, -0.00, -1.00, 423.4, 14.9)">m</text></g></svg>