<?xml version="1.0" encoding="UTF-8" standalone="no"?><svg xmlns="http://www.w3.org/2000/svg" xmlns:xlink="http://www.w3.org/1999/xlink" clip-rule="evenodd" stroke-miterlimit="10" viewBox="0 0 906 72"><desc>SVG generated by Keynote</desc><defs></defs><g transform="matrix(1.00, 0.00, -0.00, -1.00, 0.0, 72.0)"><text xml:space="preserve" font-family="Cantarell-Regular,Cantarell" font-size="68.0" fill="#01A1D6" transform="matrix(1.00, 0.00, -0.00, -1.00, -7.7, 20.2)">F</text><text xml:space="preserve" font-family="Cantarell-Regular,Cantarell" font-size="68.0" fill="#01A1D6" transform="matrix(1.00, 0.00, -0.00, -1.00, 33.7, 20.2)">u</text><text xml:space="preserve" font-family="Cantarell-Regular,Cantarell" font-size="68.0" fill="#01A1D6" transform="matrix(1.00, 0.00, -0.00, -1.00, 72.8, 20.2)">l</text><text xml:space="preserve" font-family="Cantarell-Regular,Cantarell" font-size="68.0" fill="#01A1D6" transform="matrix(1.00, 0.00, -0.00, -1.00, 91.5, 20.2)">l</text><text xml:space="preserve" font-family="Cantarell-Regular,Cantarell" font-size="68.0" fill="#01A1D6" transform="matrix(1.00, 0.00, -0.00, -1.00, 110.3, 20.2)"> </text><text xml:space="preserve" font-family="Cantarell-Regular,Cantarell" font-size="68.0" fill="#01A1D6" transform="matrix(1.00, 0.00, -0.00, -1.00, 128.9, 20.2)">P</text><text xml:space="preserve" font-family="Cantarell-Regular,Cantarell" font-size="68.0" fill="#01A1D6" transform="matrix(1.00, 0.00, -0.00, -1.00, 173.3, 20.2)">a</text><text xml:space="preserve" font-family="Cantarell-Regular,Cantarell" font-size="68.0" fill="#01A1D6" transform="matrix(1.00, 0.00, -0.00, -1.00, 208.8, 20.2)">g</text><text xml:space="preserve" font-family="Cantarell-Regular,Cantarell" font-size="68.0" fill="#01A1D6" transform="matrix(1.00, 0.00, -0.00, -1.00, 247.9, 20.2)">e</text><text xml:space="preserve" font-family="Cantarell-Regular,Cantarell" font-size="68.0" fill="#01A1D6" transform="matrix(1.00, 0.00, -0.00, -1.00, 284.5, 20.2)"> </text><text xml:space="preserve" font-family="Cantarell-Regular,Cantarell" font-size="68.0" fill="#01A1D6" transform="matrix(1.00, 0.00, -0.00, -1.00, 303.1, 20.2)">F</text><text xml:space="preserve" font-family="Cantarell-Regular,Cantarell" font-size="68.0" fill="#01A1D6" transform="matrix(1.00, 0.00, -0.00, -1.00, 344.6, 20.2)">l</text><text xml:space="preserve" font-family="Cantarell-Regular,Cantarell" font-size="68.0" fill="#01A1D6" transform="matrix(1.00, 0.00, -0.00, -1.00, 363.3, 20.2)">y</text><text xml:space="preserve" font-family="Cantarell-Regular,Cantarell" font-size="68.0" fill="#01A1D6" transform="matrix(1.00, 0.00, -0.00, -1.00, 398.5, 20.2)">e</text><text xml:space="preserve" font-family="Cantarell-Regular,Cantarell" font-size="68.0" fill="#01A1D6" transform="matrix(1.00, 0.00, -0.00, -1.00, 435.1, 20.2)">r</text><text xml:space="preserve" font-family="Cantarell-Regular,Cantarell" font-size="68.0" fill="#01A1D6" transform="matrix(1.00, 0.00, -0.00, -1.00, 461.7, 20.2)">:</text><text xml:space="preserve" font-family="Cantarell-Regular,Cantarell" font-size="68.0" fill="#01A1D6" transform="matrix(1.00, 0.00, -0.00, -1.00, 480.7, 20.2)"> </text><text xml:space="preserve" font-family="Cantarell-Regular,Cantarell" font-size="68.0" fill="#01A1D6" transform="matrix(1.00, 0.00, -0.00, -1.00, 499.3, 20.2)">S</text><text xml:space="preserve" font-family="Cantarell-Regular,Cantarell" font-size="68.0" fill="#01A1D6" transform="matrix(1.00, 0.00, -0.00, -1.00, 544.4, 20.2)">t</text><text xml:space="preserve" font-family="Cantarell-Regular,Cantarell" font-size="68.0" fill="#01A1D6" transform="matrix(1.00, 0.00, -0.00, -1.00, 570.2, 20.2)">a</text><text xml:space="preserve" font-family="Cantarell-Regular,Cantarell" font-size="68.0" fill="#01A1D6" transform="matrix(1.00, 0.00, -0.00, -1.00, 605.7, 20.2)">r</text><text xml:space="preserve" font-family="Cantarell-Regular,Cantarell" font-size="68.0" fill="#01A1D6" transform="matrix(1.00, 0.00, -0.00, -1.00, 632.3, 20.2)">t</text><text xml:space="preserve" font-family="Cantarell-Regular,Cantarell" font-size="68.0" fill="#01A1D6" transform="matrix(1.00, 0.00, -0.00, -1.00, 658.1, 20.2)"> </text><text xml:space="preserve" font-family="Cantarell-Regular,Cantarell" font-size="68.0" fill="#01A1D6" transform="matrix(1.00, 0.00, -0.00, -1.00, 676.7, 20.2)">A</text><text xml:space="preserve" font-family="Cantarell-Regular,Cantarell" font-size="68.0" fill="#01A1D6" transform="matrix(1.00, 0.00, -0.00, -1.00, 722.6, 20.2)"> </text><text xml:space="preserve" font-family="Cantarell-Regular,Cantarell" font-size="68.0" fill="#01A1D6" transform="matrix(1.00, 0.00, -0.00, -1.00, 741.2, 20.2)">T</text><text xml:space="preserve" font-family="Cantarell-Regular,Cantarell" font-size="68.0" fill="#01A1D6" transform="matrix(1.00, 0.00, -0.00, -1.00, 781.4, 20.2)">e</text><text xml:space="preserve" font-family="Cantarell-Regular,Cantarell" font-size="68.0" fill="#01A1D6" transform="matrix(1.00, 0.00, -0.00, -1.00, 818.0, 20.2)">a</text><text xml:space="preserve" font-family="Cantarell-Regular,Cantarell" font-size="68.0" fill="#01A1D6" transform="matrix(1.00, 0.00, -0.00, -1.00, 853.5, 20.2)">m</text></g></svg>