<?xml version="1.0" encoding="UTF-8" standalone="no"?><svg xmlns="http://www.w3.org/2000/svg" xmlns:xlink="http://www.w3.org/1999/xlink" clip-rule="evenodd" stroke-miterlimit="10" viewBox="0 0 953 58"><desc>SVG generated by Keynote</desc><defs></defs><g transform="matrix(1.00, 0.00, -0.00, -1.00, 0.0, 58.0)"><text xml:space="preserve" font-family="ArialMT,Arial" font-size="45.0" fill="#009ED8" transform="matrix(1.00, 0.00, -0.00, -1.00, 0.2, 16.4)">•</text><text xml:space="preserve" font-family="Cantarell-Regular,Cantarell" font-size="45.0" fill="#D8D8D8" transform="matrix(1.00, 0.00, -0.00, -1.00, 16.0, 14.7)">T</text><text xml:space="preserve" font-family="Cantarell-Regular,Cantarell" font-size="45.0" fill="#D8D8D8" transform="matrix(1.00, 0.00, -0.00, -1.00, 42.5, 14.7)">o</text><text xml:space="preserve" font-family="Cantarell-Regular,Cantarell" font-size="45.0" fill="#D8D8D8" transform="matrix(1.00, 0.00, -0.00, -1.00, 69.2, 14.7)"> </text><text xml:space="preserve" font-family="Cantarell-Regular,Cantarell" font-size="45.0" fill="#D8D8D8" transform="matrix(1.00, 0.00, -0.00, -1.00, 81.5, 14.7)">g</text><text xml:space="preserve" font-family="Cantarell-Regular,Cantarell" font-size="45.0" fill="#D8D8D8" transform="matrix(1.00, 0.00, -0.00, -1.00, 107.3, 14.7)">e</text><text xml:space="preserve" font-family="Cantarell-Regular,Cantarell" font-size="45.0" fill="#D8D8D8" transform="matrix(1.00, 0.00, -0.00, -1.00, 131.6, 14.7)">n</text><text xml:space="preserve" font-family="Cantarell-Regular,Cantarell" font-size="45.0" fill="#D8D8D8" transform="matrix(1.00, 0.00, -0.00, -1.00, 157.4, 14.7)">e</text><text xml:space="preserve" font-family="Cantarell-Regular,Cantarell" font-size="45.0" fill="#D8D8D8" transform="matrix(1.00, 0.00, -0.00, -1.00, 181.6, 14.7)">r</text><text xml:space="preserve" font-family="Cantarell-Regular,Cantarell" font-size="45.0" fill="#D8D8D8" transform="matrix(1.00, 0.00, -0.00, -1.00, 199.2, 14.7)">a</text><text xml:space="preserve" font-family="Cantarell-Regular,Cantarell" font-size="45.0" fill="#D8D8D8" transform="matrix(1.00, 0.00, -0.00, -1.00, 222.7, 14.7)">t</text><text xml:space="preserve" font-family="Cantarell-Regular,Cantarell" font-size="45.0" fill="#D8D8D8" transform="matrix(1.00, 0.00, -0.00, -1.00, 239.8, 14.7)">e</text><text xml:space="preserve" font-family="Cantarell-Regular,Cantarell" font-size="45.0" fill="#D8D8D8" transform="matrix(1.00, 0.00, -0.00, -1.00, 264.0, 14.7)"> </text><text xml:space="preserve" font-family="Cantarell-Regular,Cantarell" font-size="45.0" fill="#D8D8D8" transform="matrix(1.00, 0.00, -0.00, -1.00, 276.3, 14.7)">i</text><text xml:space="preserve" font-family="Cantarell-Regular,Cantarell" font-size="45.0" fill="#D8D8D8" transform="matrix(1.00, 0.00, -0.00, -1.00, 287.8, 14.7)">n</text><text xml:space="preserve" font-family="Cantarell-Regular,Cantarell" font-size="45.0" fill="#D8D8D8" transform="matrix(1.00, 0.00, -0.00, -1.00, 313.7, 14.7)">t</text><text xml:space="preserve" font-family="Cantarell-Regular,Cantarell" font-size="45.0" fill="#D8D8D8" transform="matrix(1.00, 0.00, -0.00, -1.00, 330.7, 14.7)">e</text><text xml:space="preserve" font-family="Cantarell-Regular,Cantarell" font-size="45.0" fill="#D8D8D8" transform="matrix(1.00, 0.00, -0.00, -1.00, 354.9, 14.7)">r</text><text xml:space="preserve" font-family="Cantarell-Regular,Cantarell" font-size="45.0" fill="#D8D8D8" transform="matrix(1.00, 0.00, -0.00, -1.00, 372.5, 14.7)">e</text><text xml:space="preserve" font-family="Cantarell-Regular,Cantarell" font-size="45.0" fill="#D8D8D8" transform="matrix(1.00, 0.00, -0.00, -1.00, 396.8, 14.7)">s</text><text xml:space="preserve" font-family="Cantarell-Regular,Cantarell" font-size="45.0" fill="#D8D8D8" transform="matrix(1.00, 0.00, -0.00, -1.00, 419.1, 14.7)">t</text><text xml:space="preserve" font-family="Cantarell-Regular,Cantarell" font-size="45.0" fill="#D8D8D8" transform="matrix(1.00, 0.00, -0.00, -1.00, 436.1, 14.7)"> </text><text xml:space="preserve" font-family="Cantarell-Regular,Cantarell" font-size="45.0" fill="#D8D8D8" transform="matrix(1.00, 0.00, -0.00, -1.00, 448.5, 14.7)">a</text><text xml:space="preserve" font-family="Cantarell-Regular,Cantarell" font-size="45.0" fill="#D8D8D8" transform="matrix(1.00, 0.00, -0.00, -1.00, 471.9, 14.7)">m</text><text xml:space="preserve" font-family="Cantarell-Regular,Cantarell" font-size="45.0" fill="#D8D8D8" transform="matrix(1.00, 0.00, -0.00, -1.00, 510.0, 14.7)">o</text><text xml:space="preserve" font-family="Cantarell-Regular,Cantarell" font-size="45.0" fill="#D8D8D8" transform="matrix(1.00, 0.00, -0.00, -1.00, 536.6, 14.7)">n</text><text xml:space="preserve" font-family="Cantarell-Regular,Cantarell" font-size="45.0" fill="#D8D8D8" transform="matrix(1.00, 0.00, -0.00, -1.00, 562.5, 14.7)">g</text><text xml:space="preserve" font-family="Cantarell-Regular,Cantarell" font-size="45.0" fill="#D8D8D8" transform="matrix(1.00, 0.00, -0.00, -1.00, 588.3, 14.7)"> </text><text xml:space="preserve" font-family="Cantarell-Regular,Cantarell" font-size="45.0" fill="#D8D8D8" transform="matrix(1.00, 0.00, -0.00, -1.00, 600.7, 14.7)">p</text><text xml:space="preserve" font-family="Cantarell-Regular,Cantarell" font-size="45.0" fill="#D8D8D8" transform="matrix(1.00, 0.00, -0.00, -1.00, 626.5, 14.7)">a</text><text xml:space="preserve" font-family="Cantarell-Regular,Cantarell" font-size="45.0" fill="#D8D8D8" transform="matrix(1.00, 0.00, -0.00, -1.00, 650.0, 14.7)">r</text><text xml:space="preserve" font-family="Cantarell-Regular,Cantarell" font-size="45.0" fill="#D8D8D8" transform="matrix(1.00, 0.00, -0.00, -1.00, 667.6, 14.7)">e</text><text xml:space="preserve" font-family="Cantarell-Regular,Cantarell" font-size="45.0" fill="#D8D8D8" transform="matrix(1.00, 0.00, -0.00, -1.00, 691.8, 14.7)">n</text><text xml:space="preserve" font-family="Cantarell-Regular,Cantarell" font-size="45.0" fill="#D8D8D8" transform="matrix(1.00, 0.00, -0.00, -1.00, 717.7, 14.7)">t</text><text xml:space="preserve" font-family="Cantarell-Regular,Cantarell" font-size="45.0" fill="#D8D8D8" transform="matrix(1.00, 0.00, -0.00, -1.00, 734.7, 14.7)">s</text><text xml:space="preserve" font-family="Cantarell-Regular,Cantarell" font-size="45.0" fill="#D8D8D8" transform="matrix(1.00, 0.00, -0.00, -1.00, 757.1, 14.7)">/</text><text xml:space="preserve" font-family="Cantarell-Regular,Cantarell" font-size="45.0" fill="#D8D8D8" transform="matrix(1.00, 0.00, -0.00, -1.00, 773.0, 14.7)">s</text><text xml:space="preserve" font-family="Cantarell-Regular,Cantarell" font-size="45.0" fill="#D8D8D8" transform="matrix(1.00, 0.00, -0.00, -1.00, 795.4, 14.7)">t</text><text xml:space="preserve" font-family="Cantarell-Regular,Cantarell" font-size="45.0" fill="#D8D8D8" transform="matrix(1.00, 0.00, -0.00, -1.00, 812.4, 14.7)">u</text><text xml:space="preserve" font-family="Cantarell-Regular,Cantarell" font-size="45.0" fill="#D8D8D8" transform="matrix(1.00, 0.00, -0.00, -1.00, 838.3, 14.7)">d</text><text xml:space="preserve" font-family="Cantarell-Regular,Cantarell" font-size="45.0" fill="#D8D8D8" transform="matrix(1.00, 0.00, -0.00, -1.00, 864.4, 14.7)">e</text><text xml:space="preserve" font-family="Cantarell-Regular,Cantarell" font-size="45.0" fill="#D8D8D8" transform="matrix(1.00, 0.00, -0.00, -1.00, 888.6, 14.7)">n</text><text xml:space="preserve" font-family="Cantarell-Regular,Cantarell" font-size="45.0" fill="#D8D8D8" transform="matrix(1.00, 0.00, -0.00, -1.00, 914.4, 14.7)">t</text><text xml:space="preserve" font-family="Cantarell-Regular,Cantarell" font-size="45.0" fill="#D8D8D8" transform="matrix(1.00, 0.00, -0.00, -1.00, 931.5, 14.7)">s</text></g></svg>