<?xml version="1.0" encoding="UTF-8" standalone="no"?><svg xmlns="http://www.w3.org/2000/svg" xmlns:xlink="http://www.w3.org/1999/xlink" clip-rule="evenodd" stroke-miterlimit="10" viewBox="0 0 1223 79"><desc>SVG generated by Keynote</desc><defs></defs><g transform="matrix(1.00, 0.00, -0.00, -1.00, 0.0, 79.0)"><text xml:space="preserve" font-family="Cantarell-Regular,Cantarell" font-size="55.0" fill="#D8D8D8" transform="matrix(1.00, 0.00, -0.00, -1.00, -2.3, 20.7)">A</text><text xml:space="preserve" font-family="Cantarell-Regular,Cantarell" font-size="55.0" fill="#D8D8D8" transform="matrix(1.00, 0.00, -0.00, -1.00, 34.9, 20.7)">v</text><text xml:space="preserve" font-family="Cantarell-Regular,Cantarell" font-size="55.0" fill="#D8D8D8" transform="matrix(1.00, 0.00, -0.00, -1.00, 61.6, 20.7)">a</text><text xml:space="preserve" font-family="Cantarell-Regular,Cantarell" font-size="55.0" fill="#D8D8D8" transform="matrix(1.00, 0.00, -0.00, -1.00, 90.3, 20.7)">i</text><text xml:space="preserve" font-family="Cantarell-Regular,Cantarell" font-size="55.0" fill="#D8D8D8" transform="matrix(1.00, 0.00, -0.00, -1.00, 104.3, 20.7)">l</text><text xml:space="preserve" font-family="Cantarell-Regular,Cantarell" font-size="55.0" fill="#D8D8D8" transform="matrix(1.00, 0.00, -0.00, -1.00, 119.5, 20.7)">a</text><text xml:space="preserve" font-family="Cantarell-Regular,Cantarell" font-size="55.0" fill="#D8D8D8" transform="matrix(1.00, 0.00, -0.00, -1.00, 148.2, 20.7)">b</text><text xml:space="preserve" font-family="Cantarell-Regular,Cantarell" font-size="55.0" fill="#D8D8D8" transform="matrix(1.00, 0.00, -0.00, -1.00, 180.0, 20.7)">l</text><text xml:space="preserve" font-family="Cantarell-Regular,Cantarell" font-size="55.0" fill="#D8D8D8" transform="matrix(1.00, 0.00, -0.00, -1.00, 195.1, 20.7)">e</text><text xml:space="preserve" font-family="Cantarell-Regular,Cantarell" font-size="55.0" fill="#D8D8D8" transform="matrix(1.00, 0.00, -0.00, -1.00, 224.7, 20.7)"> </text><text xml:space="preserve" font-family="Cantarell-Regular,Cantarell" font-size="55.0" fill="#D8D8D8" transform="matrix(1.00, 0.00, -0.00, -1.00, 239.8, 20.7)">@</text><text xml:space="preserve" font-family="Cantarell-Regular,Cantarell" font-size="55.0" fill="#D8D8D8" transform="matrix(1.00, 0.00, -0.00, -1.00, 296.2, 20.7)"> </text><text xml:space="preserve" font-family="Cantarell-Regular,Cantarell" font-size="55.0" fill="#D8D8D8" transform="matrix(1.00, 0.00, -0.00, -1.00, 311.2, 20.7)">h</text><text xml:space="preserve" font-family="Cantarell-Regular,Cantarell" font-size="55.0" fill="#D8D8D8" transform="matrix(1.00, 0.00, -0.00, -1.00, 343.1, 20.7)">t</text><text xml:space="preserve" font-family="Cantarell-Regular,Cantarell" font-size="55.0" fill="#D8D8D8" transform="matrix(1.00, 0.00, -0.00, -1.00, 364.0, 20.7)">t</text><text xml:space="preserve" font-family="Cantarell-Regular,Cantarell" font-size="55.0" fill="#D8D8D8" transform="matrix(1.00, 0.00, -0.00, -1.00, 384.8, 20.7)">p</text><text xml:space="preserve" font-family="Cantarell-Regular,Cantarell" font-size="55.0" fill="#D8D8D8" transform="matrix(1.00, 0.00, -0.00, -1.00, 416.4, 20.7)">:</text><text xml:space="preserve" font-family="Cantarell-Regular,Cantarell" font-size="55.0" fill="#D8D8D8" transform="matrix(1.00, 0.00, -0.00, -1.00, 431.7, 20.7)">/</text><text xml:space="preserve" font-family="Cantarell-Regular,Cantarell" font-size="55.0" fill="#D8D8D8" transform="matrix(1.00, 0.00, -0.00, -1.00, 451.2, 20.7)">/</text><text xml:space="preserve" font-family="Cantarell-Regular,Cantarell" font-size="55.0" fill="#D8D8D8" transform="matrix(1.00, 0.00, -0.00, -1.00, 470.8, 20.7)">w</text><text xml:space="preserve" font-family="Cantarell-Regular,Cantarell" font-size="55.0" fill="#D8D8D8" transform="matrix(1.00, 0.00, -0.00, -1.00, 516.0, 20.7)">i</text><text xml:space="preserve" font-family="Cantarell-Regular,Cantarell" font-size="55.0" fill="#D8D8D8" transform="matrix(1.00, 0.00, -0.00, -1.00, 530.1, 20.7)">k</text><text xml:space="preserve" font-family="Cantarell-Regular,Cantarell" font-size="55.0" fill="#D8D8D8" transform="matrix(1.00, 0.00, -0.00, -1.00, 558.9, 20.7)">i</text><text xml:space="preserve" font-family="Cantarell-Regular,Cantarell" font-size="55.0" fill="#D8D8D8" transform="matrix(1.00, 0.00, -0.00, -1.00, 572.9, 20.7)">.</text><text xml:space="preserve" font-family="Cantarell-Regular,Cantarell" font-size="55.0" fill="#D8D8D8" transform="matrix(1.00, 0.00, -0.00, -1.00, 588.3, 20.7)">B</text><text xml:space="preserve" font-family="Cantarell-Regular,Cantarell" font-size="55.0" fill="#D8D8D8" transform="matrix(1.00, 0.00, -0.00, -1.00, 626.5, 20.7)">i</text><text xml:space="preserve" font-family="Cantarell-Regular,Cantarell" font-size="55.0" fill="#D8D8D8" transform="matrix(1.00, 0.00, -0.00, -1.00, 640.6, 20.7)">b</text><text xml:space="preserve" font-family="Cantarell-Regular,Cantarell" font-size="55.0" fill="#D8D8D8" transform="matrix(1.00, 0.00, -0.00, -1.00, 672.3, 20.7)">l</text><text xml:space="preserve" font-family="Cantarell-Regular,Cantarell" font-size="55.0" fill="#D8D8D8" transform="matrix(1.00, 0.00, -0.00, -1.00, 687.5, 20.7)">e</text><text xml:space="preserve" font-family="Cantarell-Regular,Cantarell" font-size="55.0" fill="#D8D8D8" transform="matrix(1.00, 0.00, -0.00, -1.00, 717.1, 20.7)">B</text><text xml:space="preserve" font-family="Cantarell-Regular,Cantarell" font-size="55.0" fill="#D8D8D8" transform="matrix(1.00, 0.00, -0.00, -1.00, 755.4, 20.7)">o</text><text xml:space="preserve" font-family="Cantarell-Regular,Cantarell" font-size="55.0" fill="#D8D8D8" transform="matrix(1.00, 0.00, -0.00, -1.00, 787.9, 20.7)">w</text><text xml:space="preserve" font-family="Cantarell-Regular,Cantarell" font-size="55.0" fill="#D8D8D8" transform="matrix(1.00, 0.00, -0.00, -1.00, 833.1, 20.7)">l</text><text xml:space="preserve" font-family="Cantarell-Regular,Cantarell" font-size="55.0" fill="#D8D8D8" transform="matrix(1.00, 0.00, -0.00, -1.00, 848.3, 20.7)">.</text><text xml:space="preserve" font-family="Cantarell-Regular,Cantarell" font-size="55.0" fill="#D8D8D8" transform="matrix(1.00, 0.00, -0.00, -1.00, 863.6, 20.7)">n</text><text xml:space="preserve" font-family="Cantarell-Regular,Cantarell" font-size="55.0" fill="#D8D8D8" transform="matrix(1.00, 0.00, -0.00, -1.00, 895.2, 20.7)">e</text><text xml:space="preserve" font-family="Cantarell-Regular,Cantarell" font-size="55.0" fill="#D8D8D8" transform="matrix(1.00, 0.00, -0.00, -1.00, 924.8, 20.7)">t</text><text xml:space="preserve" font-family="Cantarell-Regular,Cantarell" font-size="55.0" fill="#D8D8D8" transform="matrix(1.00, 0.00, -0.00, -1.00, 945.7, 20.7)">/</text><text xml:space="preserve" font-family="Cantarell-Regular,Cantarell" font-size="55.0" fill="#D8D8D8" transform="matrix(1.00, 0.00, -0.00, -1.00, 965.2, 20.7)">M</text><text xml:space="preserve" font-family="Cantarell-Regular,Cantarell" font-size="55.0" fill="#D8D8D8" transform="matrix(1.00, 0.00, -0.00, -1.00, 1015.8, 20.7)">a</text><text xml:space="preserve" font-family="Cantarell-Regular,Cantarell" font-size="55.0" fill="#D8D8D8" transform="matrix(1.00, 0.00, -0.00, -1.00, 1044.5, 20.7)">r</text><text xml:space="preserve" font-family="Cantarell-Regular,Cantarell" font-size="55.0" fill="#D8D8D8" transform="matrix(1.00, 0.00, -0.00, -1.00, 1066.0, 20.7)">k</text><text xml:space="preserve" font-family="Cantarell-Regular,Cantarell" font-size="55.0" fill="#D8D8D8" transform="matrix(1.00, 0.00, -0.00, -1.00, 1094.8, 20.7)">e</text><text xml:space="preserve" font-family="Cantarell-Regular,Cantarell" font-size="55.0" fill="#D8D8D8" transform="matrix(1.00, 0.00, -0.00, -1.00, 1124.4, 20.7)">t</text><text xml:space="preserve" font-family="Cantarell-Regular,Cantarell" font-size="55.0" fill="#D8D8D8" transform="matrix(1.00, 0.00, -0.00, -1.00, 1145.3, 20.7)">i</text><text xml:space="preserve" font-family="Cantarell-Regular,Cantarell" font-size="55.0" fill="#D8D8D8" transform="matrix(1.00, 0.00, -0.00, -1.00, 1159.3, 20.7)">n</text><text xml:space="preserve" font-family="Cantarell-Regular,Cantarell" font-size="55.0" fill="#D8D8D8" transform="matrix(1.00, 0.00, -0.00, -1.00, 1190.9, 20.7)">g</text><g><clipPath id="clip0x6000012b0920"><path d="M 310.2 10.3 L 1222.3 10.3 L 1222.3 15.4 L 310.2 15.4 Z M 310.2 10.3 "></path></clipPath><g clip-path="url(#clip0x6000012b0920)"><path d="M 355.1 69.2 L 1266.2 69.2 " fill="none" stroke="#D8D8D8" stroke-width="3.12" transform="matrix(1.00, 0.00, 0.00, -1.00, -43.9, 82.1)"></path></g></g></g></svg>