<?xml version="1.0" encoding="UTF-8" standalone="no"?><svg xmlns="http://www.w3.org/2000/svg" xmlns:xlink="http://www.w3.org/1999/xlink" clip-rule="evenodd" stroke-miterlimit="10" viewBox="0 0 1319 72"><desc>SVG generated by Keynote</desc><defs></defs><g transform="matrix(1.00, 0.00, -0.00, -1.00, 0.0, 72.0)"><text xml:space="preserve" font-family="Cantarell-Regular,Cantarell" font-size="68.0" fill="#01A1D6" transform="matrix(1.00, 0.00, -0.00, -1.00, -8.6, 20.2)">F</text><text xml:space="preserve" font-family="Cantarell-Regular,Cantarell" font-size="68.0" fill="#01A1D6" transform="matrix(1.00, 0.00, -0.00, -1.00, 32.9, 20.2)">u</text><text xml:space="preserve" font-family="Cantarell-Regular,Cantarell" font-size="68.0" fill="#01A1D6" transform="matrix(1.00, 0.00, -0.00, -1.00, 71.9, 20.2)">l</text><text xml:space="preserve" font-family="Cantarell-Regular,Cantarell" font-size="68.0" fill="#01A1D6" transform="matrix(1.00, 0.00, -0.00, -1.00, 90.7, 20.2)">l</text><text xml:space="preserve" font-family="Cantarell-Regular,Cantarell" font-size="68.0" fill="#01A1D6" transform="matrix(1.00, 0.00, -0.00, -1.00, 109.4, 20.2)"> </text><text xml:space="preserve" font-family="Cantarell-Regular,Cantarell" font-size="68.0" fill="#01A1D6" transform="matrix(1.00, 0.00, -0.00, -1.00, 128.1, 20.2)">P</text><text xml:space="preserve" font-family="Cantarell-Regular,Cantarell" font-size="68.0" fill="#01A1D6" transform="matrix(1.00, 0.00, -0.00, -1.00, 172.5, 20.2)">a</text><text xml:space="preserve" font-family="Cantarell-Regular,Cantarell" font-size="68.0" fill="#01A1D6" transform="matrix(1.00, 0.00, -0.00, -1.00, 208.0, 20.2)">g</text><text xml:space="preserve" font-family="Cantarell-Regular,Cantarell" font-size="68.0" fill="#01A1D6" transform="matrix(1.00, 0.00, -0.00, -1.00, 247.1, 20.2)">e</text><text xml:space="preserve" font-family="Cantarell-Regular,Cantarell" font-size="68.0" fill="#01A1D6" transform="matrix(1.00, 0.00, -0.00, -1.00, 283.7, 20.2)"> </text><text xml:space="preserve" font-family="Cantarell-Regular,Cantarell" font-size="68.0" fill="#01A1D6" transform="matrix(1.00, 0.00, -0.00, -1.00, 302.3, 20.2)">F</text><text xml:space="preserve" font-family="Cantarell-Regular,Cantarell" font-size="68.0" fill="#01A1D6" transform="matrix(1.00, 0.00, -0.00, -1.00, 343.7, 20.2)">l</text><text xml:space="preserve" font-family="Cantarell-Regular,Cantarell" font-size="68.0" fill="#01A1D6" transform="matrix(1.00, 0.00, -0.00, -1.00, 362.5, 20.2)">y</text><text xml:space="preserve" font-family="Cantarell-Regular,Cantarell" font-size="68.0" fill="#01A1D6" transform="matrix(1.00, 0.00, -0.00, -1.00, 397.7, 20.2)">e</text><text xml:space="preserve" font-family="Cantarell-Regular,Cantarell" font-size="68.0" fill="#01A1D6" transform="matrix(1.00, 0.00, -0.00, -1.00, 434.3, 20.2)">r</text><text xml:space="preserve" font-family="Cantarell-Regular,Cantarell" font-size="68.0" fill="#01A1D6" transform="matrix(1.00, 0.00, -0.00, -1.00, 460.9, 20.2)">:</text><text xml:space="preserve" font-family="Cantarell-Regular,Cantarell" font-size="68.0" fill="#01A1D6" transform="matrix(1.00, 0.00, -0.00, -1.00, 479.8, 20.2)"> </text><text xml:space="preserve" font-family="Cantarell-Regular,Cantarell" font-size="68.0" fill="#01A1D6" transform="matrix(1.00, 0.00, -0.00, -1.00, 498.4, 20.2)">C</text><text xml:space="preserve" font-family="Cantarell-Regular,Cantarell" font-size="68.0" fill="#01A1D6" transform="matrix(1.00, 0.00, -0.00, -1.00, 546.6, 20.2)">h</text><text xml:space="preserve" font-family="Cantarell-Regular,Cantarell" font-size="68.0" fill="#01A1D6" transform="matrix(1.00, 0.00, -0.00, -1.00, 586.2, 20.2)">e</text><text xml:space="preserve" font-family="Cantarell-Regular,Cantarell" font-size="68.0" fill="#01A1D6" transform="matrix(1.00, 0.00, -0.00, -1.00, 622.8, 20.2)">c</text><text xml:space="preserve" font-family="Cantarell-Regular,Cantarell" font-size="68.0" fill="#01A1D6" transform="matrix(1.00, 0.00, -0.00, -1.00, 656.0, 20.2)">k</text><text xml:space="preserve" font-family="Cantarell-Regular,Cantarell" font-size="68.0" fill="#01A1D6" transform="matrix(1.00, 0.00, -0.00, -1.00, 691.6, 20.2)">O</text><text xml:space="preserve" font-family="Cantarell-Regular,Cantarell" font-size="68.0" fill="#01A1D6" transform="matrix(1.00, 0.00, -0.00, -1.00, 747.6, 20.2)">u</text><text xml:space="preserve" font-family="Cantarell-Regular,Cantarell" font-size="68.0" fill="#01A1D6" transform="matrix(1.00, 0.00, -0.00, -1.00, 786.7, 20.2)">t</text><text xml:space="preserve" font-family="Cantarell-Regular,Cantarell" font-size="68.0" fill="#01A1D6" transform="matrix(1.00, 0.00, -0.00, -1.00, 812.4, 20.2)"> </text><text xml:space="preserve" font-family="Cantarell-Regular,Cantarell" font-size="68.0" fill="#01A1D6" transform="matrix(1.00, 0.00, -0.00, -1.00, 831.0, 20.2)">E</text><text xml:space="preserve" font-family="Cantarell-Regular,Cantarell" font-size="68.0" fill="#01A1D6" transform="matrix(1.00, 0.00, -0.00, -1.00, 873.7, 20.2)">v</text><text xml:space="preserve" font-family="Cantarell-Regular,Cantarell" font-size="68.0" fill="#01A1D6" transform="matrix(1.00, 0.00, -0.00, -1.00, 906.6, 20.2)">e</text><text xml:space="preserve" font-family="Cantarell-Regular,Cantarell" font-size="68.0" fill="#01A1D6" transform="matrix(1.00, 0.00, -0.00, -1.00, 943.2, 20.2)">n</text><text xml:space="preserve" font-family="Cantarell-Regular,Cantarell" font-size="68.0" fill="#01A1D6" transform="matrix(1.00, 0.00, -0.00, -1.00, 982.3, 20.2)">t</text><text xml:space="preserve" font-family="Cantarell-Regular,Cantarell" font-size="68.0" fill="#01A1D6" transform="matrix(1.00, 0.00, -0.00, -1.00, 1008.0, 20.2)"> </text><text xml:space="preserve" font-family="Cantarell-Regular,Cantarell" font-size="68.0" fill="#01A1D6" transform="matrix(1.00, 0.00, -0.00, -1.00, 1026.7, 20.2)">I</text><text xml:space="preserve" font-family="Cantarell-Regular,Cantarell" font-size="68.0" fill="#01A1D6" transform="matrix(1.00, 0.00, -0.00, -1.00, 1050.9, 20.2)">n</text><text xml:space="preserve" font-family="Cantarell-Regular,Cantarell" font-size="68.0" fill="#01A1D6" transform="matrix(1.00, 0.00, -0.00, -1.00, 1090.0, 20.2)">v</text><text xml:space="preserve" font-family="Cantarell-Regular,Cantarell" font-size="68.0" fill="#01A1D6" transform="matrix(1.00, 0.00, -0.00, -1.00, 1123.0, 20.2)">i</text><text xml:space="preserve" font-family="Cantarell-Regular,Cantarell" font-size="68.0" fill="#01A1D6" transform="matrix(1.00, 0.00, -0.00, -1.00, 1140.3, 20.2)">t</text><text xml:space="preserve" font-family="Cantarell-Regular,Cantarell" font-size="68.0" fill="#01A1D6" transform="matrix(1.00, 0.00, -0.00, -1.00, 1166.1, 20.2)">a</text><text xml:space="preserve" font-family="Cantarell-Regular,Cantarell" font-size="68.0" fill="#01A1D6" transform="matrix(1.00, 0.00, -0.00, -1.00, 1201.6, 20.2)">t</text><text xml:space="preserve" font-family="Cantarell-Regular,Cantarell" font-size="68.0" fill="#01A1D6" transform="matrix(1.00, 0.00, -0.00, -1.00, 1227.4, 20.2)">i</text><text xml:space="preserve" font-family="Cantarell-Regular,Cantarell" font-size="68.0" fill="#01A1D6" transform="matrix(1.00, 0.00, -0.00, -1.00, 1244.8, 20.2)">o</text><text xml:space="preserve" font-family="Cantarell-Regular,Cantarell" font-size="68.0" fill="#01A1D6" transform="matrix(1.00, 0.00, -0.00, -1.00, 1285.0, 20.2)">n</text></g></svg>