<?xml version="1.0" encoding="UTF-8" standalone="no"?><svg xmlns="http://www.w3.org/2000/svg" xmlns:xlink="http://www.w3.org/1999/xlink" clip-rule="evenodd" stroke-miterlimit="10" viewBox="0 0 2048 1536"><desc>SVG generated by Keynote</desc><defs></defs><g transform="matrix(1.00, 0.00, -0.00, -1.00, 0.0, 1536.0)"><g><clipPath id="clip0x7fac75aec100"><path d="M 0.0 1536.0 L 2048.0 1536.0 L 2048.0 0.0 L 0.0 0.0 Z M 0.0 1536.0 "></path></clipPath><g clip-path="url(#clip0x7fac75aec100)"><image xlink:href="533E5C84B68C10769BDFD1BD5AE22FEE.jpeg" width="2048.00" height="1536.00" transform="matrix(1.00, 0.00, -0.00, -1.00, 0.0, 1536.0)"></image></g></g><path d="M 1281.0 1086.7 C 1461.0 906.7 1461.0 614.8 1281.0 434.7 C 1100.9 254.7 809.1 254.7 629.0 434.7 C 449.0 614.8 449.0 906.7 629.0 1086.7 C 809.1 1266.7 1100.9 1266.7 1281.0 1086.7 " fill="#044E6F"></path><text xml:space="preserve" font-family="Novecentosanswide-DemiBold,Novecento sans wide" font-weight="bold" font-size="220.0" fill="#01A1D6" transform="matrix(1.00, 0.00, -0.00, -1.00, 608.0, 920.6)">A</text><text xml:space="preserve" font-family="Novecentosanswide-DemiBold,Novecento sans wide" font-weight="bold" font-size="220.0" fill="#01A1D6" transform="matrix(1.00, 0.00, -0.00, -1.00, 772.7, 920.6)">l</text><text xml:space="preserve" font-family="Novecentosanswide-DemiBold,Novecento sans wide" font-weight="bold" font-size="220.0" fill="#01A1D6" transform="matrix(1.00, 0.00, -0.00, -1.00, 880.3, 920.6)">l</text><text xml:space="preserve" font-family="Novecentosanswide-DemiBold,Novecento sans wide" font-weight="bold" font-size="220.0" fill="#01A1D6" transform="matrix(1.00, 0.00, -0.00, -1.00, 974.9, 920.6)">-</text><text xml:space="preserve" font-family="Novecentosanswide-DemiBold,Novecento sans wide" font-weight="bold" font-size="220.0" fill="#01A1D6" transform="matrix(1.00, 0.00, -0.00, -1.00, 1101.2, 920.6)">I</text><text xml:space="preserve" font-family="Novecentosanswide-DemiBold,Novecento sans wide" font-weight="bold" font-size="220.0" fill="#01A1D6" transform="matrix(1.00, 0.00, -0.00, -1.00, 1159.5, 920.6)">n</text><text xml:space="preserve" font-family="Novecentosanswide-DemiBold,Novecento sans wide" font-weight="bold" font-size="112.0" fill="#FEFFFF" transform="matrix(1.00, 0.00, -0.00, -1.00, 558.2, 810.2)">G</text><text xml:space="preserve" font-family="Novecentosanswide-DemiBold,Novecento sans wide" font-weight="bold" font-size="112.0" fill="#FEFFFF" transform="matrix(1.00, 0.00, -0.00, -1.00, 645.9, 810.2)">r</text><text xml:space="preserve" font-family="Novecentosanswide-DemiBold,Novecento sans wide" font-weight="bold" font-size="112.0" fill="#FEFFFF" transform="matrix(1.00, 0.00, -0.00, -1.00, 708.4, 810.2)">o</text><text xml:space="preserve" font-family="Novecentosanswide-DemiBold,Novecento sans wide" font-weight="bold" font-size="112.0" fill="#FEFFFF" transform="matrix(1.00, 0.00, -0.00, -1.00, 780.2, 810.2)">w</text><text xml:space="preserve" font-family="Novecentosanswide-DemiBold,Novecento sans wide" font-weight="bold" font-size="112.0" fill="#FEFFFF" transform="matrix(1.00, 0.00, -0.00, -1.00, 877.2, 810.2)">i</text><text xml:space="preserve" font-family="Novecentosanswide-DemiBold,Novecento sans wide" font-weight="bold" font-size="112.0" fill="#FEFFFF" transform="matrix(1.00, 0.00, -0.00, -1.00, 905.9, 810.2)">n</text><text xml:space="preserve" font-family="Novecentosanswide-DemiBold,Novecento sans wide" font-weight="bold" font-size="112.0" fill="#FEFFFF" transform="matrix(1.00, 0.00, -0.00, -1.00, 978.5, 810.2)">g</text><text xml:space="preserve" font-family="Novecentosanswide-DemiBold,Novecento sans wide" font-weight="bold" font-size="112.0" fill="#FEFFFF" transform="matrix(1.00, 0.00, -0.00, -1.00, 1053.6, 810.2)"> </text><text xml:space="preserve" font-family="Novecentosanswide-DemiBold,Novecento sans wide" font-weight="bold" font-size="112.0" fill="#FEFFFF" transform="matrix(1.00, 0.00, -0.00, -1.00, 1081.6, 810.2)">B</text><text xml:space="preserve" font-family="Novecentosanswide-DemiBold,Novecento sans wide" font-weight="bold" font-size="112.0" fill="#FEFFFF" transform="matrix(1.00, 0.00, -0.00, -1.00, 1152.0, 810.2)">i</text><text xml:space="preserve" font-family="Novecentosanswide-DemiBold,Novecento sans wide" font-weight="bold" font-size="112.0" fill="#FEFFFF" transform="matrix(1.00, 0.00, -0.00, -1.00, 1180.8, 810.2)">b</text><text xml:space="preserve" font-family="Novecentosanswide-DemiBold,Novecento sans wide" font-weight="bold" font-size="112.0" fill="#FEFFFF" transform="matrix(1.00, 0.00, -0.00, -1.00, 1242.5, 810.2)">l</text><text xml:space="preserve" font-family="Novecentosanswide-DemiBold,Novecento sans wide" font-weight="bold" font-size="112.0" fill="#FEFFFF" transform="matrix(1.00, 0.00, -0.00, -1.00, 1297.3, 810.2)">e</text><text xml:space="preserve" font-family="Novecentosanswide-DemiBold,Novecento sans wide" font-weight="bold" font-size="112.0" fill="#FEFFFF" transform="matrix(1.00, 0.00, -0.00, -1.00, 1357.4, 810.2)"> </text><text xml:space="preserve" font-family="Novecentosanswide-DemiBold,Novecento sans wide" font-weight="bold" font-size="112.0" fill="#FEFFFF" transform="matrix(1.00, 0.00, -0.00, -1.00, 594.2, 703.0)">B</text><text xml:space="preserve" font-family="Novecentosanswide-DemiBold,Novecento sans wide" font-weight="bold" font-size="112.0" fill="#FEFFFF" transform="matrix(1.00, 0.00, -0.00, -1.00, 665.4, 703.0)">o</text><text xml:space="preserve" font-family="Novecentosanswide-DemiBold,Novecento sans wide" font-weight="bold" font-size="112.0" fill="#FEFFFF" transform="matrix(1.00, 0.00, -0.00, -1.00, 737.2, 703.0)">w</text><text xml:space="preserve" font-family="Novecentosanswide-DemiBold,Novecento sans wide" font-weight="bold" font-size="112.0" fill="#FEFFFF" transform="matrix(1.00, 0.00, -0.00, -1.00, 834.2, 703.0)">l</text><text xml:space="preserve" font-family="Novecentosanswide-DemiBold,Novecento sans wide" font-weight="bold" font-size="112.0" fill="#FEFFFF" transform="matrix(1.00, 0.00, -0.00, -1.00, 889.0, 703.0)"> </text><text xml:space="preserve" font-family="Novecentosanswide-DemiBold,Novecento sans wide" font-weight="bold" font-size="112.0" fill="#FEFFFF" transform="matrix(1.00, 0.00, -0.00, -1.00, 917.0, 703.0)">I</text><text xml:space="preserve" font-family="Novecentosanswide-DemiBold,Novecento sans wide" font-weight="bold" font-size="112.0" fill="#FEFFFF" transform="matrix(1.00, 0.00, -0.00, -1.00, 946.6, 703.0)">n</text><text xml:space="preserve" font-family="Novecentosanswide-DemiBold,Novecento sans wide" font-weight="bold" font-size="112.0" fill="#FEFFFF" transform="matrix(1.00, 0.00, -0.00, -1.00, 1019.2, 703.0)"> </text><text xml:space="preserve" font-family="Novecentosanswide-DemiBold,Novecento sans wide" font-weight="bold" font-size="112.0" fill="#FEFFFF" transform="matrix(1.00, 0.00, -0.00, -1.00, 1047.2, 703.0)">Y</text><text xml:space="preserve" font-family="Novecentosanswide-DemiBold,Novecento sans wide" font-weight="bold" font-size="112.0" fill="#FEFFFF" transform="matrix(1.00, 0.00, -0.00, -1.00, 1113.8, 703.0)">o</text><text xml:space="preserve" font-family="Novecentosanswide-DemiBold,Novecento sans wide" font-weight="bold" font-size="112.0" fill="#FEFFFF" transform="matrix(1.00, 0.00, -0.00, -1.00, 1187.9, 703.0)">u</text><text xml:space="preserve" font-family="Novecentosanswide-DemiBold,Novecento sans wide" font-weight="bold" font-size="112.0" fill="#FEFFFF" transform="matrix(1.00, 0.00, -0.00, -1.00, 1258.1, 703.0)">r</text><text xml:space="preserve" font-family="Novecentosanswide-DemiBold,Novecento sans wide" font-weight="bold" font-size="112.0" fill="#FEFFFF" transform="matrix(1.00, 0.00, -0.00, -1.00, 1321.4, 703.0)"> </text><text xml:space="preserve" font-family="Novecentosanswide-DemiBold,Novecento sans wide" font-weight="bold" font-size="112.0" fill="#FEFFFF" transform="matrix(1.00, 0.00, -0.00, -1.00, 819.8, 595.8)">A</text><text xml:space="preserve" font-family="Novecentosanswide-DemiBold,Novecento sans wide" font-weight="bold" font-size="112.0" fill="#FEFFFF" transform="matrix(1.00, 0.00, -0.00, -1.00, 903.6, 595.8)">r</text><text xml:space="preserve" font-family="Novecentosanswide-DemiBold,Novecento sans wide" font-weight="bold" font-size="112.0" fill="#FEFFFF" transform="matrix(1.00, 0.00, -0.00, -1.00, 966.9, 595.8)">e</text><text xml:space="preserve" font-family="Novecentosanswide-DemiBold,Novecento sans wide" font-weight="bold" font-size="112.0" fill="#FEFFFF" transform="matrix(1.00, 0.00, -0.00, -1.00, 1027.1, 595.8)">a</text><text xml:space="preserve" font-family="Novecentosanswide-Medium,Novecento sans wide" font-size="52.0" fill="#D8D8D8" transform="matrix(1.00, 0.00, -0.00, -1.00, 682.4, 507.8)">T</text><text xml:space="preserve" font-family="Novecentosanswide-Medium,Novecento sans wide" font-size="52.0" fill="#D8D8D8" transform="matrix(1.00, 0.00, -0.00, -1.00, 715.9, 507.8)">U</text><text xml:space="preserve" font-family="Novecentosanswide-Medium,Novecento sans wide" font-size="52.0" fill="#D8D8D8" transform="matrix(1.00, 0.00, -0.00, -1.00, 752.4, 507.8)">E</text><text xml:space="preserve" font-family="Novecentosanswide-Medium,Novecento sans wide" font-size="52.0" fill="#D8D8D8" transform="matrix(1.00, 0.00, -0.00, -1.00, 783.8, 507.8)">S</text><text xml:space="preserve" font-family="Novecentosanswide-Medium,Novecento sans wide" font-size="52.0" fill="#D8D8D8" transform="matrix(1.00, 0.00, -0.00, -1.00, 815.2, 507.8)">D</text><text xml:space="preserve" font-family="Novecentosanswide-Medium,Novecento sans wide" font-size="52.0" fill="#D8D8D8" transform="matrix(1.00, 0.00, -0.00, -1.00, 851.9, 507.8)">A</text><text xml:space="preserve" font-family="Novecentosanswide-Medium,Novecento sans wide" font-size="52.0" fill="#D8D8D8" transform="matrix(1.00, 0.00, -0.00, -1.00, 884.9, 507.8)">Y</text><text xml:space="preserve" font-family="Novecentosanswide-Medium,Novecento sans wide" font-size="52.0" fill="#D8D8D8" transform="matrix(1.00, 0.00, -0.00, -1.00, 913.2, 507.8)">,</text><text xml:space="preserve" font-family="Novecentosanswide-Medium,Novecento sans wide" font-size="52.0" fill="#D8D8D8" transform="matrix(1.00, 0.00, -0.00, -1.00, 925.9, 507.8)"> </text><text xml:space="preserve" font-family="Novecentosanswide-Medium,Novecento sans wide" font-size="52.0" fill="#D8D8D8" transform="matrix(1.00, 0.00, -0.00, -1.00, 938.9, 507.8)">J</text><text xml:space="preserve" font-family="Novecentosanswide-Medium,Novecento sans wide" font-size="52.0" fill="#D8D8D8" transform="matrix(1.00, 0.00, -0.00, -1.00, 964.8, 507.8)">U</text><text xml:space="preserve" font-family="Novecentosanswide-Medium,Novecento sans wide" font-size="52.0" fill="#D8D8D8" transform="matrix(1.00, 0.00, -0.00, -1.00, 1001.3, 507.8)">L</text><text xml:space="preserve" font-family="Novecentosanswide-Medium,Novecento sans wide" font-size="52.0" fill="#D8D8D8" transform="matrix(1.00, 0.00, -0.00, -1.00, 1024.2, 507.8)">Y</text><text xml:space="preserve" font-family="Novecentosanswide-Medium,Novecento sans wide" font-size="52.0" fill="#D8D8D8" transform="matrix(1.00, 0.00, -0.00, -1.00, 1059.4, 507.8)"> </text><text xml:space="preserve" font-family="Novecentosanswide-Medium,Novecento sans wide" font-size="60.0" fill="#D8D8D8" transform="matrix(1.00, 0.00, -0.00, -1.00, 1072.4, 507.8)">8</text><text xml:space="preserve" font-family="Novecentosanswide-Medium,Novecento sans wide" font-size="60.0" fill="#D8D8D8" transform="matrix(1.00, 0.00, -0.00, -1.00, 1102.9, 507.8)"> </text><text xml:space="preserve" font-family="Novecentosanswide-Medium,Novecento sans wide" font-size="60.0" fill="#D8D8D8" transform="matrix(1.00, 0.00, -0.00, -1.00, 1117.9, 507.8)">2</text><text xml:space="preserve" font-family="Novecentosanswide-Medium,Novecento sans wide" font-size="60.0" fill="#D8D8D8" transform="matrix(1.00, 0.00, -0.00, -1.00, 1147.7, 507.8)">0</text><text xml:space="preserve" font-family="Novecentosanswide-Medium,Novecento sans wide" font-size="60.0" fill="#D8D8D8" transform="matrix(1.00, 0.00, -0.00, -1.00, 1179.3, 507.8)">1</text><text xml:space="preserve" font-family="Novecentosanswide-Medium,Novecento sans wide" font-size="60.0" fill="#D8D8D8" transform="matrix(1.00, 0.00, -0.00, -1.00, 1200.9, 507.8)">4</text><text xml:space="preserve" font-family="Novecentosanswide-Medium,Novecento sans wide" font-size="52.0" fill="#D8D8D8" transform="matrix(1.00, 0.00, -0.00, -1.00, 1233.2, 507.8)"> </text><text xml:space="preserve" font-family="Novecentosanswide-Medium,Novecento sans wide" font-size="52.0" fill="#D8D8D8" transform="matrix(1.00, 0.00, -0.00, -1.00, 809.9, 458.8)">N</text><text xml:space="preserve" font-family="Novecentosanswide-Medium,Novecento sans wide" font-size="52.0" fill="#D8D8D8" transform="matrix(1.00, 0.00, -0.00, -1.00, 848.1, 458.8)">A</text><text xml:space="preserve" font-family="Novecentosanswide-Medium,Novecento sans wide" font-size="52.0" fill="#D8D8D8" transform="matrix(1.00, 0.00, -0.00, -1.00, 880.9, 458.8)">T</text><text xml:space="preserve" font-family="Novecentosanswide-Medium,Novecento sans wide" font-size="52.0" fill="#D8D8D8" transform="matrix(1.00, 0.00, -0.00, -1.00, 914.4, 458.8)">I</text><text xml:space="preserve" font-family="Novecentosanswide-Medium,Novecento sans wide" font-size="52.0" fill="#D8D8D8" transform="matrix(1.00, 0.00, -0.00, -1.00, 927.4, 458.8)">O</text><text xml:space="preserve" font-family="Novecentosanswide-Medium,Novecento sans wide" font-size="52.0" fill="#D8D8D8" transform="matrix(1.00, 0.00, -0.00, -1.00, 968.9, 458.8)">N</text><text xml:space="preserve" font-family="Novecentosanswide-Medium,Novecento sans wide" font-size="52.0" fill="#D8D8D8" transform="matrix(1.00, 0.00, -0.00, -1.00, 1007.1, 458.8)">A</text><text xml:space="preserve" font-family="Novecentosanswide-Medium,Novecento sans wide" font-size="52.0" fill="#D8D8D8" transform="matrix(1.00, 0.00, -0.00, -1.00, 1045.6, 458.8)">L</text><text xml:space="preserve" font-family="Novecentosanswide-Medium,Novecento sans wide" font-size="52.0" fill="#D8D8D8" transform="matrix(1.00, 0.00, -0.00, -1.00, 1074.3, 458.8)">S</text><text xml:space="preserve" font-family="Novecentosanswide-Medium,Novecento sans wide" font-size="52.0" fill="#D8D8D8" transform="matrix(1.00, 0.00, -0.00, -1.00, 1105.7, 458.8)"> </text><text xml:space="preserve" font-family="Novecentosanswide-Medium,Novecento sans wide" font-size="52.0" fill="#D8D8D8" transform="matrix(1.00, 0.00, -0.00, -1.00, 737.5, 390.1)">I</text><text xml:space="preserve" font-family="Novecentosanswide-Medium,Novecento sans wide" font-size="52.0" fill="#D8D8D8" transform="matrix(1.00, 0.00, -0.00, -1.00, 750.5, 390.1)">N</text><text xml:space="preserve" font-family="Novecentosanswide-Medium,Novecento sans wide" font-size="52.0" fill="#D8D8D8" transform="matrix(1.00, 0.00, -0.00, -1.00, 788.7, 390.1)">D</text><text xml:space="preserve" font-family="Novecentosanswide-Medium,Novecento sans wide" font-size="52.0" fill="#D8D8D8" transform="matrix(1.00, 0.00, -0.00, -1.00, 827.0, 390.1)">I</text><text xml:space="preserve" font-family="Novecentosanswide-Medium,Novecento sans wide" font-size="52.0" fill="#D8D8D8" transform="matrix(1.00, 0.00, -0.00, -1.00, 840.0, 390.1)">A</text><text xml:space="preserve" font-family="Novecentosanswide-Medium,Novecento sans wide" font-size="52.0" fill="#D8D8D8" transform="matrix(1.00, 0.00, -0.00, -1.00, 878.5, 390.1)">N</text><text xml:space="preserve" font-family="Novecentosanswide-Medium,Novecento sans wide" font-size="52.0" fill="#D8D8D8" transform="matrix(1.00, 0.00, -0.00, -1.00, 916.7, 390.1)">A</text><text xml:space="preserve" font-family="Novecentosanswide-Medium,Novecento sans wide" font-size="52.0" fill="#D8D8D8" transform="matrix(1.00, 0.00, -0.00, -1.00, 955.2, 390.1)">P</text><text xml:space="preserve" font-family="Novecentosanswide-Medium,Novecento sans wide" font-size="52.0" fill="#D8D8D8" transform="matrix(1.00, 0.00, -0.00, -1.00, 986.3, 390.1)">O</text><text xml:space="preserve" font-family="Novecentosanswide-Medium,Novecento sans wide" font-size="52.0" fill="#D8D8D8" transform="matrix(1.00, 0.00, -0.00, -1.00, 1027.9, 390.1)">L</text><text xml:space="preserve" font-family="Novecentosanswide-Medium,Novecento sans wide" font-size="52.0" fill="#D8D8D8" transform="matrix(1.00, 0.00, -0.00, -1.00, 1057.3, 390.1)">I</text><text xml:space="preserve" font-family="Novecentosanswide-Medium,Novecento sans wide" font-size="52.0" fill="#D8D8D8" transform="matrix(1.00, 0.00, -0.00, -1.00, 1070.3, 390.1)">S</text><text xml:space="preserve" font-family="Novecentosanswide-Medium,Novecento sans wide" font-size="52.0" fill="#D8D8D8" transform="matrix(1.00, 0.00, -0.00, -1.00, 1101.2, 390.1)">,</text><text xml:space="preserve" font-family="Novecentosanswide-Medium,Novecento sans wide" font-size="52.0" fill="#D8D8D8" transform="matrix(1.00, 0.00, -0.00, -1.00, 1113.9, 390.1)"> </text><text xml:space="preserve" font-family="Novecentosanswide-Medium,Novecento sans wide" font-size="52.0" fill="#D8D8D8" transform="matrix(1.00, 0.00, -0.00, -1.00, 1126.9, 390.1)">I</text><text xml:space="preserve" font-family="Novecentosanswide-Medium,Novecento sans wide" font-size="52.0" fill="#D8D8D8" transform="matrix(1.00, 0.00, -0.00, -1.00, 1139.9, 390.1)">N</text></g></svg>