<?xml version="1.0" encoding="UTF-8" standalone="no"?><svg xmlns="http://www.w3.org/2000/svg" xmlns:xlink="http://www.w3.org/1999/xlink" clip-rule="evenodd" stroke-miterlimit="10" viewBox="0 0 564 39"><desc>SVG generated by Keynote</desc><defs></defs><g transform="matrix(1.00, 0.00, -0.00, -1.00, 0.0, 39.0)"><text xml:space="preserve" font-family="Novecentosanswide-Medium,Novecento sans wide" font-size="50.0" fill="#51A7F9" transform="matrix(1.00, 0.00, -0.00, -1.00, -2.7, 2.5)">-</text><text xml:space="preserve" font-family="Novecentosanswide-Medium,Novecento sans wide" font-size="50.0" fill="#51A7F9" transform="matrix(1.00, 0.00, -0.00, -1.00, 26.2, 2.5)"> </text><text xml:space="preserve" font-family="Novecentosanswide-Medium,Novecento sans wide" font-size="50.0" fill="#51A7F9" transform="matrix(1.00, 0.00, -0.00, -1.00, 38.7, 2.5)">N</text><text xml:space="preserve" font-family="Novecentosanswide-Medium,Novecento sans wide" font-size="50.0" fill="#51A7F9" transform="matrix(1.00, 0.00, -0.00, -1.00, 75.5, 2.5)">a</text><text xml:space="preserve" font-family="Novecentosanswide-Medium,Novecento sans wide" font-size="50.0" fill="#51A7F9" transform="matrix(1.00, 0.00, -0.00, -1.00, 101.0, 2.5)">t</text><text xml:space="preserve" font-family="Novecentosanswide-Medium,Novecento sans wide" font-size="50.0" fill="#51A7F9" transform="matrix(1.00, 0.00, -0.00, -1.00, 128.7, 2.5)">i</text><text xml:space="preserve" font-family="Novecentosanswide-Medium,Novecento sans wide" font-size="50.0" fill="#51A7F9" transform="matrix(1.00, 0.00, -0.00, -1.00, 140.9, 2.5)">o</text><text xml:space="preserve" font-family="Novecentosanswide-Medium,Novecento sans wide" font-size="50.0" fill="#51A7F9" transform="matrix(1.00, 0.00, -0.00, -1.00, 174.1, 2.5)">n</text><text xml:space="preserve" font-family="Novecentosanswide-Medium,Novecento sans wide" font-size="50.0" fill="#51A7F9" transform="matrix(1.00, 0.00, -0.00, -1.00, 206.0, 2.5)">a</text><text xml:space="preserve" font-family="Novecentosanswide-Medium,Novecento sans wide" font-size="50.0" fill="#51A7F9" transform="matrix(1.00, 0.00, -0.00, -1.00, 236.3, 2.5)">l</text><text xml:space="preserve" font-family="Novecentosanswide-Medium,Novecento sans wide" font-size="50.0" fill="#51A7F9" transform="matrix(1.00, 0.00, -0.00, -1.00, 260.6, 2.5)"> </text><text xml:space="preserve" font-family="Novecentosanswide-Medium,Novecento sans wide" font-size="50.0" fill="#51A7F9" transform="matrix(1.00, 0.00, -0.00, -1.00, 273.1, 2.5)">P</text><text xml:space="preserve" font-family="Novecentosanswide-Medium,Novecento sans wide" font-size="50.0" fill="#51A7F9" transform="matrix(1.00, 0.00, -0.00, -1.00, 302.5, 2.5)">e</text><text xml:space="preserve" font-family="Novecentosanswide-Medium,Novecento sans wide" font-size="50.0" fill="#51A7F9" transform="matrix(1.00, 0.00, -0.00, -1.00, 329.1, 2.5)">r</text><text xml:space="preserve" font-family="Novecentosanswide-Medium,Novecento sans wide" font-size="50.0" fill="#51A7F9" transform="matrix(1.00, 0.00, -0.00, -1.00, 356.6, 2.5)">s</text><text xml:space="preserve" font-family="Novecentosanswide-Medium,Novecento sans wide" font-size="50.0" fill="#51A7F9" transform="matrix(1.00, 0.00, -0.00, -1.00, 382.2, 2.5)">p</text><text xml:space="preserve" font-family="Novecentosanswide-Medium,Novecento sans wide" font-size="50.0" fill="#51A7F9" transform="matrix(1.00, 0.00, -0.00, -1.00, 408.1, 2.5)">e</text><text xml:space="preserve" font-family="Novecentosanswide-Medium,Novecento sans wide" font-size="50.0" fill="#51A7F9" transform="matrix(1.00, 0.00, -0.00, -1.00, 433.6, 2.5)">c</text><text xml:space="preserve" font-family="Novecentosanswide-Medium,Novecento sans wide" font-size="50.0" fill="#51A7F9" transform="matrix(1.00, 0.00, -0.00, -1.00, 464.6, 2.5)">t</text><text xml:space="preserve" font-family="Novecentosanswide-Medium,Novecento sans wide" font-size="50.0" fill="#51A7F9" transform="matrix(1.00, 0.00, -0.00, -1.00, 492.3, 2.5)">i</text><text xml:space="preserve" font-family="Novecentosanswide-Medium,Novecento sans wide" font-size="50.0" fill="#51A7F9" transform="matrix(1.00, 0.00, -0.00, -1.00, 504.5, 2.5)">v</text><text xml:space="preserve" font-family="Novecentosanswide-Medium,Novecento sans wide" font-size="50.0" fill="#51A7F9" transform="matrix(1.00, 0.00, -0.00, -1.00, 535.3, 2.5)">e</text><text xml:space="preserve" font-family="Novecentosanswide-Medium,Novecento sans wide" font-size="50.0" fill="#51A7F9" transform="matrix(1.00, 0.00, -0.00, -1.00, 561.8, 2.5)"> </text></g></svg>