<?xml version="1.0" encoding="UTF-8" standalone="no"?><svg xmlns="http://www.w3.org/2000/svg" xmlns:xlink="http://www.w3.org/1999/xlink" clip-rule="evenodd" stroke-miterlimit="10" viewBox="0 0 489 39"><desc>SVG generated by Keynote</desc><defs></defs><g transform="matrix(1.00, 0.00, -0.00, -1.00, 0.0, 39.0)"><text xml:space="preserve" font-family="Novecentosanswide-Medium,Novecento sans wide" font-size="50.0" fill="#51A7F9" transform="matrix(1.00, 0.00, -0.00, -1.00, -2.5, 2.4)">-</text><text xml:space="preserve" font-family="Novecentosanswide-Medium,Novecento sans wide" font-size="50.0" fill="#51A7F9" transform="matrix(1.00, 0.00, -0.00, -1.00, 26.4, 2.4)"> </text><text xml:space="preserve" font-family="Novecentosanswide-Medium,Novecento sans wide" font-size="50.0" fill="#51A7F9" transform="matrix(1.00, 0.00, -0.00, -1.00, 38.9, 2.4)">L</text><text xml:space="preserve" font-family="Novecentosanswide-Medium,Novecento sans wide" font-size="50.0" fill="#51A7F9" transform="matrix(1.00, 0.00, -0.00, -1.00, 66.2, 2.4)">o</text><text xml:space="preserve" font-family="Novecentosanswide-Medium,Novecento sans wide" font-size="50.0" fill="#51A7F9" transform="matrix(1.00, 0.00, -0.00, -1.00, 99.6, 2.4)">c</text><text xml:space="preserve" font-family="Novecentosanswide-Medium,Novecento sans wide" font-size="50.0" fill="#51A7F9" transform="matrix(1.00, 0.00, -0.00, -1.00, 131.3, 2.4)">a</text><text xml:space="preserve" font-family="Novecentosanswide-Medium,Novecento sans wide" font-size="50.0" fill="#51A7F9" transform="matrix(1.00, 0.00, -0.00, -1.00, 161.6, 2.4)">l</text><text xml:space="preserve" font-family="Novecentosanswide-Medium,Novecento sans wide" font-size="50.0" fill="#51A7F9" transform="matrix(1.00, 0.00, -0.00, -1.00, 185.9, 2.4)"> </text><text xml:space="preserve" font-family="Novecentosanswide-Medium,Novecento sans wide" font-size="50.0" fill="#51A7F9" transform="matrix(1.00, 0.00, -0.00, -1.00, 198.4, 2.4)">P</text><text xml:space="preserve" font-family="Novecentosanswide-Medium,Novecento sans wide" font-size="50.0" fill="#51A7F9" transform="matrix(1.00, 0.00, -0.00, -1.00, 227.8, 2.4)">e</text><text xml:space="preserve" font-family="Novecentosanswide-Medium,Novecento sans wide" font-size="50.0" fill="#51A7F9" transform="matrix(1.00, 0.00, -0.00, -1.00, 254.4, 2.4)">r</text><text xml:space="preserve" font-family="Novecentosanswide-Medium,Novecento sans wide" font-size="50.0" fill="#51A7F9" transform="matrix(1.00, 0.00, -0.00, -1.00, 281.9, 2.4)">s</text><text xml:space="preserve" font-family="Novecentosanswide-Medium,Novecento sans wide" font-size="50.0" fill="#51A7F9" transform="matrix(1.00, 0.00, -0.00, -1.00, 307.5, 2.4)">p</text><text xml:space="preserve" font-family="Novecentosanswide-Medium,Novecento sans wide" font-size="50.0" fill="#51A7F9" transform="matrix(1.00, 0.00, -0.00, -1.00, 333.4, 2.4)">e</text><text xml:space="preserve" font-family="Novecentosanswide-Medium,Novecento sans wide" font-size="50.0" fill="#51A7F9" transform="matrix(1.00, 0.00, -0.00, -1.00, 358.9, 2.4)">c</text><text xml:space="preserve" font-family="Novecentosanswide-Medium,Novecento sans wide" font-size="50.0" fill="#51A7F9" transform="matrix(1.00, 0.00, -0.00, -1.00, 389.9, 2.4)">t</text><text xml:space="preserve" font-family="Novecentosanswide-Medium,Novecento sans wide" font-size="50.0" fill="#51A7F9" transform="matrix(1.00, 0.00, -0.00, -1.00, 417.6, 2.4)">i</text><text xml:space="preserve" font-family="Novecentosanswide-Medium,Novecento sans wide" font-size="50.0" fill="#51A7F9" transform="matrix(1.00, 0.00, -0.00, -1.00, 429.8, 2.4)">v</text><text xml:space="preserve" font-family="Novecentosanswide-Medium,Novecento sans wide" font-size="50.0" fill="#51A7F9" transform="matrix(1.00, 0.00, -0.00, -1.00, 460.6, 2.4)">e</text><text xml:space="preserve" font-family="Novecentosanswide-Medium,Novecento sans wide" font-size="50.0" fill="#51A7F9" transform="matrix(1.00, 0.00, -0.00, -1.00, 487.1, 2.4)"> </text></g></svg>