<?xml version="1.0" encoding="UTF-8" standalone="no"?><svg xmlns="http://www.w3.org/2000/svg" xmlns:xlink="http://www.w3.org/1999/xlink" clip-rule="evenodd" stroke-miterlimit="10" viewBox="0 0 196 35"><desc>SVG generated by Keynote</desc><defs></defs><g transform="matrix(1.00, 0.00, -0.00, -1.00, 0.0, 35.0)"><text xml:space="preserve" font-family="Novecentosanswide-Medium,Novecento sans wide" font-size="44.0" fill="#FFFFFF" transform="matrix(1.00, 0.00, -0.00, -1.00, -1.8, 2.9)">I</text><text xml:space="preserve" font-family="Novecentosanswide-Medium,Novecento sans wide" font-size="44.0" fill="#FFFFFF" transform="matrix(1.00, 0.00, -0.00, -1.00, 9.2, 2.9)">n</text><text xml:space="preserve" font-family="Novecentosanswide-Medium,Novecento sans wide" font-size="44.0" fill="#FFFFFF" transform="matrix(1.00, 0.00, -0.00, -1.00, 37.3, 2.9)">c</text><text xml:space="preserve" font-family="Novecentosanswide-Medium,Novecento sans wide" font-size="44.0" fill="#FFFFFF" transform="matrix(1.00, 0.00, -0.00, -1.00, 65.0, 2.9)">l</text><text xml:space="preserve" font-family="Novecentosanswide-Medium,Novecento sans wide" font-size="44.0" fill="#FFFFFF" transform="matrix(1.00, 0.00, -0.00, -1.00, 84.6, 2.9)">u</text><text xml:space="preserve" font-family="Novecentosanswide-Medium,Novecento sans wide" font-size="44.0" fill="#FFFFFF" transform="matrix(1.00, 0.00, -0.00, -1.00, 111.9, 2.9)">d</text><text xml:space="preserve" font-family="Novecentosanswide-Medium,Novecento sans wide" font-size="44.0" fill="#FFFFFF" transform="matrix(1.00, 0.00, -0.00, -1.00, 139.2, 2.9)">e</text><text xml:space="preserve" font-family="Novecentosanswide-Medium,Novecento sans wide" font-size="44.0" fill="#FFFFFF" transform="matrix(1.00, 0.00, -0.00, -1.00, 162.6, 2.9)">s</text><text xml:space="preserve" font-family="Novecentosanswide-Medium,Novecento sans wide" font-size="44.0" fill="#FFFFFF" transform="matrix(1.00, 0.00, -0.00, -1.00, 185.1, 2.9)">:</text></g></svg>