<?xml version="1.0" encoding="UTF-8" standalone="no"?><svg xmlns="http://www.w3.org/2000/svg" xmlns:xlink="http://www.w3.org/1999/xlink" clip-rule="evenodd" stroke-miterlimit="10" viewBox="0 0 410 74"><desc>SVG generated by Keynote</desc><defs></defs><g transform="matrix(1.00, 0.00, -0.00, -1.00, 0.0, 74.0)"><text xml:space="preserve" font-family="ArialMT,Arial" font-size="32.0" fill="#009ED8" transform="matrix(1.00, 0.00, -0.00, -1.00, 0.7, 44.2)">•</text><text xml:space="preserve" font-family="Cantarell-Regular,Cantarell" font-size="32.0" fill="#D8D8D8" transform="matrix(1.00, 0.00, -0.00, -1.00, 21.1, 43.2)">I</text><text xml:space="preserve" font-family="Cantarell-Regular,Cantarell" font-size="32.0" fill="#D8D8D8" transform="matrix(1.00, 0.00, -0.00, -1.00, 32.5, 43.2)">n</text><text xml:space="preserve" font-family="Cantarell-Regular,Cantarell" font-size="32.0" fill="#D8D8D8" transform="matrix(1.00, 0.00, -0.00, -1.00, 50.9, 43.2)">v</text><text xml:space="preserve" font-family="Cantarell-Regular,Cantarell" font-size="32.0" fill="#D8D8D8" transform="matrix(1.00, 0.00, -0.00, -1.00, 66.4, 43.2)">i</text><text xml:space="preserve" font-family="Cantarell-Regular,Cantarell" font-size="32.0" fill="#D8D8D8" transform="matrix(1.00, 0.00, -0.00, -1.00, 74.6, 43.2)">t</text><text xml:space="preserve" font-family="Cantarell-Regular,Cantarell" font-size="32.0" fill="#D8D8D8" transform="matrix(1.00, 0.00, -0.00, -1.00, 86.7, 43.2)">a</text><text xml:space="preserve" font-family="Cantarell-Regular,Cantarell" font-size="32.0" fill="#D8D8D8" transform="matrix(1.00, 0.00, -0.00, -1.00, 103.4, 43.2)">t</text><text xml:space="preserve" font-family="Cantarell-Regular,Cantarell" font-size="32.0" fill="#D8D8D8" transform="matrix(1.00, 0.00, -0.00, -1.00, 115.5, 43.2)">i</text><text xml:space="preserve" font-family="Cantarell-Regular,Cantarell" font-size="32.0" fill="#D8D8D8" transform="matrix(1.00, 0.00, -0.00, -1.00, 123.7, 43.2)">o</text><text xml:space="preserve" font-family="Cantarell-Regular,Cantarell" font-size="32.0" fill="#D8D8D8" transform="matrix(1.00, 0.00, -0.00, -1.00, 142.7, 43.2)">n</text><text xml:space="preserve" font-family="Cantarell-Regular,Cantarell" font-size="32.0" fill="#D8D8D8" transform="matrix(1.00, 0.00, -0.00, -1.00, 161.0, 43.2)">s</text><text xml:space="preserve" font-family="Cantarell-Regular,Cantarell" font-size="32.0" fill="#D8D8D8" transform="matrix(1.00, 0.00, -0.00, -1.00, 176.9, 43.2)"> </text><text xml:space="preserve" font-family="Cantarell-Regular,Cantarell" font-size="32.0" fill="#D8D8D8" transform="matrix(1.00, 0.00, -0.00, -1.00, 185.7, 43.2)">t</text><text xml:space="preserve" font-family="Cantarell-Regular,Cantarell" font-size="32.0" fill="#D8D8D8" transform="matrix(1.00, 0.00, -0.00, -1.00, 197.8, 43.2)">o</text><text xml:space="preserve" font-family="Cantarell-Regular,Cantarell" font-size="32.0" fill="#D8D8D8" transform="matrix(1.00, 0.00, -0.00, -1.00, 216.7, 43.2)"> </text><text xml:space="preserve" font-family="Cantarell-Regular,Cantarell" font-size="32.0" fill="#D8D8D8" transform="matrix(1.00, 0.00, -0.00, -1.00, 225.5, 43.2)">“</text><text xml:space="preserve" font-family="Cantarell-Regular,Cantarell" font-size="32.0" fill="#D8D8D8" transform="matrix(1.00, 0.00, -0.00, -1.00, 238.5, 43.2)">C</text><text xml:space="preserve" font-family="Cantarell-Regular,Cantarell" font-size="32.0" fill="#D8D8D8" transform="matrix(1.00, 0.00, -0.00, -1.00, 261.2, 43.2)">h</text><text xml:space="preserve" font-family="Cantarell-Regular,Cantarell" font-size="32.0" fill="#D8D8D8" transform="matrix(1.00, 0.00, -0.00, -1.00, 279.7, 43.2)">e</text><text xml:space="preserve" font-family="Cantarell-Regular,Cantarell" font-size="32.0" fill="#D8D8D8" transform="matrix(1.00, 0.00, -0.00, -1.00, 297.0, 43.2)">c</text><text xml:space="preserve" font-family="Cantarell-Regular,Cantarell" font-size="32.0" fill="#D8D8D8" transform="matrix(1.00, 0.00, -0.00, -1.00, 312.6, 43.2)">k</text><text xml:space="preserve" font-family="Cantarell-Regular,Cantarell" font-size="32.0" fill="#D8D8D8" transform="matrix(1.00, 0.00, -0.00, -1.00, 329.4, 43.2)"> </text><text xml:space="preserve" font-family="Cantarell-Regular,Cantarell" font-size="32.0" fill="#D8D8D8" transform="matrix(1.00, 0.00, -0.00, -1.00, 338.1, 43.2)">O</text><text xml:space="preserve" font-family="Cantarell-Regular,Cantarell" font-size="32.0" fill="#D8D8D8" transform="matrix(1.00, 0.00, -0.00, -1.00, 364.5, 43.2)">u</text><text xml:space="preserve" font-family="Cantarell-Regular,Cantarell" font-size="32.0" fill="#D8D8D8" transform="matrix(1.00, 0.00, -0.00, -1.00, 382.9, 43.2)">t</text><text xml:space="preserve" font-family="Cantarell-Regular,Cantarell" font-size="32.0" fill="#D8D8D8" transform="matrix(1.00, 0.00, -0.00, -1.00, 395.0, 43.2)">”</text><text xml:space="preserve" font-family="Cantarell-Regular,Cantarell" font-size="32.0" fill="#D8D8D8" transform="matrix(1.00, 0.00, -0.00, -1.00, 408.0, 43.2)"> </text><text xml:space="preserve" font-family="Cantarell-Regular,Cantarell" font-size="32.0" fill="#D8D8D8" transform="matrix(1.00, 0.00, -0.00, -1.00, 21.1, 2.3)">e</text><text xml:space="preserve" font-family="Cantarell-Regular,Cantarell" font-size="32.0" fill="#D8D8D8" transform="matrix(1.00, 0.00, -0.00, -1.00, 38.3, 2.3)">v</text><text xml:space="preserve" font-family="Cantarell-Regular,Cantarell" font-size="32.0" fill="#D8D8D8" transform="matrix(1.00, 0.00, -0.00, -1.00, 53.8, 2.3)">e</text><text xml:space="preserve" font-family="Cantarell-Regular,Cantarell" font-size="32.0" fill="#D8D8D8" transform="matrix(1.00, 0.00, -0.00, -1.00, 71.1, 2.3)">n</text><text xml:space="preserve" font-family="Cantarell-Regular,Cantarell" font-size="32.0" fill="#D8D8D8" transform="matrix(1.00, 0.00, -0.00, -1.00, 89.4, 2.3)">t</text></g></svg>