<?xml version="1.0" encoding="UTF-8" standalone="no"?><svg xmlns="http://www.w3.org/2000/svg" xmlns:xlink="http://www.w3.org/1999/xlink" clip-rule="evenodd" stroke-miterlimit="10" viewBox="0 0 871 316"><desc>SVG generated by Keynote</desc><defs></defs><g transform="matrix(1.00, 0.00, -0.00, -1.00, 0.0, 316.0)"><text xml:space="preserve" font-family="ArialMT,Arial" font-size="32.0" fill="#009ED8" transform="matrix(1.00, 0.00, -0.00, -1.00, 0.7, 286.6)">•</text><text xml:space="preserve" font-family="Cantarell-Regular,Cantarell" font-size="32.0" fill="#D8D8D8" transform="matrix(1.00, 0.00, -0.00, -1.00, 21.1, 285.7)">B</text><text xml:space="preserve" font-family="Cantarell-Regular,Cantarell" font-size="32.0" fill="#D8D8D8" transform="matrix(1.00, 0.00, -0.00, -1.00, 43.4, 285.7)">u</text><text xml:space="preserve" font-family="Cantarell-Regular,Cantarell" font-size="32.0" fill="#D8D8D8" transform="matrix(1.00, 0.00, -0.00, -1.00, 61.7, 285.7)">z</text><text xml:space="preserve" font-family="Cantarell-Regular,Cantarell" font-size="32.0" fill="#D8D8D8" transform="matrix(1.00, 0.00, -0.00, -1.00, 78.6, 285.7)">z</text><text xml:space="preserve" font-family="Cantarell-Regular,Cantarell" font-size="32.0" fill="#D8D8D8" transform="matrix(1.00, 0.00, -0.00, -1.00, 95.4, 285.7)">e</text><text xml:space="preserve" font-family="Cantarell-Regular,Cantarell" font-size="32.0" fill="#D8D8D8" transform="matrix(1.00, 0.00, -0.00, -1.00, 112.7, 285.7)">r</text><text xml:space="preserve" font-family="Cantarell-Regular,Cantarell" font-size="32.0" fill="#D8D8D8" transform="matrix(1.00, 0.00, -0.00, -1.00, 125.2, 285.7)"> </text><text xml:space="preserve" font-family="Cantarell-Regular,Cantarell" font-size="32.0" fill="#D8D8D8" transform="matrix(1.00, 0.00, -0.00, -1.00, 133.9, 285.7)">b</text><text xml:space="preserve" font-family="Cantarell-Regular,Cantarell" font-size="32.0" fill="#D8D8D8" transform="matrix(1.00, 0.00, -0.00, -1.00, 152.4, 285.7)">o</text><text xml:space="preserve" font-family="Cantarell-Regular,Cantarell" font-size="32.0" fill="#D8D8D8" transform="matrix(1.00, 0.00, -0.00, -1.00, 171.4, 285.7)">a</text><text xml:space="preserve" font-family="Cantarell-Regular,Cantarell" font-size="32.0" fill="#D8D8D8" transform="matrix(1.00, 0.00, -0.00, -1.00, 188.1, 285.7)">r</text><text xml:space="preserve" font-family="Cantarell-Regular,Cantarell" font-size="32.0" fill="#D8D8D8" transform="matrix(1.00, 0.00, -0.00, -1.00, 200.6, 285.7)">d</text><text xml:space="preserve" font-family="Cantarell-Regular,Cantarell" font-size="32.0" fill="#D8D8D8" transform="matrix(1.00, 0.00, -0.00, -1.00, 219.1, 285.7)"> </text><text xml:space="preserve" font-family="ArialMT,Arial" font-size="32.0" fill="#009ED8" transform="matrix(1.00, 0.00, -0.00, -1.00, 0.7, 205.8)">•</text><text xml:space="preserve" font-family="Cantarell-Regular,Cantarell" font-size="32.0" fill="#D8D8D8" transform="matrix(1.00, 0.00, -0.00, -1.00, 21.1, 204.8)">B</text><text xml:space="preserve" font-family="Cantarell-Regular,Cantarell" font-size="32.0" fill="#D8D8D8" transform="matrix(1.00, 0.00, -0.00, -1.00, 43.4, 204.8)">r</text><text xml:space="preserve" font-family="Cantarell-Regular,Cantarell" font-size="32.0" fill="#D8D8D8" transform="matrix(1.00, 0.00, -0.00, -1.00, 55.9, 204.8)">o</text><text xml:space="preserve" font-family="Cantarell-Regular,Cantarell" font-size="32.0" fill="#D8D8D8" transform="matrix(1.00, 0.00, -0.00, -1.00, 74.8, 204.8)">c</text><text xml:space="preserve" font-family="Cantarell-Regular,Cantarell" font-size="32.0" fill="#D8D8D8" transform="matrix(1.00, 0.00, -0.00, -1.00, 90.4, 204.8)">h</text><text xml:space="preserve" font-family="Cantarell-Regular,Cantarell" font-size="32.0" fill="#D8D8D8" transform="matrix(1.00, 0.00, -0.00, -1.00, 109.0, 204.8)">u</text><text xml:space="preserve" font-family="Cantarell-Regular,Cantarell" font-size="32.0" fill="#D8D8D8" transform="matrix(1.00, 0.00, -0.00, -1.00, 127.4, 204.8)">r</text><text xml:space="preserve" font-family="Cantarell-Regular,Cantarell" font-size="32.0" fill="#D8D8D8" transform="matrix(1.00, 0.00, -0.00, -1.00, 139.9, 204.8)">e</text><text xml:space="preserve" font-family="Cantarell-Regular,Cantarell" font-size="32.0" fill="#D8D8D8" transform="matrix(1.00, 0.00, -0.00, -1.00, 157.1, 204.8)">s</text><text xml:space="preserve" font-family="Cantarell-Regular,Cantarell" font-size="32.0" fill="#D8D8D8" transform="matrix(1.00, 0.00, -0.00, -1.00, 173.0, 204.8)"> </text><text xml:space="preserve" font-family="ArialMT,Arial" font-size="32.0" fill="#009ED8" transform="matrix(1.00, 0.00, -0.00, -1.00, 0.7, 125.0)">•</text><text xml:space="preserve" font-family="Cantarell-Regular,Cantarell" font-size="32.0" fill="#D8D8D8" transform="matrix(1.00, 0.00, -0.00, -1.00, 21.1, 124.0)">C</text><text xml:space="preserve" font-family="Cantarell-Regular,Cantarell" font-size="32.0" fill="#D8D8D8" transform="matrix(1.00, 0.00, -0.00, -1.00, 43.8, 124.0)">a</text><text xml:space="preserve" font-family="Cantarell-Regular,Cantarell" font-size="32.0" fill="#D8D8D8" transform="matrix(1.00, 0.00, -0.00, -1.00, 60.5, 124.0)">n</text><text xml:space="preserve" font-family="Cantarell-Regular,Cantarell" font-size="32.0" fill="#D8D8D8" transform="matrix(1.00, 0.00, -0.00, -1.00, 78.9, 124.0)">d</text><text xml:space="preserve" font-family="Cantarell-Regular,Cantarell" font-size="32.0" fill="#D8D8D8" transform="matrix(1.00, 0.00, -0.00, -1.00, 97.4, 124.0)">y</text><text xml:space="preserve" font-family="Cantarell-Regular,Cantarell" font-size="32.0" fill="#D8D8D8" transform="matrix(1.00, 0.00, -0.00, -1.00, 114.0, 124.0)"> </text><text xml:space="preserve" font-family="Cantarell-Regular,Cantarell" font-size="32.0" fill="#D8D8D8" transform="matrix(1.00, 0.00, -0.00, -1.00, 122.7, 124.0)">-</text><text xml:space="preserve" font-family="Cantarell-Regular,Cantarell" font-size="32.0" fill="#D8D8D8" transform="matrix(1.00, 0.00, -0.00, -1.00, 141.6, 124.0)"> </text><text xml:space="preserve" font-family="Cantarell-Regular,Cantarell" font-size="32.0" fill="#D8D8D8" transform="matrix(1.00, 0.00, -0.00, -1.00, 150.4, 124.0)">$</text><text xml:space="preserve" font-family="Cantarell-Regular,Cantarell" font-size="32.0" fill="#D8D8D8" transform="matrix(1.00, 0.00, -0.00, -1.00, 169.2, 124.0)">1</text><text xml:space="preserve" font-family="Cantarell-Regular,Cantarell" font-size="32.0" fill="#D8D8D8" transform="matrix(1.00, 0.00, -0.00, -1.00, 189.5, 124.0)">5</text><text xml:space="preserve" font-family="Cantarell-Regular,Cantarell" font-size="32.0" fill="#D8D8D8" transform="matrix(1.00, 0.00, -0.00, -1.00, 209.8, 124.0)"> </text><text xml:space="preserve" font-family="ArialMT,Arial" font-size="32.0" fill="#009ED8" transform="matrix(1.00, 0.00, -0.00, -1.00, 0.7, 44.2)">•</text><text xml:space="preserve" font-family="Cantarell-Regular,Cantarell" font-size="32.0" fill="#D8D8D8" transform="matrix(1.00, 0.00, -0.00, -1.00, 21.1, 43.2)">I</text><text xml:space="preserve" font-family="Cantarell-Regular,Cantarell" font-size="32.0" fill="#D8D8D8" transform="matrix(1.00, 0.00, -0.00, -1.00, 32.5, 43.2)">n</text><text xml:space="preserve" font-family="Cantarell-Regular,Cantarell" font-size="32.0" fill="#D8D8D8" transform="matrix(1.00, 0.00, -0.00, -1.00, 50.9, 43.2)">v</text><text xml:space="preserve" font-family="Cantarell-Regular,Cantarell" font-size="32.0" fill="#D8D8D8" transform="matrix(1.00, 0.00, -0.00, -1.00, 66.4, 43.2)">i</text><text xml:space="preserve" font-family="Cantarell-Regular,Cantarell" font-size="32.0" fill="#D8D8D8" transform="matrix(1.00, 0.00, -0.00, -1.00, 74.6, 43.2)">t</text><text xml:space="preserve" font-family="Cantarell-Regular,Cantarell" font-size="32.0" fill="#D8D8D8" transform="matrix(1.00, 0.00, -0.00, -1.00, 86.7, 43.2)">a</text><text xml:space="preserve" font-family="Cantarell-Regular,Cantarell" font-size="32.0" fill="#D8D8D8" transform="matrix(1.00, 0.00, -0.00, -1.00, 103.4, 43.2)">t</text><text xml:space="preserve" font-family="Cantarell-Regular,Cantarell" font-size="32.0" fill="#D8D8D8" transform="matrix(1.00, 0.00, -0.00, -1.00, 115.5, 43.2)">i</text><text xml:space="preserve" font-family="Cantarell-Regular,Cantarell" font-size="32.0" fill="#D8D8D8" transform="matrix(1.00, 0.00, -0.00, -1.00, 123.7, 43.2)">o</text><text xml:space="preserve" font-family="Cantarell-Regular,Cantarell" font-size="32.0" fill="#D8D8D8" transform="matrix(1.00, 0.00, -0.00, -1.00, 142.7, 43.2)">n</text><text xml:space="preserve" font-family="Cantarell-Regular,Cantarell" font-size="32.0" fill="#D8D8D8" transform="matrix(1.00, 0.00, -0.00, -1.00, 161.0, 43.2)">s</text><text xml:space="preserve" font-family="Cantarell-Regular,Cantarell" font-size="32.0" fill="#D8D8D8" transform="matrix(1.00, 0.00, -0.00, -1.00, 176.9, 43.2)"> </text><text xml:space="preserve" font-family="Cantarell-Regular,Cantarell" font-size="32.0" fill="#D8D8D8" transform="matrix(1.00, 0.00, -0.00, -1.00, 185.7, 43.2)">t</text><text xml:space="preserve" font-family="Cantarell-Regular,Cantarell" font-size="32.0" fill="#D8D8D8" transform="matrix(1.00, 0.00, -0.00, -1.00, 197.8, 43.2)">o</text><text xml:space="preserve" font-family="Cantarell-Regular,Cantarell" font-size="32.0" fill="#D8D8D8" transform="matrix(1.00, 0.00, -0.00, -1.00, 216.7, 43.2)"> </text><text xml:space="preserve" font-family="Cantarell-Regular,Cantarell" font-size="32.0" fill="#D8D8D8" transform="matrix(1.00, 0.00, -0.00, -1.00, 225.5, 43.2)">“</text><text xml:space="preserve" font-family="Cantarell-Regular,Cantarell" font-size="32.0" fill="#D8D8D8" transform="matrix(1.00, 0.00, -0.00, -1.00, 238.5, 43.2)">C</text><text xml:space="preserve" font-family="Cantarell-Regular,Cantarell" font-size="32.0" fill="#D8D8D8" transform="matrix(1.00, 0.00, -0.00, -1.00, 261.2, 43.2)">h</text><text xml:space="preserve" font-family="Cantarell-Regular,Cantarell" font-size="32.0" fill="#D8D8D8" transform="matrix(1.00, 0.00, -0.00, -1.00, 279.7, 43.2)">e</text><text xml:space="preserve" font-family="Cantarell-Regular,Cantarell" font-size="32.0" fill="#D8D8D8" transform="matrix(1.00, 0.00, -0.00, -1.00, 297.0, 43.2)">c</text><text xml:space="preserve" font-family="Cantarell-Regular,Cantarell" font-size="32.0" fill="#D8D8D8" transform="matrix(1.00, 0.00, -0.00, -1.00, 312.6, 43.2)">k</text><text xml:space="preserve" font-family="Cantarell-Regular,Cantarell" font-size="32.0" fill="#D8D8D8" transform="matrix(1.00, 0.00, -0.00, -1.00, 329.4, 43.2)"> </text><text xml:space="preserve" font-family="Cantarell-Regular,Cantarell" font-size="32.0" fill="#D8D8D8" transform="matrix(1.00, 0.00, -0.00, -1.00, 338.1, 43.2)">O</text><text xml:space="preserve" font-family="Cantarell-Regular,Cantarell" font-size="32.0" fill="#D8D8D8" transform="matrix(1.00, 0.00, -0.00, -1.00, 364.5, 43.2)">u</text><text xml:space="preserve" font-family="Cantarell-Regular,Cantarell" font-size="32.0" fill="#D8D8D8" transform="matrix(1.00, 0.00, -0.00, -1.00, 382.9, 43.2)">t</text><text xml:space="preserve" font-family="Cantarell-Regular,Cantarell" font-size="32.0" fill="#D8D8D8" transform="matrix(1.00, 0.00, -0.00, -1.00, 395.0, 43.2)">”</text><text xml:space="preserve" font-family="Cantarell-Regular,Cantarell" font-size="32.0" fill="#D8D8D8" transform="matrix(1.00, 0.00, -0.00, -1.00, 408.0, 43.2)"> </text><text xml:space="preserve" font-family="Cantarell-Regular,Cantarell" font-size="32.0" fill="#D8D8D8" transform="matrix(1.00, 0.00, -0.00, -1.00, 21.1, 2.3)">e</text><text xml:space="preserve" font-family="Cantarell-Regular,Cantarell" font-size="32.0" fill="#D8D8D8" transform="matrix(1.00, 0.00, -0.00, -1.00, 38.3, 2.3)">v</text><text xml:space="preserve" font-family="Cantarell-Regular,Cantarell" font-size="32.0" fill="#D8D8D8" transform="matrix(1.00, 0.00, -0.00, -1.00, 53.8, 2.3)">e</text><text xml:space="preserve" font-family="Cantarell-Regular,Cantarell" font-size="32.0" fill="#D8D8D8" transform="matrix(1.00, 0.00, -0.00, -1.00, 71.1, 2.3)">n</text><text xml:space="preserve" font-family="Cantarell-Regular,Cantarell" font-size="32.0" fill="#D8D8D8" transform="matrix(1.00, 0.00, -0.00, -1.00, 89.4, 2.3)">t</text><text xml:space="preserve" font-family="Cantarell-Regular,Cantarell" font-size="32.0" fill="#D8D8D8" transform="matrix(1.00, 0.00, -0.00, -1.00, 101.5, 2.3)"> </text><text xml:space="preserve" font-family="ArialMT,Arial" font-size="32.0" fill="#009ED8" transform="matrix(1.00, 0.00, -0.00, -1.00, 474.3, 286.6)">•</text><text xml:space="preserve" font-family="Cantarell-Regular,Cantarell" font-size="32.0" fill="#D8D8D8" transform="matrix(1.00, 0.00, -0.00, -1.00, 494.7, 285.7)">T</text><text xml:space="preserve" font-family="Cantarell-Regular,Cantarell" font-size="32.0" fill="#D8D8D8" transform="matrix(1.00, 0.00, -0.00, -1.00, 513.6, 285.7)">o</text><text xml:space="preserve" font-family="Cantarell-Regular,Cantarell" font-size="32.0" fill="#D8D8D8" transform="matrix(1.00, 0.00, -0.00, -1.00, 532.6, 285.7)">s</text><text xml:space="preserve" font-family="Cantarell-Regular,Cantarell" font-size="32.0" fill="#D8D8D8" transform="matrix(1.00, 0.00, -0.00, -1.00, 548.4, 285.7)">s</text><text xml:space="preserve" font-family="Cantarell-Regular,Cantarell" font-size="32.0" fill="#D8D8D8" transform="matrix(1.00, 0.00, -0.00, -1.00, 564.3, 285.7)">u</text><text xml:space="preserve" font-family="Cantarell-Regular,Cantarell" font-size="32.0" fill="#D8D8D8" transform="matrix(1.00, 0.00, -0.00, -1.00, 582.7, 285.7)">p</text><text xml:space="preserve" font-family="Cantarell-Regular,Cantarell" font-size="32.0" fill="#D8D8D8" transform="matrix(1.00, 0.00, -0.00, -1.00, 601.1, 285.7)">s</text><text xml:space="preserve" font-family="Cantarell-Regular,Cantarell" font-size="32.0" fill="#D8D8D8" transform="matrix(1.00, 0.00, -0.00, -1.00, 616.9, 285.7)"> </text><text xml:space="preserve" font-family="ArialMT,Arial" font-size="32.0" fill="#009ED8" transform="matrix(1.00, 0.00, -0.00, -1.00, 474.3, 205.8)">•</text><text xml:space="preserve" font-family="Cantarell-Regular,Cantarell" font-size="32.0" fill="#D8D8D8" transform="matrix(1.00, 0.00, -0.00, -1.00, 494.7, 204.8)">B</text><text xml:space="preserve" font-family="Cantarell-Regular,Cantarell" font-size="32.0" fill="#D8D8D8" transform="matrix(1.00, 0.00, -0.00, -1.00, 517.0, 204.8)">a</text><text xml:space="preserve" font-family="Cantarell-Regular,Cantarell" font-size="32.0" fill="#D8D8D8" transform="matrix(1.00, 0.00, -0.00, -1.00, 533.7, 204.8)">n</text><text xml:space="preserve" font-family="Cantarell-Regular,Cantarell" font-size="32.0" fill="#D8D8D8" transform="matrix(1.00, 0.00, -0.00, -1.00, 552.1, 204.8)">n</text><text xml:space="preserve" font-family="Cantarell-Regular,Cantarell" font-size="32.0" fill="#D8D8D8" transform="matrix(1.00, 0.00, -0.00, -1.00, 570.4, 204.8)">e</text><text xml:space="preserve" font-family="Cantarell-Regular,Cantarell" font-size="32.0" fill="#D8D8D8" transform="matrix(1.00, 0.00, -0.00, -1.00, 587.7, 204.8)">r</text><text xml:space="preserve" font-family="Cantarell-Regular,Cantarell" font-size="32.0" fill="#D8D8D8" transform="matrix(1.00, 0.00, -0.00, -1.00, 600.2, 204.8)"> </text><text xml:space="preserve" font-family="Cantarell-Regular,Cantarell" font-size="32.0" fill="#D8D8D8" transform="matrix(1.00, 0.00, -0.00, -1.00, 608.9, 204.8)">-</text><text xml:space="preserve" font-family="Cantarell-Regular,Cantarell" font-size="32.0" fill="#D8D8D8" transform="matrix(1.00, 0.00, -0.00, -1.00, 627.8, 204.8)"> </text><text xml:space="preserve" font-family="Cantarell-Regular,Cantarell" font-size="32.0" fill="#D8D8D8" transform="matrix(1.00, 0.00, -0.00, -1.00, 636.6, 204.8)">$</text><text xml:space="preserve" font-family="Cantarell-Regular,Cantarell" font-size="32.0" fill="#D8D8D8" transform="matrix(1.00, 0.00, -0.00, -1.00, 655.4, 204.8)">6</text><text xml:space="preserve" font-family="Cantarell-Regular,Cantarell" font-size="32.0" fill="#D8D8D8" transform="matrix(1.00, 0.00, -0.00, -1.00, 675.7, 204.8)">0</text><text xml:space="preserve" font-family="Cantarell-Regular,Cantarell" font-size="32.0" fill="#D8D8D8" transform="matrix(1.00, 0.00, -0.00, -1.00, 696.0, 204.8)"> </text><text xml:space="preserve" font-family="ArialMT,Arial" font-size="32.0" fill="#009ED8" transform="matrix(1.00, 0.00, -0.00, -1.00, 474.3, 125.0)">•</text><text xml:space="preserve" font-family="Cantarell-Regular,Cantarell" font-size="32.0" fill="#D8D8D8" transform="matrix(1.00, 0.00, -0.00, -1.00, 494.7, 124.0)">T</text><text xml:space="preserve" font-family="Cantarell-Regular,Cantarell" font-size="32.0" fill="#D8D8D8" transform="matrix(1.00, 0.00, -0.00, -1.00, 513.6, 124.0)">a</text><text xml:space="preserve" font-family="Cantarell-Regular,Cantarell" font-size="32.0" fill="#D8D8D8" transform="matrix(1.00, 0.00, -0.00, -1.00, 530.3, 124.0)">b</text><text xml:space="preserve" font-family="Cantarell-Regular,Cantarell" font-size="32.0" fill="#D8D8D8" transform="matrix(1.00, 0.00, -0.00, -1.00, 548.8, 124.0)">l</text><text xml:space="preserve" font-family="Cantarell-Regular,Cantarell" font-size="32.0" fill="#D8D8D8" transform="matrix(1.00, 0.00, -0.00, -1.00, 557.6, 124.0)">e</text><text xml:space="preserve" font-family="Cantarell-Regular,Cantarell" font-size="32.0" fill="#D8D8D8" transform="matrix(1.00, 0.00, -0.00, -1.00, 574.8, 124.0)"> </text><text xml:space="preserve" font-family="Cantarell-Regular,Cantarell" font-size="32.0" fill="#D8D8D8" transform="matrix(1.00, 0.00, -0.00, -1.00, 583.6, 124.0)">c</text><text xml:space="preserve" font-family="Cantarell-Regular,Cantarell" font-size="32.0" fill="#D8D8D8" transform="matrix(1.00, 0.00, -0.00, -1.00, 599.2, 124.0)">l</text><text xml:space="preserve" font-family="Cantarell-Regular,Cantarell" font-size="32.0" fill="#D8D8D8" transform="matrix(1.00, 0.00, -0.00, -1.00, 608.1, 124.0)">o</text><text xml:space="preserve" font-family="Cantarell-Regular,Cantarell" font-size="32.0" fill="#D8D8D8" transform="matrix(1.00, 0.00, -0.00, -1.00, 627.0, 124.0)">t</text><text xml:space="preserve" font-family="Cantarell-Regular,Cantarell" font-size="32.0" fill="#D8D8D8" transform="matrix(1.00, 0.00, -0.00, -1.00, 639.1, 124.0)">h</text><text xml:space="preserve" font-family="Cantarell-Regular,Cantarell" font-size="32.0" fill="#D8D8D8" transform="matrix(1.00, 0.00, -0.00, -1.00, 657.7, 124.0)"> </text><text xml:space="preserve" font-family="Cantarell-Regular,Cantarell" font-size="32.0" fill="#D8D8D8" transform="matrix(1.00, 0.00, -0.00, -1.00, 666.5, 124.0)">-</text><text xml:space="preserve" font-family="Cantarell-Regular,Cantarell" font-size="32.0" fill="#D8D8D8" transform="matrix(1.00, 0.00, -0.00, -1.00, 685.4, 124.0)"> </text><text xml:space="preserve" font-family="Cantarell-Regular,Cantarell" font-size="32.0" fill="#D8D8D8" transform="matrix(1.00, 0.00, -0.00, -1.00, 694.1, 124.0)">$</text><text xml:space="preserve" font-family="Cantarell-Regular,Cantarell" font-size="32.0" fill="#D8D8D8" transform="matrix(1.00, 0.00, -0.00, -1.00, 712.9, 124.0)">2</text><text xml:space="preserve" font-family="Cantarell-Regular,Cantarell" font-size="32.0" fill="#D8D8D8" transform="matrix(1.00, 0.00, -0.00, -1.00, 733.2, 124.0)">0</text><text xml:space="preserve" font-family="Cantarell-Regular,Cantarell" font-size="32.0" fill="#D8D8D8" transform="matrix(1.00, 0.00, -0.00, -1.00, 753.5, 124.0)"> </text><text xml:space="preserve" font-family="ArialMT,Arial" font-size="32.0" fill="#009ED8" transform="matrix(1.00, 0.00, -0.00, -1.00, 474.3, 44.2)">•</text><text xml:space="preserve" font-family="Cantarell-Regular,Cantarell" font-size="32.0" fill="#D8D8D8" transform="matrix(1.00, 0.00, -0.00, -1.00, 494.7, 43.2)">P</text><text xml:space="preserve" font-family="Cantarell-Regular,Cantarell" font-size="32.0" fill="#D8D8D8" transform="matrix(1.00, 0.00, -0.00, -1.00, 515.6, 43.2)">l</text><text xml:space="preserve" font-family="Cantarell-Regular,Cantarell" font-size="32.0" fill="#D8D8D8" transform="matrix(1.00, 0.00, -0.00, -1.00, 524.5, 43.2)">a</text><text xml:space="preserve" font-family="Cantarell-Regular,Cantarell" font-size="32.0" fill="#D8D8D8" transform="matrix(1.00, 0.00, -0.00, -1.00, 541.2, 43.2)">s</text><text xml:space="preserve" font-family="Cantarell-Regular,Cantarell" font-size="32.0" fill="#D8D8D8" transform="matrix(1.00, 0.00, -0.00, -1.00, 557.0, 43.2)">t</text><text xml:space="preserve" font-family="Cantarell-Regular,Cantarell" font-size="32.0" fill="#D8D8D8" transform="matrix(1.00, 0.00, -0.00, -1.00, 569.2, 43.2)">i</text><text xml:space="preserve" font-family="Cantarell-Regular,Cantarell" font-size="32.0" fill="#D8D8D8" transform="matrix(1.00, 0.00, -0.00, -1.00, 577.3, 43.2)">c</text><text xml:space="preserve" font-family="Cantarell-Regular,Cantarell" font-size="32.0" fill="#D8D8D8" transform="matrix(1.00, 0.00, -0.00, -1.00, 593.0, 43.2)"> </text><text xml:space="preserve" font-family="Cantarell-Regular,Cantarell" font-size="32.0" fill="#D8D8D8" transform="matrix(1.00, 0.00, -0.00, -1.00, 601.7, 43.2)">f</text><text xml:space="preserve" font-family="Cantarell-Regular,Cantarell" font-size="32.0" fill="#D8D8D8" transform="matrix(1.00, 0.00, -0.00, -1.00, 614.6, 43.2)">l</text><text xml:space="preserve" font-family="Cantarell-Regular,Cantarell" font-size="32.0" fill="#D8D8D8" transform="matrix(1.00, 0.00, -0.00, -1.00, 623.4, 43.2)">y</text><text xml:space="preserve" font-family="Cantarell-Regular,Cantarell" font-size="32.0" fill="#D8D8D8" transform="matrix(1.00, 0.00, -0.00, -1.00, 639.9, 43.2)">e</text><text xml:space="preserve" font-family="Cantarell-Regular,Cantarell" font-size="32.0" fill="#D8D8D8" transform="matrix(1.00, 0.00, -0.00, -1.00, 657.2, 43.2)">r</text><text xml:space="preserve" font-family="Cantarell-Regular,Cantarell" font-size="32.0" fill="#D8D8D8" transform="matrix(1.00, 0.00, -0.00, -1.00, 669.7, 43.2)"> </text><text xml:space="preserve" font-family="Cantarell-Regular,Cantarell" font-size="32.0" fill="#D8D8D8" transform="matrix(1.00, 0.00, -0.00, -1.00, 678.4, 43.2)">s</text><text xml:space="preserve" font-family="Cantarell-Regular,Cantarell" font-size="32.0" fill="#D8D8D8" transform="matrix(1.00, 0.00, -0.00, -1.00, 694.3, 43.2)">t</text><text xml:space="preserve" font-family="Cantarell-Regular,Cantarell" font-size="32.0" fill="#D8D8D8" transform="matrix(1.00, 0.00, -0.00, -1.00, 706.4, 43.2)">a</text><text xml:space="preserve" font-family="Cantarell-Regular,Cantarell" font-size="32.0" fill="#D8D8D8" transform="matrix(1.00, 0.00, -0.00, -1.00, 723.1, 43.2)">n</text><text xml:space="preserve" font-family="Cantarell-Regular,Cantarell" font-size="32.0" fill="#D8D8D8" transform="matrix(1.00, 0.00, -0.00, -1.00, 741.5, 43.2)">d</text><text xml:space="preserve" font-family="Cantarell-Regular,Cantarell" font-size="32.0" fill="#D8D8D8" transform="matrix(1.00, 0.00, -0.00, -1.00, 760.1, 43.2)">s</text><text xml:space="preserve" font-family="Cantarell-Regular,Cantarell" font-size="32.0" fill="#D8D8D8" transform="matrix(1.00, 0.00, -0.00, -1.00, 776.0, 43.2)"> </text><text xml:space="preserve" font-family="Cantarell-Regular,Cantarell" font-size="32.0" fill="#D8D8D8" transform="matrix(1.00, 0.00, -0.00, -1.00, 784.7, 43.2)">-</text><text xml:space="preserve" font-family="Cantarell-Regular,Cantarell" font-size="32.0" fill="#D8D8D8" transform="matrix(1.00, 0.00, -0.00, -1.00, 803.6, 43.2)"> </text><text xml:space="preserve" font-family="Cantarell-Regular,Cantarell" font-size="32.0" fill="#D8D8D8" transform="matrix(1.00, 0.00, -0.00, -1.00, 812.4, 43.2)">$</text><text xml:space="preserve" font-family="Cantarell-Regular,Cantarell" font-size="32.0" fill="#D8D8D8" transform="matrix(1.00, 0.00, -0.00, -1.00, 831.1, 43.2)">1</text><text xml:space="preserve" font-family="Cantarell-Regular,Cantarell" font-size="32.0" fill="#D8D8D8" transform="matrix(1.00, 0.00, -0.00, -1.00, 851.5, 43.2)">2</text></g></svg>