<?xml version="1.0" encoding="UTF-8" standalone="no"?><svg xmlns="http://www.w3.org/2000/svg" xmlns:xlink="http://www.w3.org/1999/xlink" clip-rule="evenodd" stroke-miterlimit="10" viewBox="0 0 222 37"><desc>SVG generated by Keynote</desc><defs></defs><g transform="matrix(1.00, 0.00, -0.00, -1.00, 0.0, 37.0)"><text xml:space="preserve" font-family="ArialMT,Arial" font-size="32.0" fill="#009ED8" transform="matrix(1.00, 0.00, -0.00, -1.00, 0.3, 6.8)">•</text><text xml:space="preserve" font-family="Cantarell-Regular,Cantarell" font-size="32.0" fill="#D8D8D8" transform="matrix(1.00, 0.00, -0.00, -1.00, 20.7, 5.8)">B</text><text xml:space="preserve" font-family="Cantarell-Regular,Cantarell" font-size="32.0" fill="#D8D8D8" transform="matrix(1.00, 0.00, -0.00, -1.00, 43.0, 5.8)">a</text><text xml:space="preserve" font-family="Cantarell-Regular,Cantarell" font-size="32.0" fill="#D8D8D8" transform="matrix(1.00, 0.00, -0.00, -1.00, 59.7, 5.8)">n</text><text xml:space="preserve" font-family="Cantarell-Regular,Cantarell" font-size="32.0" fill="#D8D8D8" transform="matrix(1.00, 0.00, -0.00, -1.00, 78.1, 5.8)">n</text><text xml:space="preserve" font-family="Cantarell-Regular,Cantarell" font-size="32.0" fill="#D8D8D8" transform="matrix(1.00, 0.00, -0.00, -1.00, 96.4, 5.8)">e</text><text xml:space="preserve" font-family="Cantarell-Regular,Cantarell" font-size="32.0" fill="#D8D8D8" transform="matrix(1.00, 0.00, -0.00, -1.00, 113.7, 5.8)">r</text><text xml:space="preserve" font-family="Cantarell-Regular,Cantarell" font-size="32.0" fill="#D8D8D8" transform="matrix(1.00, 0.00, -0.00, -1.00, 126.2, 5.8)"> </text><text xml:space="preserve" font-family="Cantarell-Regular,Cantarell" font-size="32.0" fill="#D8D8D8" transform="matrix(1.00, 0.00, -0.00, -1.00, 134.9, 5.8)">-</text><text xml:space="preserve" font-family="Cantarell-Regular,Cantarell" font-size="32.0" fill="#D8D8D8" transform="matrix(1.00, 0.00, -0.00, -1.00, 153.8, 5.8)"> </text><text xml:space="preserve" font-family="Cantarell-Regular,Cantarell" font-size="32.0" fill="#D8D8D8" transform="matrix(1.00, 0.00, -0.00, -1.00, 162.6, 5.8)">$</text><text xml:space="preserve" font-family="Cantarell-Regular,Cantarell" font-size="32.0" fill="#D8D8D8" transform="matrix(1.00, 0.00, -0.00, -1.00, 181.4, 5.8)">6</text><text xml:space="preserve" font-family="Cantarell-Regular,Cantarell" font-size="32.0" fill="#D8D8D8" transform="matrix(1.00, 0.00, -0.00, -1.00, 201.7, 5.8)">0</text></g></svg>