<?xml version="1.0" encoding="UTF-8" standalone="no"?><svg xmlns="http://www.w3.org/2000/svg" xmlns:xlink="http://www.w3.org/1999/xlink" clip-rule="evenodd" stroke-miterlimit="10" viewBox="0 0 569 67"><desc>SVG generated by Keynote</desc><defs></defs><g transform="matrix(1.00, 0.00, -0.00, -1.00, 0.0, 67.0)"><text xml:space="preserve" font-family="Novecentosanswide-Medium,Novecento sans wide" font-size="80.0" fill="#FFFFFF" transform="matrix(1.00, 0.00, -0.00, -1.00, -3.4, 9.2)">M</text><text xml:space="preserve" font-family="Novecentosanswide-Medium,Novecento sans wide" font-size="80.0" fill="#FFFFFF" transform="matrix(1.00, 0.00, -0.00, -1.00, 61.1, 9.2)">a</text><text xml:space="preserve" font-family="Novecentosanswide-Medium,Novecento sans wide" font-size="80.0" fill="#FFFFFF" transform="matrix(1.00, 0.00, -0.00, -1.00, 102.0, 9.2)">t</text><text xml:space="preserve" font-family="Novecentosanswide-Medium,Novecento sans wide" font-size="80.0" fill="#FFFFFF" transform="matrix(1.00, 0.00, -0.00, -1.00, 146.3, 9.2)">e</text><text xml:space="preserve" font-family="Novecentosanswide-Medium,Novecento sans wide" font-size="80.0" fill="#FFFFFF" transform="matrix(1.00, 0.00, -0.00, -1.00, 188.8, 9.2)">r</text><text xml:space="preserve" font-family="Novecentosanswide-Medium,Novecento sans wide" font-size="80.0" fill="#FFFFFF" transform="matrix(1.00, 0.00, -0.00, -1.00, 232.8, 9.2)">i</text><text xml:space="preserve" font-family="Novecentosanswide-Medium,Novecento sans wide" font-size="80.0" fill="#FFFFFF" transform="matrix(1.00, 0.00, -0.00, -1.00, 252.3, 9.2)">a</text><text xml:space="preserve" font-family="Novecentosanswide-Medium,Novecento sans wide" font-size="80.0" fill="#FFFFFF" transform="matrix(1.00, 0.00, -0.00, -1.00, 300.7, 9.2)">l</text><text xml:space="preserve" font-family="Novecentosanswide-Medium,Novecento sans wide" font-size="80.0" fill="#FFFFFF" transform="matrix(1.00, 0.00, -0.00, -1.00, 339.6, 9.2)">s</text><text xml:space="preserve" font-family="Novecentosanswide-Medium,Novecento sans wide" font-size="80.0" fill="#FFFFFF" transform="matrix(1.00, 0.00, -0.00, -1.00, 380.7, 9.2)">:</text><text xml:space="preserve" font-family="Novecentosanswide-Medium,Novecento sans wide" font-size="80.0" fill="#FFFFFF" transform="matrix(1.00, 0.00, -0.00, -1.00, 400.2, 9.2)"> </text><text xml:space="preserve" font-family="Novecentosanswide-Medium,Novecento sans wide" font-size="80.0" fill="#FFFFFF" transform="matrix(1.00, 0.00, -0.00, -1.00, 420.2, 9.2)">$</text><text xml:space="preserve" font-family="Novecentosanswide-Medium,Novecento sans wide" font-size="80.0" fill="#FFFFFF" transform="matrix(1.00, 0.00, -0.00, -1.00, 458.8, 9.2)">1</text><text xml:space="preserve" font-family="Novecentosanswide-Medium,Novecento sans wide" font-size="80.0" fill="#FFFFFF" transform="matrix(1.00, 0.00, -0.00, -1.00, 487.6, 9.2)">0</text><text xml:space="preserve" font-family="Novecentosanswide-Medium,Novecento sans wide" font-size="80.0" fill="#FFFFFF" transform="matrix(1.00, 0.00, -0.00, -1.00, 529.8, 9.2)">7</text></g></svg>