<?xml version="1.0" encoding="UTF-8" standalone="no"?><svg xmlns="http://www.w3.org/2000/svg" xmlns:xlink="http://www.w3.org/1999/xlink" clip-rule="evenodd" stroke-miterlimit="10" viewBox="0 0 209 41"><desc>SVG generated by Keynote</desc><defs></defs><g transform="matrix(1.00, 0.00, -0.00, -1.00, 0.0, 41.0)"><text xml:space="preserve" font-family="ArialMT,Arial" font-size="32.0" fill="#009ED8" transform="matrix(1.00, 0.00, -0.00, -1.00, 0.7, 11.0)">•</text><text xml:space="preserve" font-family="Cantarell-Regular,Cantarell" font-size="32.0" fill="#D8D8D8" transform="matrix(1.00, 0.00, -0.00, -1.00, 21.1, 10.0)">C</text><text xml:space="preserve" font-family="Cantarell-Regular,Cantarell" font-size="32.0" fill="#D8D8D8" transform="matrix(1.00, 0.00, -0.00, -1.00, 43.8, 10.0)">a</text><text xml:space="preserve" font-family="Cantarell-Regular,Cantarell" font-size="32.0" fill="#D8D8D8" transform="matrix(1.00, 0.00, -0.00, -1.00, 60.5, 10.0)">n</text><text xml:space="preserve" font-family="Cantarell-Regular,Cantarell" font-size="32.0" fill="#D8D8D8" transform="matrix(1.00, 0.00, -0.00, -1.00, 78.9, 10.0)">d</text><text xml:space="preserve" font-family="Cantarell-Regular,Cantarell" font-size="32.0" fill="#D8D8D8" transform="matrix(1.00, 0.00, -0.00, -1.00, 97.4, 10.0)">y</text><text xml:space="preserve" font-family="Cantarell-Regular,Cantarell" font-size="32.0" fill="#D8D8D8" transform="matrix(1.00, 0.00, -0.00, -1.00, 114.0, 10.0)"> </text><text xml:space="preserve" font-family="Cantarell-Regular,Cantarell" font-size="32.0" fill="#D8D8D8" transform="matrix(1.00, 0.00, -0.00, -1.00, 122.7, 10.0)">-</text><text xml:space="preserve" font-family="Cantarell-Regular,Cantarell" font-size="32.0" fill="#D8D8D8" transform="matrix(1.00, 0.00, -0.00, -1.00, 141.6, 10.0)"> </text><text xml:space="preserve" font-family="Cantarell-Regular,Cantarell" font-size="32.0" fill="#D8D8D8" transform="matrix(1.00, 0.00, -0.00, -1.00, 150.4, 10.0)">$</text><text xml:space="preserve" font-family="Cantarell-Regular,Cantarell" font-size="32.0" fill="#D8D8D8" transform="matrix(1.00, 0.00, -0.00, -1.00, 169.2, 10.0)">1</text><text xml:space="preserve" font-family="Cantarell-Regular,Cantarell" font-size="32.0" fill="#D8D8D8" transform="matrix(1.00, 0.00, -0.00, -1.00, 189.5, 10.0)">5</text></g></svg>