<?xml version="1.0" encoding="UTF-8" standalone="no"?><svg xmlns="http://www.w3.org/2000/svg" xmlns:xlink="http://www.w3.org/1999/xlink" clip-rule="evenodd" stroke-miterlimit="10" viewBox="0 0 610 69"><desc>SVG generated by Keynote</desc><defs></defs><g transform="matrix(1.00, 0.00, -0.00, -1.00, 0.0, 69.0)"><text xml:space="preserve" font-family="Cantarell-Regular,Cantarell" font-size="68.0" fill="#01A1D6" transform="matrix(1.00, 0.00, -0.00, -1.00, -8.3, 16.2)">P</text><text xml:space="preserve" font-family="Cantarell-Regular,Cantarell" font-size="68.0" fill="#01A1D6" transform="matrix(1.00, 0.00, -0.00, -1.00, 36.2, 16.2)">a</text><text xml:space="preserve" font-family="Cantarell-Regular,Cantarell" font-size="68.0" fill="#01A1D6" transform="matrix(1.00, 0.00, -0.00, -1.00, 71.7, 16.2)">r</text><text xml:space="preserve" font-family="Cantarell-Regular,Cantarell" font-size="68.0" fill="#01A1D6" transform="matrix(1.00, 0.00, -0.00, -1.00, 98.3, 16.2)">t</text><text xml:space="preserve" font-family="Cantarell-Regular,Cantarell" font-size="68.0" fill="#01A1D6" transform="matrix(1.00, 0.00, -0.00, -1.00, 124.0, 16.2)"> </text><text xml:space="preserve" font-family="Cantarell-Regular,Cantarell" font-size="68.0" fill="#01A1D6" transform="matrix(1.00, 0.00, -0.00, -1.00, 142.7, 16.2)">1</text><text xml:space="preserve" font-family="Cantarell-Regular,Cantarell" font-size="68.0" fill="#01A1D6" transform="matrix(1.00, 0.00, -0.00, -1.00, 185.8, 16.2)">)</text><text xml:space="preserve" font-family="Cantarell-Regular,Cantarell" font-size="68.0" fill="#01A1D6" transform="matrix(1.00, 0.00, -0.00, -1.00, 210.5, 16.2)"> </text><text xml:space="preserve" font-family="Cantarell-Regular,Cantarell" font-size="68.0" fill="#01A1D6" transform="matrix(1.00, 0.00, -0.00, -1.00, 229.1, 16.2)">O</text><text xml:space="preserve" font-family="Cantarell-Regular,Cantarell" font-size="68.0" fill="#01A1D6" transform="matrix(1.00, 0.00, -0.00, -1.00, 285.1, 16.2)">U</text><text xml:space="preserve" font-family="Cantarell-Regular,Cantarell" font-size="68.0" fill="#01A1D6" transform="matrix(1.00, 0.00, -0.00, -1.00, 337.6, 16.2)">T</text><text xml:space="preserve" font-family="Cantarell-Regular,Cantarell" font-size="68.0" fill="#01A1D6" transform="matrix(1.00, 0.00, -0.00, -1.00, 377.8, 16.2)">R</text><text xml:space="preserve" font-family="Cantarell-Regular,Cantarell" font-size="68.0" fill="#01A1D6" transform="matrix(1.00, 0.00, -0.00, -1.00, 425.6, 16.2)">E</text><text xml:space="preserve" font-family="Cantarell-Regular,Cantarell" font-size="68.0" fill="#01A1D6" transform="matrix(1.00, 0.00, -0.00, -1.00, 468.2, 16.2)">A</text><text xml:space="preserve" font-family="Cantarell-Regular,Cantarell" font-size="68.0" fill="#01A1D6" transform="matrix(1.00, 0.00, -0.00, -1.00, 514.1, 16.2)">C</text><text xml:space="preserve" font-family="Cantarell-Regular,Cantarell" font-size="68.0" fill="#01A1D6" transform="matrix(1.00, 0.00, -0.00, -1.00, 562.3, 16.2)">H</text></g></svg>