<?xml version="1.0" encoding="UTF-8" standalone="no"?><svg xmlns="http://www.w3.org/2000/svg" xmlns:xlink="http://www.w3.org/1999/xlink" clip-rule="evenodd" stroke-miterlimit="10" viewBox="0 0 1013 45"><desc>SVG generated by Keynote</desc><defs></defs><g transform="matrix(1.00, 0.00, -0.00, -1.00, 0.0, 45.0)"><text xml:space="preserve" font-family="Cantarell-Regular,Cantarell" font-size="50.0" fill="#D8D8D8" transform="matrix(1.00, 0.00, -0.00, -1.00, -3.3, 6.7)">S</text><text xml:space="preserve" font-family="Cantarell-Regular,Cantarell" font-size="50.0" fill="#D8D8D8" transform="matrix(1.00, 0.00, -0.00, -1.00, 29.9, 6.7)">o</text><text xml:space="preserve" font-family="Cantarell-Regular,Cantarell" font-size="50.0" fill="#D8D8D8" transform="matrix(1.00, 0.00, -0.00, -1.00, 59.5, 6.7)">u</text><text xml:space="preserve" font-family="Cantarell-Regular,Cantarell" font-size="50.0" fill="#D8D8D8" transform="matrix(1.00, 0.00, -0.00, -1.00, 88.3, 6.7)">t</text><text xml:space="preserve" font-family="Cantarell-Regular,Cantarell" font-size="50.0" fill="#D8D8D8" transform="matrix(1.00, 0.00, -0.00, -1.00, 107.2, 6.7)">h</text><text xml:space="preserve" font-family="Cantarell-Regular,Cantarell" font-size="50.0" fill="#D8D8D8" transform="matrix(1.00, 0.00, -0.00, -1.00, 136.2, 6.7)">e</text><text xml:space="preserve" font-family="Cantarell-Regular,Cantarell" font-size="50.0" fill="#D8D8D8" transform="matrix(1.00, 0.00, -0.00, -1.00, 163.2, 6.7)">a</text><text xml:space="preserve" font-family="Cantarell-Regular,Cantarell" font-size="50.0" fill="#D8D8D8" transform="matrix(1.00, 0.00, -0.00, -1.00, 189.3, 6.7)">s</text><text xml:space="preserve" font-family="Cantarell-Regular,Cantarell" font-size="50.0" fill="#D8D8D8" transform="matrix(1.00, 0.00, -0.00, -1.00, 214.1, 6.7)">t</text><text xml:space="preserve" font-family="Cantarell-Regular,Cantarell" font-size="50.0" fill="#D8D8D8" transform="matrix(1.00, 0.00, -0.00, -1.00, 233.0, 6.7)"> </text><text xml:space="preserve" font-family="Cantarell-Regular,Cantarell" font-size="50.0" fill="#D8D8D8" transform="matrix(1.00, 0.00, -0.00, -1.00, 246.7, 6.7)">C</text><text xml:space="preserve" font-family="Cantarell-Regular,Cantarell" font-size="50.0" fill="#D8D8D8" transform="matrix(1.00, 0.00, -0.00, -1.00, 282.1, 6.7)">h</text><text xml:space="preserve" font-family="Cantarell-Regular,Cantarell" font-size="50.0" fill="#D8D8D8" transform="matrix(1.00, 0.00, -0.00, -1.00, 311.2, 6.7)">r</text><text xml:space="preserve" font-family="Cantarell-Regular,Cantarell" font-size="50.0" fill="#D8D8D8" transform="matrix(1.00, 0.00, -0.00, -1.00, 330.8, 6.7)">i</text><text xml:space="preserve" font-family="Cantarell-Regular,Cantarell" font-size="50.0" fill="#D8D8D8" transform="matrix(1.00, 0.00, -0.00, -1.00, 343.5, 6.7)">s</text><text xml:space="preserve" font-family="Cantarell-Regular,Cantarell" font-size="50.0" fill="#D8D8D8" transform="matrix(1.00, 0.00, -0.00, -1.00, 368.4, 6.7)">t</text><text xml:space="preserve" font-family="Cantarell-Regular,Cantarell" font-size="50.0" fill="#D8D8D8" transform="matrix(1.00, 0.00, -0.00, -1.00, 387.3, 6.7)">i</text><text xml:space="preserve" font-family="Cantarell-Regular,Cantarell" font-size="50.0" fill="#D8D8D8" transform="matrix(1.00, 0.00, -0.00, -1.00, 400.1, 6.7)">a</text><text xml:space="preserve" font-family="Cantarell-Regular,Cantarell" font-size="50.0" fill="#D8D8D8" transform="matrix(1.00, 0.00, -0.00, -1.00, 426.2, 6.7)">n</text><text xml:space="preserve" font-family="Cantarell-Regular,Cantarell" font-size="50.0" fill="#D8D8D8" transform="matrix(1.00, 0.00, -0.00, -1.00, 454.9, 6.7)"> </text><text xml:space="preserve" font-family="Cantarell-Regular,Cantarell" font-size="50.0" fill="#D8D8D8" transform="matrix(1.00, 0.00, -0.00, -1.00, 468.6, 6.7)">C</text><text xml:space="preserve" font-family="Cantarell-Regular,Cantarell" font-size="50.0" fill="#D8D8D8" transform="matrix(1.00, 0.00, -0.00, -1.00, 504.0, 6.7)">h</text><text xml:space="preserve" font-family="Cantarell-Regular,Cantarell" font-size="50.0" fill="#D8D8D8" transform="matrix(1.00, 0.00, -0.00, -1.00, 533.1, 6.7)">u</text><text xml:space="preserve" font-family="Cantarell-Regular,Cantarell" font-size="50.0" fill="#D8D8D8" transform="matrix(1.00, 0.00, -0.00, -1.00, 561.8, 6.7)">r</text><text xml:space="preserve" font-family="Cantarell-Regular,Cantarell" font-size="50.0" fill="#D8D8D8" transform="matrix(1.00, 0.00, -0.00, -1.00, 581.4, 6.7)">c</text><text xml:space="preserve" font-family="Cantarell-Regular,Cantarell" font-size="50.0" fill="#D8D8D8" transform="matrix(1.00, 0.00, -0.00, -1.00, 605.8, 6.7)">h</text><text xml:space="preserve" font-family="Cantarell-Regular,Cantarell" font-size="50.0" fill="#D8D8D8" transform="matrix(1.00, 0.00, -0.00, -1.00, 634.9, 6.7)"> </text><text xml:space="preserve" font-family="Cantarell-Regular,Cantarell" font-size="50.0" fill="#D8D8D8" transform="matrix(1.00, 0.00, -0.00, -1.00, 648.6, 6.7)">i</text><text xml:space="preserve" font-family="Cantarell-Regular,Cantarell" font-size="50.0" fill="#D8D8D8" transform="matrix(1.00, 0.00, -0.00, -1.00, 661.3, 6.7)">n</text><text xml:space="preserve" font-family="Cantarell-Regular,Cantarell" font-size="50.0" fill="#D8D8D8" transform="matrix(1.00, 0.00, -0.00, -1.00, 690.1, 6.7)"> </text><text xml:space="preserve" font-family="Cantarell-Regular,Cantarell" font-size="50.0" fill="#D8D8D8" transform="matrix(1.00, 0.00, -0.00, -1.00, 703.8, 6.7)">L</text><text xml:space="preserve" font-family="Cantarell-Regular,Cantarell" font-size="50.0" fill="#D8D8D8" transform="matrix(1.00, 0.00, -0.00, -1.00, 731.4, 6.7)">o</text><text xml:space="preserve" font-family="Cantarell-Regular,Cantarell" font-size="50.0" fill="#D8D8D8" transform="matrix(1.00, 0.00, -0.00, -1.00, 761.0, 6.7)">u</text><text xml:space="preserve" font-family="Cantarell-Regular,Cantarell" font-size="50.0" fill="#D8D8D8" transform="matrix(1.00, 0.00, -0.00, -1.00, 789.7, 6.7)">i</text><text xml:space="preserve" font-family="Cantarell-Regular,Cantarell" font-size="50.0" fill="#D8D8D8" transform="matrix(1.00, 0.00, -0.00, -1.00, 802.5, 6.7)">s</text><text xml:space="preserve" font-family="Cantarell-Regular,Cantarell" font-size="50.0" fill="#D8D8D8" transform="matrix(1.00, 0.00, -0.00, -1.00, 827.3, 6.7)">v</text><text xml:space="preserve" font-family="Cantarell-Regular,Cantarell" font-size="50.0" fill="#D8D8D8" transform="matrix(1.00, 0.00, -0.00, -1.00, 851.6, 6.7)">i</text><text xml:space="preserve" font-family="Cantarell-Regular,Cantarell" font-size="50.0" fill="#D8D8D8" transform="matrix(1.00, 0.00, -0.00, -1.00, 864.3, 6.7)">l</text><text xml:space="preserve" font-family="Cantarell-Regular,Cantarell" font-size="50.0" fill="#D8D8D8" transform="matrix(1.00, 0.00, -0.00, -1.00, 878.1, 6.7)">l</text><text xml:space="preserve" font-family="Cantarell-Regular,Cantarell" font-size="50.0" fill="#D8D8D8" transform="matrix(1.00, 0.00, -0.00, -1.00, 891.9, 6.7)">e</text><text xml:space="preserve" font-family="Cantarell-Regular,Cantarell" font-size="50.0" fill="#D8D8D8" transform="matrix(1.00, 0.00, -0.00, -1.00, 918.8, 6.7)">,</text><text xml:space="preserve" font-family="Cantarell-Regular,Cantarell" font-size="50.0" fill="#D8D8D8" transform="matrix(1.00, 0.00, -0.00, -1.00, 932.8, 6.7)"> </text><text xml:space="preserve" font-family="Cantarell-Regular,Cantarell" font-size="50.0" fill="#D8D8D8" transform="matrix(1.00, 0.00, -0.00, -1.00, 946.5, 6.7)">K</text><text xml:space="preserve" font-family="Cantarell-Regular,Cantarell" font-size="50.0" fill="#D8D8D8" transform="matrix(1.00, 0.00, -0.00, -1.00, 981.0, 6.7)">Y</text></g></svg>