<?xml version="1.0" encoding="UTF-8" standalone="no"?><svg xmlns="http://www.w3.org/2000/svg" xmlns:xlink="http://www.w3.org/1999/xlink" clip-rule="evenodd" stroke-miterlimit="10" viewBox="0 0 1017 887"><desc>SVG generated by Keynote</desc><defs></defs><g transform="matrix(1.00, 0.00, -0.00, -1.00, 0.0, 887.0)"><text xml:space="preserve" font-family="Novecentosanswide-Medium,Novecento sans wide" font-size="50.0" fill="#FEFFFF" transform="matrix(1.00, 0.00, -0.00, -1.00, 0.7, 850.2)">B</text><text xml:space="preserve" font-family="Novecentosanswide-Medium,Novecento sans wide" font-size="50.0" fill="#FEFFFF" transform="matrix(1.00, 0.00, -0.00, -1.00, 32.0, 850.2)">E</text><text xml:space="preserve" font-family="Novecentosanswide-Medium,Novecento sans wide" font-size="50.0" fill="#FEFFFF" transform="matrix(1.00, 0.00, -0.00, -1.00, 62.2, 850.2)">N</text><text xml:space="preserve" font-family="Novecentosanswide-Medium,Novecento sans wide" font-size="50.0" fill="#FEFFFF" transform="matrix(1.00, 0.00, -0.00, -1.00, 99.0, 850.2)"> </text><text xml:space="preserve" font-family="Novecentosanswide-Medium,Novecento sans wide" font-size="50.0" fill="#FEFFFF" transform="matrix(1.00, 0.00, -0.00, -1.00, 111.5, 850.2)">K</text><text xml:space="preserve" font-family="Novecentosanswide-Medium,Novecento sans wide" font-size="50.0" fill="#FEFFFF" transform="matrix(1.00, 0.00, -0.00, -1.00, 143.9, 850.2)">U</text><text xml:space="preserve" font-family="Novecentosanswide-Medium,Novecento sans wide" font-size="50.0" fill="#FEFFFF" transform="matrix(1.00, 0.00, -0.00, -1.00, 178.9, 850.2)">H</text><text xml:space="preserve" font-family="Novecentosanswide-Medium,Novecento sans wide" font-size="50.0" fill="#FEFFFF" transform="matrix(1.00, 0.00, -0.00, -1.00, 214.3, 850.2)">L</text><text xml:space="preserve" font-family="Cantarell-Regular,Cantarell" font-size="50.0" fill="#D8D8D8" transform="matrix(1.00, 0.00, -0.00, -1.00, 242.6, 850.2)"> </text><text xml:space="preserve" font-family="Cantarell-Regular,Cantarell" font-size="50.0" fill="#D8D8D8" transform="matrix(1.00, 0.00, -0.00, -1.00, 0.7, 752.9)">S</text><text xml:space="preserve" font-family="Cantarell-Regular,Cantarell" font-size="50.0" fill="#D8D8D8" transform="matrix(1.00, 0.00, -0.00, -1.00, 33.9, 752.9)">o</text><text xml:space="preserve" font-family="Cantarell-Regular,Cantarell" font-size="50.0" fill="#D8D8D8" transform="matrix(1.00, 0.00, -0.00, -1.00, 63.5, 752.9)">f</text><text xml:space="preserve" font-family="Cantarell-Regular,Cantarell" font-size="50.0" fill="#D8D8D8" transform="matrix(1.00, 0.00, -0.00, -1.00, 83.6, 752.9)">t</text><text xml:space="preserve" font-family="Cantarell-Regular,Cantarell" font-size="50.0" fill="#D8D8D8" transform="matrix(1.00, 0.00, -0.00, -1.00, 102.5, 752.9)">w</text><text xml:space="preserve" font-family="Cantarell-Regular,Cantarell" font-size="50.0" fill="#D8D8D8" transform="matrix(1.00, 0.00, -0.00, -1.00, 143.6, 752.9)">a</text><text xml:space="preserve" font-family="Cantarell-Regular,Cantarell" font-size="50.0" fill="#D8D8D8" transform="matrix(1.00, 0.00, -0.00, -1.00, 169.7, 752.9)">r</text><text xml:space="preserve" font-family="Cantarell-Regular,Cantarell" font-size="50.0" fill="#D8D8D8" transform="matrix(1.00, 0.00, -0.00, -1.00, 189.3, 752.9)">e</text><text xml:space="preserve" font-family="Cantarell-Regular,Cantarell" font-size="50.0" fill="#D8D8D8" transform="matrix(1.00, 0.00, -0.00, -1.00, 216.2, 752.9)"> </text><text xml:space="preserve" font-family="Cantarell-Regular,Cantarell" font-size="50.0" fill="#D8D8D8" transform="matrix(1.00, 0.00, -0.00, -1.00, 229.9, 752.9)">E</text><text xml:space="preserve" font-family="Cantarell-Regular,Cantarell" font-size="50.0" fill="#D8D8D8" transform="matrix(1.00, 0.00, -0.00, -1.00, 261.2, 752.9)">n</text><text xml:space="preserve" font-family="Cantarell-Regular,Cantarell" font-size="50.0" fill="#D8D8D8" transform="matrix(1.00, 0.00, -0.00, -1.00, 290.0, 752.9)">g</text><text xml:space="preserve" font-family="Cantarell-Regular,Cantarell" font-size="50.0" fill="#D8D8D8" transform="matrix(1.00, 0.00, -0.00, -1.00, 318.7, 752.9)">i</text><text xml:space="preserve" font-family="Cantarell-Regular,Cantarell" font-size="50.0" fill="#D8D8D8" transform="matrix(1.00, 0.00, -0.00, -1.00, 331.5, 752.9)">n</text><text xml:space="preserve" font-family="Cantarell-Regular,Cantarell" font-size="50.0" fill="#D8D8D8" transform="matrix(1.00, 0.00, -0.00, -1.00, 360.2, 752.9)">e</text><text xml:space="preserve" font-family="Cantarell-Regular,Cantarell" font-size="50.0" fill="#D8D8D8" transform="matrix(1.00, 0.00, -0.00, -1.00, 387.1, 752.9)">e</text><text xml:space="preserve" font-family="Cantarell-Regular,Cantarell" font-size="50.0" fill="#D8D8D8" transform="matrix(1.00, 0.00, -0.00, -1.00, 414.0, 752.9)">r</text><text xml:space="preserve" font-family="Cantarell-Regular,Cantarell" font-size="50.0" fill="#D8D8D8" transform="matrix(1.00, 0.00, -0.00, -1.00, 433.6, 752.9)"> </text><text xml:space="preserve" font-family="Cantarell-Regular,Cantarell" font-size="50.0" fill="#D8D8D8" transform="matrix(1.00, 0.00, -0.00, -1.00, 0.7, 645.9)">S</text><text xml:space="preserve" font-family="Cantarell-Regular,Cantarell" font-size="50.0" fill="#D8D8D8" transform="matrix(1.00, 0.00, -0.00, -1.00, 33.9, 645.9)">o</text><text xml:space="preserve" font-family="Cantarell-Regular,Cantarell" font-size="50.0" fill="#D8D8D8" transform="matrix(1.00, 0.00, -0.00, -1.00, 63.5, 645.9)">u</text><text xml:space="preserve" font-family="Cantarell-Regular,Cantarell" font-size="50.0" fill="#D8D8D8" transform="matrix(1.00, 0.00, -0.00, -1.00, 92.3, 645.9)">t</text><text xml:space="preserve" font-family="Cantarell-Regular,Cantarell" font-size="50.0" fill="#D8D8D8" transform="matrix(1.00, 0.00, -0.00, -1.00, 111.2, 645.9)">h</text><text xml:space="preserve" font-family="Cantarell-Regular,Cantarell" font-size="50.0" fill="#D8D8D8" transform="matrix(1.00, 0.00, -0.00, -1.00, 140.2, 645.9)">e</text><text xml:space="preserve" font-family="Cantarell-Regular,Cantarell" font-size="50.0" fill="#D8D8D8" transform="matrix(1.00, 0.00, -0.00, -1.00, 167.2, 645.9)">a</text><text xml:space="preserve" font-family="Cantarell-Regular,Cantarell" font-size="50.0" fill="#D8D8D8" transform="matrix(1.00, 0.00, -0.00, -1.00, 193.3, 645.9)">s</text><text xml:space="preserve" font-family="Cantarell-Regular,Cantarell" font-size="50.0" fill="#D8D8D8" transform="matrix(1.00, 0.00, -0.00, -1.00, 218.1, 645.9)">t</text><text xml:space="preserve" font-family="Cantarell-Regular,Cantarell" font-size="50.0" fill="#D8D8D8" transform="matrix(1.00, 0.00, -0.00, -1.00, 237.0, 645.9)"> </text><text xml:space="preserve" font-family="Cantarell-Regular,Cantarell" font-size="50.0" fill="#D8D8D8" transform="matrix(1.00, 0.00, -0.00, -1.00, 250.7, 645.9)">C</text><text xml:space="preserve" font-family="Cantarell-Regular,Cantarell" font-size="50.0" fill="#D8D8D8" transform="matrix(1.00, 0.00, -0.00, -1.00, 286.1, 645.9)">h</text><text xml:space="preserve" font-family="Cantarell-Regular,Cantarell" font-size="50.0" fill="#D8D8D8" transform="matrix(1.00, 0.00, -0.00, -1.00, 315.2, 645.9)">r</text><text xml:space="preserve" font-family="Cantarell-Regular,Cantarell" font-size="50.0" fill="#D8D8D8" transform="matrix(1.00, 0.00, -0.00, -1.00, 334.8, 645.9)">i</text><text xml:space="preserve" font-family="Cantarell-Regular,Cantarell" font-size="50.0" fill="#D8D8D8" transform="matrix(1.00, 0.00, -0.00, -1.00, 347.5, 645.9)">s</text><text xml:space="preserve" font-family="Cantarell-Regular,Cantarell" font-size="50.0" fill="#D8D8D8" transform="matrix(1.00, 0.00, -0.00, -1.00, 372.4, 645.9)">t</text><text xml:space="preserve" font-family="Cantarell-Regular,Cantarell" font-size="50.0" fill="#D8D8D8" transform="matrix(1.00, 0.00, -0.00, -1.00, 391.3, 645.9)">i</text><text xml:space="preserve" font-family="Cantarell-Regular,Cantarell" font-size="50.0" fill="#D8D8D8" transform="matrix(1.00, 0.00, -0.00, -1.00, 404.1, 645.9)">a</text><text xml:space="preserve" font-family="Cantarell-Regular,Cantarell" font-size="50.0" fill="#D8D8D8" transform="matrix(1.00, 0.00, -0.00, -1.00, 430.2, 645.9)">n</text><text xml:space="preserve" font-family="Cantarell-Regular,Cantarell" font-size="50.0" fill="#D8D8D8" transform="matrix(1.00, 0.00, -0.00, -1.00, 458.9, 645.9)"> </text><text xml:space="preserve" font-family="Cantarell-Regular,Cantarell" font-size="50.0" fill="#D8D8D8" transform="matrix(1.00, 0.00, -0.00, -1.00, 472.6, 645.9)">C</text><text xml:space="preserve" font-family="Cantarell-Regular,Cantarell" font-size="50.0" fill="#D8D8D8" transform="matrix(1.00, 0.00, -0.00, -1.00, 508.0, 645.9)">h</text><text xml:space="preserve" font-family="Cantarell-Regular,Cantarell" font-size="50.0" fill="#D8D8D8" transform="matrix(1.00, 0.00, -0.00, -1.00, 537.1, 645.9)">u</text><text xml:space="preserve" font-family="Cantarell-Regular,Cantarell" font-size="50.0" fill="#D8D8D8" transform="matrix(1.00, 0.00, -0.00, -1.00, 565.8, 645.9)">r</text><text xml:space="preserve" font-family="Cantarell-Regular,Cantarell" font-size="50.0" fill="#D8D8D8" transform="matrix(1.00, 0.00, -0.00, -1.00, 585.4, 645.9)">c</text><text xml:space="preserve" font-family="Cantarell-Regular,Cantarell" font-size="50.0" fill="#D8D8D8" transform="matrix(1.00, 0.00, -0.00, -1.00, 609.8, 645.9)">h</text><text xml:space="preserve" font-family="Cantarell-Regular,Cantarell" font-size="50.0" fill="#D8D8D8" transform="matrix(1.00, 0.00, -0.00, -1.00, 638.9, 645.9)"> </text><text xml:space="preserve" font-family="Cantarell-Regular,Cantarell" font-size="50.0" fill="#D8D8D8" transform="matrix(1.00, 0.00, -0.00, -1.00, 652.5, 645.9)">i</text><text xml:space="preserve" font-family="Cantarell-Regular,Cantarell" font-size="50.0" fill="#D8D8D8" transform="matrix(1.00, 0.00, -0.00, -1.00, 665.3, 645.9)">n</text><text xml:space="preserve" font-family="Cantarell-Regular,Cantarell" font-size="50.0" fill="#D8D8D8" transform="matrix(1.00, 0.00, -0.00, -1.00, 694.1, 645.9)"> </text><text xml:space="preserve" font-family="Cantarell-Regular,Cantarell" font-size="50.0" fill="#D8D8D8" transform="matrix(1.00, 0.00, -0.00, -1.00, 707.8, 645.9)">L</text><text xml:space="preserve" font-family="Cantarell-Regular,Cantarell" font-size="50.0" fill="#D8D8D8" transform="matrix(1.00, 0.00, -0.00, -1.00, 735.4, 645.9)">o</text><text xml:space="preserve" font-family="Cantarell-Regular,Cantarell" font-size="50.0" fill="#D8D8D8" transform="matrix(1.00, 0.00, -0.00, -1.00, 765.0, 645.9)">u</text><text xml:space="preserve" font-family="Cantarell-Regular,Cantarell" font-size="50.0" fill="#D8D8D8" transform="matrix(1.00, 0.00, -0.00, -1.00, 793.7, 645.9)">i</text><text xml:space="preserve" font-family="Cantarell-Regular,Cantarell" font-size="50.0" fill="#D8D8D8" transform="matrix(1.00, 0.00, -0.00, -1.00, 806.5, 645.9)">s</text><text xml:space="preserve" font-family="Cantarell-Regular,Cantarell" font-size="50.0" fill="#D8D8D8" transform="matrix(1.00, 0.00, -0.00, -1.00, 831.3, 645.9)">v</text><text xml:space="preserve" font-family="Cantarell-Regular,Cantarell" font-size="50.0" fill="#D8D8D8" transform="matrix(1.00, 0.00, -0.00, -1.00, 855.6, 645.9)">i</text><text xml:space="preserve" font-family="Cantarell-Regular,Cantarell" font-size="50.0" fill="#D8D8D8" transform="matrix(1.00, 0.00, -0.00, -1.00, 868.3, 645.9)">l</text><text xml:space="preserve" font-family="Cantarell-Regular,Cantarell" font-size="50.0" fill="#D8D8D8" transform="matrix(1.00, 0.00, -0.00, -1.00, 882.1, 645.9)">l</text><text xml:space="preserve" font-family="Cantarell-Regular,Cantarell" font-size="50.0" fill="#D8D8D8" transform="matrix(1.00, 0.00, -0.00, -1.00, 895.9, 645.9)">e</text><text xml:space="preserve" font-family="Cantarell-Regular,Cantarell" font-size="50.0" fill="#D8D8D8" transform="matrix(1.00, 0.00, -0.00, -1.00, 922.8, 645.9)">,</text><text xml:space="preserve" font-family="Cantarell-Regular,Cantarell" font-size="50.0" fill="#D8D8D8" transform="matrix(1.00, 0.00, -0.00, -1.00, 936.8, 645.9)"> </text><text xml:space="preserve" font-family="Cantarell-Regular,Cantarell" font-size="50.0" fill="#D8D8D8" transform="matrix(1.00, 0.00, -0.00, -1.00, 950.5, 645.9)">K</text><text xml:space="preserve" font-family="Cantarell-Regular,Cantarell" font-size="50.0" fill="#D8D8D8" transform="matrix(1.00, 0.00, -0.00, -1.00, 985.0, 645.9)">Y</text><text xml:space="preserve" font-family="Cantarell-Regular,Cantarell" font-size="50.0" fill="#D8D8D8" transform="matrix(1.00, 0.00, -0.00, -1.00, 1015.9, 645.9)"> </text><text xml:space="preserve" font-family="Novecentosanswide-Medium,Novecento sans wide" font-size="50.0" fill="#FEFFFF" transform="matrix(1.00, 0.00, -0.00, -1.00, 0.7, 433.2)">B</text><text xml:space="preserve" font-family="Novecentosanswide-Medium,Novecento sans wide" font-size="50.0" fill="#FEFFFF" transform="matrix(1.00, 0.00, -0.00, -1.00, 32.0, 433.2)">I</text><text xml:space="preserve" font-family="Novecentosanswide-Medium,Novecento sans wide" font-size="50.0" fill="#FEFFFF" transform="matrix(1.00, 0.00, -0.00, -1.00, 44.5, 433.2)">B</text><text xml:space="preserve" font-family="Novecentosanswide-Medium,Novecento sans wide" font-size="50.0" fill="#FEFFFF" transform="matrix(1.00, 0.00, -0.00, -1.00, 75.8, 433.2)">L</text><text xml:space="preserve" font-family="Novecentosanswide-Medium,Novecento sans wide" font-size="50.0" fill="#FEFFFF" transform="matrix(1.00, 0.00, -0.00, -1.00, 104.1, 433.2)">E</text><text xml:space="preserve" font-family="Novecentosanswide-Medium,Novecento sans wide" font-size="50.0" fill="#FEFFFF" transform="matrix(1.00, 0.00, -0.00, -1.00, 134.3, 433.2)"> </text><text xml:space="preserve" font-family="Novecentosanswide-Medium,Novecento sans wide" font-size="50.0" fill="#FEFFFF" transform="matrix(1.00, 0.00, -0.00, -1.00, 146.8, 433.2)">B</text><text xml:space="preserve" font-family="Novecentosanswide-Medium,Novecento sans wide" font-size="50.0" fill="#FEFFFF" transform="matrix(1.00, 0.00, -0.00, -1.00, 178.1, 433.2)">O</text><text xml:space="preserve" font-family="Novecentosanswide-Medium,Novecento sans wide" font-size="50.0" fill="#FEFFFF" transform="matrix(1.00, 0.00, -0.00, -1.00, 216.6, 433.2)">W</text><text xml:space="preserve" font-family="Novecentosanswide-Medium,Novecento sans wide" font-size="50.0" fill="#FEFFFF" transform="matrix(1.00, 0.00, -0.00, -1.00, 266.8, 433.2)">L</text><text xml:space="preserve" font-family="Novecentosanswide-Medium,Novecento sans wide" font-size="50.0" fill="#FEFFFF" transform="matrix(1.00, 0.00, -0.00, -1.00, 295.1, 433.2)"> </text><text xml:space="preserve" font-family="Novecentosanswide-Medium,Novecento sans wide" font-size="50.0" fill="#FEFFFF" transform="matrix(1.00, 0.00, -0.00, -1.00, 307.6, 433.2)">H</text><text xml:space="preserve" font-family="Novecentosanswide-Medium,Novecento sans wide" font-size="50.0" fill="#FEFFFF" transform="matrix(1.00, 0.00, -0.00, -1.00, 342.9, 433.2)">I</text><text xml:space="preserve" font-family="Novecentosanswide-Medium,Novecento sans wide" font-size="50.0" fill="#FEFFFF" transform="matrix(1.00, 0.00, -0.00, -1.00, 355.4, 433.2)">S</text><text xml:space="preserve" font-family="Novecentosanswide-Medium,Novecento sans wide" font-size="50.0" fill="#FEFFFF" transform="matrix(1.00, 0.00, -0.00, -1.00, 384.9, 433.2)">T</text><text xml:space="preserve" font-family="Novecentosanswide-Medium,Novecento sans wide" font-size="50.0" fill="#FEFFFF" transform="matrix(1.00, 0.00, -0.00, -1.00, 415.3, 433.2)">O</text><text xml:space="preserve" font-family="Novecentosanswide-Medium,Novecento sans wide" font-size="50.0" fill="#FEFFFF" transform="matrix(1.00, 0.00, -0.00, -1.00, 455.3, 433.2)">R</text><text xml:space="preserve" font-family="Novecentosanswide-Medium,Novecento sans wide" font-size="50.0" fill="#FEFFFF" transform="matrix(1.00, 0.00, -0.00, -1.00, 484.1, 433.2)">Y</text><text xml:space="preserve" font-family="Novecentosanswide-Medium,Novecento sans wide" font-size="50.0" fill="#D8D8D8" transform="matrix(1.00, 0.00, -0.00, -1.00, 517.9, 433.2)"> </text><text xml:space="preserve" font-family="ArialMT,Arial" font-size="50.0" fill="#009ED8" transform="matrix(1.00, 0.00, -0.00, -1.00, 0.7, 337.7)">•</text><text xml:space="preserve" font-family="Cantarell-Regular,Cantarell" font-size="50.0" fill="#D8D8D8" transform="matrix(1.00, 0.00, -0.00, -1.00, 18.2, 335.9)"> </text><text xml:space="preserve" font-family="Cantarell-Regular,Cantarell" font-size="50.0" fill="#D8D8D8" transform="matrix(1.00, 0.00, -0.00, -1.00, 31.9, 335.9)">P</text><text xml:space="preserve" font-family="Cantarell-Regular,Cantarell" font-size="50.0" fill="#D8D8D8" transform="matrix(1.00, 0.00, -0.00, -1.00, 64.6, 335.9)">l</text><text xml:space="preserve" font-family="Cantarell-Regular,Cantarell" font-size="50.0" fill="#D8D8D8" transform="matrix(1.00, 0.00, -0.00, -1.00, 78.4, 335.9)">a</text><text xml:space="preserve" font-family="Cantarell-Regular,Cantarell" font-size="50.0" fill="#D8D8D8" transform="matrix(1.00, 0.00, -0.00, -1.00, 104.5, 335.9)">y</text><text xml:space="preserve" font-family="Cantarell-Regular,Cantarell" font-size="50.0" fill="#D8D8D8" transform="matrix(1.00, 0.00, -0.00, -1.00, 130.4, 335.9)">e</text><text xml:space="preserve" font-family="Cantarell-Regular,Cantarell" font-size="50.0" fill="#D8D8D8" transform="matrix(1.00, 0.00, -0.00, -1.00, 157.3, 335.9)">d</text><text xml:space="preserve" font-family="Cantarell-Regular,Cantarell" font-size="50.0" fill="#D8D8D8" transform="matrix(1.00, 0.00, -0.00, -1.00, 186.3, 335.9)"> </text><text xml:space="preserve" font-family="Cantarell-Regular,Cantarell" font-size="50.0" fill="#D8D8D8" transform="matrix(1.00, 0.00, -0.00, -1.00, 200.0, 335.9)">f</text><text xml:space="preserve" font-family="Cantarell-Regular,Cantarell" font-size="50.0" fill="#D8D8D8" transform="matrix(1.00, 0.00, -0.00, -1.00, 220.0, 335.9)">o</text><text xml:space="preserve" font-family="Cantarell-Regular,Cantarell" font-size="50.0" fill="#D8D8D8" transform="matrix(1.00, 0.00, -0.00, -1.00, 249.6, 335.9)">r</text><text xml:space="preserve" font-family="Cantarell-Regular,Cantarell" font-size="50.0" fill="#D8D8D8" transform="matrix(1.00, 0.00, -0.00, -1.00, 269.2, 335.9)"> </text><text xml:space="preserve" font-family="Cantarell-Regular,Cantarell" font-size="50.0" fill="#D8D8D8" transform="matrix(1.00, 0.00, -0.00, -1.00, 282.8, 335.9)">2</text><text xml:space="preserve" font-family="Cantarell-Regular,Cantarell" font-size="50.0" fill="#D8D8D8" transform="matrix(1.00, 0.00, -0.00, -1.00, 314.6, 335.9)">.</text><text xml:space="preserve" font-family="Cantarell-Regular,Cantarell" font-size="50.0" fill="#D8D8D8" transform="matrix(1.00, 0.00, -0.00, -1.00, 328.5, 335.9)">5</text><text xml:space="preserve" font-family="Cantarell-Regular,Cantarell" font-size="50.0" fill="#D8D8D8" transform="matrix(1.00, 0.00, -0.00, -1.00, 360.2, 335.9)"> </text><text xml:space="preserve" font-family="Cantarell-Regular,Cantarell" font-size="50.0" fill="#D8D8D8" transform="matrix(1.00, 0.00, -0.00, -1.00, 373.9, 335.9)">y</text><text xml:space="preserve" font-family="Cantarell-Regular,Cantarell" font-size="50.0" fill="#D8D8D8" transform="matrix(1.00, 0.00, -0.00, -1.00, 399.8, 335.9)">e</text><text xml:space="preserve" font-family="Cantarell-Regular,Cantarell" font-size="50.0" fill="#D8D8D8" transform="matrix(1.00, 0.00, -0.00, -1.00, 426.7, 335.9)">a</text><text xml:space="preserve" font-family="Cantarell-Regular,Cantarell" font-size="50.0" fill="#D8D8D8" transform="matrix(1.00, 0.00, -0.00, -1.00, 452.8, 335.9)">r</text><text xml:space="preserve" font-family="Cantarell-Regular,Cantarell" font-size="50.0" fill="#D8D8D8" transform="matrix(1.00, 0.00, -0.00, -1.00, 472.4, 335.9)">s</text><text xml:space="preserve" font-family="Cantarell-Regular,Cantarell" font-size="50.0" fill="#D8D8D8" transform="matrix(1.00, 0.00, -0.00, -1.00, 497.2, 335.9)">,</text><text xml:space="preserve" font-family="Cantarell-Regular,Cantarell" font-size="50.0" fill="#D8D8D8" transform="matrix(1.00, 0.00, -0.00, -1.00, 511.1, 335.9)"> </text><text xml:space="preserve" font-family="Cantarell-Regular,Cantarell" font-size="50.0" fill="#D8D8D8" transform="matrix(1.00, 0.00, -0.00, -1.00, 524.8, 335.9)">s</text><text xml:space="preserve" font-family="Cantarell-Regular,Cantarell" font-size="50.0" fill="#D8D8D8" transform="matrix(1.00, 0.00, -0.00, -1.00, 549.6, 335.9)">i</text><text xml:space="preserve" font-family="Cantarell-Regular,Cantarell" font-size="50.0" fill="#D8D8D8" transform="matrix(1.00, 0.00, -0.00, -1.00, 562.4, 335.9)">b</text><text xml:space="preserve" font-family="Cantarell-Regular,Cantarell" font-size="50.0" fill="#D8D8D8" transform="matrix(1.00, 0.00, -0.00, -1.00, 591.2, 335.9)">l</text><text xml:space="preserve" font-family="Cantarell-Regular,Cantarell" font-size="50.0" fill="#D8D8D8" transform="matrix(1.00, 0.00, -0.00, -1.00, 605.0, 335.9)">i</text><text xml:space="preserve" font-family="Cantarell-Regular,Cantarell" font-size="50.0" fill="#D8D8D8" transform="matrix(1.00, 0.00, -0.00, -1.00, 617.8, 335.9)">n</text><text xml:space="preserve" font-family="Cantarell-Regular,Cantarell" font-size="50.0" fill="#D8D8D8" transform="matrix(1.00, 0.00, -0.00, -1.00, 646.5, 335.9)">g</text><text xml:space="preserve" font-family="Cantarell-Regular,Cantarell" font-size="50.0" fill="#D8D8D8" transform="matrix(1.00, 0.00, -0.00, -1.00, 675.3, 335.9)">s</text><text xml:space="preserve" font-family="Cantarell-Regular,Cantarell" font-size="50.0" fill="#D8D8D8" transform="matrix(1.00, 0.00, -0.00, -1.00, 700.1, 335.9)"> </text><text xml:space="preserve" font-family="Cantarell-Regular,Cantarell" font-size="50.0" fill="#D8D8D8" transform="matrix(1.00, 0.00, -0.00, -1.00, 713.8, 335.9)">p</text><text xml:space="preserve" font-family="Cantarell-Regular,Cantarell" font-size="50.0" fill="#D8D8D8" transform="matrix(1.00, 0.00, -0.00, -1.00, 742.5, 335.9)">l</text><text xml:space="preserve" font-family="Cantarell-Regular,Cantarell" font-size="50.0" fill="#D8D8D8" transform="matrix(1.00, 0.00, -0.00, -1.00, 756.3, 335.9)">a</text><text xml:space="preserve" font-family="Cantarell-Regular,Cantarell" font-size="50.0" fill="#D8D8D8" transform="matrix(1.00, 0.00, -0.00, -1.00, 782.4, 335.9)">y</text><text xml:space="preserve" font-family="Cantarell-Regular,Cantarell" font-size="50.0" fill="#D8D8D8" transform="matrix(1.00, 0.00, -0.00, -1.00, 808.2, 335.9)">e</text><text xml:space="preserve" font-family="Cantarell-Regular,Cantarell" font-size="50.0" fill="#D8D8D8" transform="matrix(1.00, 0.00, -0.00, -1.00, 835.1, 335.9)">d</text><text xml:space="preserve" font-family="Cantarell-Regular,Cantarell" font-size="50.0" fill="#D8D8D8" transform="matrix(1.00, 0.00, -0.00, -1.00, 864.2, 335.9)"> </text><text xml:space="preserve" font-family="ArialMT,Arial" font-size="50.0" fill="#009ED8" transform="matrix(1.00, 0.00, -0.00, -1.00, 0.7, 230.7)">•</text><text xml:space="preserve" font-family="Cantarell-Regular,Cantarell" font-size="50.0" fill="#D8D8D8" transform="matrix(1.00, 0.00, -0.00, -1.00, 18.2, 228.9)"> </text><text xml:space="preserve" font-family="Cantarell-Regular,Cantarell" font-size="50.0" fill="#D8D8D8" transform="matrix(1.00, 0.00, -0.00, -1.00, 31.9, 228.9)">S</text><text xml:space="preserve" font-family="Cantarell-Regular,Cantarell" font-size="50.0" fill="#D8D8D8" transform="matrix(1.00, 0.00, -0.00, -1.00, 65.1, 228.9)">p</text><text xml:space="preserve" font-family="Cantarell-Regular,Cantarell" font-size="50.0" fill="#D8D8D8" transform="matrix(1.00, 0.00, -0.00, -1.00, 93.9, 228.9)">o</text><text xml:space="preserve" font-family="Cantarell-Regular,Cantarell" font-size="50.0" fill="#D8D8D8" transform="matrix(1.00, 0.00, -0.00, -1.00, 123.4, 228.9)">n</text><text xml:space="preserve" font-family="Cantarell-Regular,Cantarell" font-size="50.0" fill="#D8D8D8" transform="matrix(1.00, 0.00, -0.00, -1.00, 152.2, 228.9)">s</text><text xml:space="preserve" font-family="Cantarell-Regular,Cantarell" font-size="50.0" fill="#D8D8D8" transform="matrix(1.00, 0.00, -0.00, -1.00, 177.0, 228.9)">o</text><text xml:space="preserve" font-family="Cantarell-Regular,Cantarell" font-size="50.0" fill="#D8D8D8" transform="matrix(1.00, 0.00, -0.00, -1.00, 206.6, 228.9)">r</text><text xml:space="preserve" font-family="Cantarell-Regular,Cantarell" font-size="50.0" fill="#D8D8D8" transform="matrix(1.00, 0.00, -0.00, -1.00, 226.1, 228.9)"> </text><text xml:space="preserve" font-family="Cantarell-Regular,Cantarell" font-size="50.0" fill="#D8D8D8" transform="matrix(1.00, 0.00, -0.00, -1.00, 239.8, 228.9)">f</text><text xml:space="preserve" font-family="Cantarell-Regular,Cantarell" font-size="50.0" fill="#D8D8D8" transform="matrix(1.00, 0.00, -0.00, -1.00, 259.9, 228.9)">o</text><text xml:space="preserve" font-family="Cantarell-Regular,Cantarell" font-size="50.0" fill="#D8D8D8" transform="matrix(1.00, 0.00, -0.00, -1.00, 289.4, 228.9)">r</text><text xml:space="preserve" font-family="Cantarell-Regular,Cantarell" font-size="50.0" fill="#D8D8D8" transform="matrix(1.00, 0.00, -0.00, -1.00, 309.0, 228.9)"> </text><text xml:space="preserve" font-family="Cantarell-Regular,Cantarell" font-size="50.0" fill="#D8D8D8" transform="matrix(1.00, 0.00, -0.00, -1.00, 322.7, 228.9)">2</text><text xml:space="preserve" font-family="Cantarell-Regular,Cantarell" font-size="50.0" fill="#D8D8D8" transform="matrix(1.00, 0.00, -0.00, -1.00, 354.4, 228.9)"> </text><text xml:space="preserve" font-family="Cantarell-Regular,Cantarell" font-size="50.0" fill="#D8D8D8" transform="matrix(1.00, 0.00, -0.00, -1.00, 368.1, 228.9)">y</text><text xml:space="preserve" font-family="Cantarell-Regular,Cantarell" font-size="50.0" fill="#D8D8D8" transform="matrix(1.00, 0.00, -0.00, -1.00, 394.0, 228.9)">e</text><text xml:space="preserve" font-family="Cantarell-Regular,Cantarell" font-size="50.0" fill="#D8D8D8" transform="matrix(1.00, 0.00, -0.00, -1.00, 420.9, 228.9)">a</text><text xml:space="preserve" font-family="Cantarell-Regular,Cantarell" font-size="50.0" fill="#D8D8D8" transform="matrix(1.00, 0.00, -0.00, -1.00, 447.0, 228.9)">r</text><text xml:space="preserve" font-family="Cantarell-Regular,Cantarell" font-size="50.0" fill="#D8D8D8" transform="matrix(1.00, 0.00, -0.00, -1.00, 466.5, 228.9)">s</text><text xml:space="preserve" font-family="Cantarell-Regular,Cantarell" font-size="50.0" fill="#D8D8D8" transform="matrix(1.00, 0.00, -0.00, -1.00, 491.3, 228.9)"> </text><text xml:space="preserve" font-family="ArialMT,Arial" font-size="50.0" fill="#009ED8" transform="matrix(1.00, 0.00, -0.00, -1.00, 0.7, 123.7)">•</text><text xml:space="preserve" font-family="Cantarell-Regular,Cantarell" font-size="50.0" fill="#D8D8D8" transform="matrix(1.00, 0.00, -0.00, -1.00, 18.2, 121.9)"> </text><text xml:space="preserve" font-family="Cantarell-Regular,Cantarell" font-size="50.0" fill="#D8D8D8" transform="matrix(1.00, 0.00, -0.00, -1.00, 31.9, 121.9)">P</text><text xml:space="preserve" font-family="Cantarell-Regular,Cantarell" font-size="50.0" fill="#D8D8D8" transform="matrix(1.00, 0.00, -0.00, -1.00, 64.6, 121.9)">r</text><text xml:space="preserve" font-family="Cantarell-Regular,Cantarell" font-size="50.0" fill="#D8D8D8" transform="matrix(1.00, 0.00, -0.00, -1.00, 84.2, 121.9)">o</text><text xml:space="preserve" font-family="Cantarell-Regular,Cantarell" font-size="50.0" fill="#D8D8D8" transform="matrix(1.00, 0.00, -0.00, -1.00, 113.8, 121.9)">g</text><text xml:space="preserve" font-family="Cantarell-Regular,Cantarell" font-size="50.0" fill="#D8D8D8" transform="matrix(1.00, 0.00, -0.00, -1.00, 142.5, 121.9)">r</text><text xml:space="preserve" font-family="Cantarell-Regular,Cantarell" font-size="50.0" fill="#D8D8D8" transform="matrix(1.00, 0.00, -0.00, -1.00, 162.0, 121.9)">a</text><text xml:space="preserve" font-family="Cantarell-Regular,Cantarell" font-size="50.0" fill="#D8D8D8" transform="matrix(1.00, 0.00, -0.00, -1.00, 188.1, 121.9)">m</text><text xml:space="preserve" font-family="Cantarell-Regular,Cantarell" font-size="50.0" fill="#D8D8D8" transform="matrix(1.00, 0.00, -0.00, -1.00, 230.5, 121.9)"> </text><text xml:space="preserve" font-family="Cantarell-Regular,Cantarell" font-size="50.0" fill="#D8D8D8" transform="matrix(1.00, 0.00, -0.00, -1.00, 244.2, 121.9)">D</text><text xml:space="preserve" font-family="Cantarell-Regular,Cantarell" font-size="50.0" fill="#D8D8D8" transform="matrix(1.00, 0.00, -0.00, -1.00, 283.4, 121.9)">i</text><text xml:space="preserve" font-family="Cantarell-Regular,Cantarell" font-size="50.0" fill="#D8D8D8" transform="matrix(1.00, 0.00, -0.00, -1.00, 296.2, 121.9)">r</text><text xml:space="preserve" font-family="Cantarell-Regular,Cantarell" font-size="50.0" fill="#D8D8D8" transform="matrix(1.00, 0.00, -0.00, -1.00, 315.7, 121.9)">e</text><text xml:space="preserve" font-family="Cantarell-Regular,Cantarell" font-size="50.0" fill="#D8D8D8" transform="matrix(1.00, 0.00, -0.00, -1.00, 342.6, 121.9)">c</text><text xml:space="preserve" font-family="Cantarell-Regular,Cantarell" font-size="50.0" fill="#D8D8D8" transform="matrix(1.00, 0.00, -0.00, -1.00, 367.1, 121.9)">t</text><text xml:space="preserve" font-family="Cantarell-Regular,Cantarell" font-size="50.0" fill="#D8D8D8" transform="matrix(1.00, 0.00, -0.00, -1.00, 386.0, 121.9)">o</text><text xml:space="preserve" font-family="Cantarell-Regular,Cantarell" font-size="50.0" fill="#D8D8D8" transform="matrix(1.00, 0.00, -0.00, -1.00, 415.6, 121.9)">r</text><text xml:space="preserve" font-family="Cantarell-Regular,Cantarell" font-size="50.0" fill="#D8D8D8" transform="matrix(1.00, 0.00, -0.00, -1.00, 435.1, 121.9)"> </text><text xml:space="preserve" font-family="Cantarell-Regular,Cantarell" font-size="50.0" fill="#D8D8D8" transform="matrix(1.00, 0.00, -0.00, -1.00, 448.8, 121.9)">f</text><text xml:space="preserve" font-family="Cantarell-Regular,Cantarell" font-size="50.0" fill="#D8D8D8" transform="matrix(1.00, 0.00, -0.00, -1.00, 468.9, 121.9)">o</text><text xml:space="preserve" font-family="Cantarell-Regular,Cantarell" font-size="50.0" fill="#D8D8D8" transform="matrix(1.00, 0.00, -0.00, -1.00, 498.5, 121.9)">r</text><text xml:space="preserve" font-family="Cantarell-Regular,Cantarell" font-size="50.0" fill="#D8D8D8" transform="matrix(1.00, 0.00, -0.00, -1.00, 518.0, 121.9)"> </text><text xml:space="preserve" font-family="Cantarell-Regular,Cantarell" font-size="50.0" fill="#D8D8D8" transform="matrix(1.00, 0.00, -0.00, -1.00, 531.7, 121.9)">4</text><text xml:space="preserve" font-family="Cantarell-Regular,Cantarell" font-size="50.0" fill="#D8D8D8" transform="matrix(1.00, 0.00, -0.00, -1.00, 563.4, 121.9)"> </text><text xml:space="preserve" font-family="Cantarell-Regular,Cantarell" font-size="50.0" fill="#D8D8D8" transform="matrix(1.00, 0.00, -0.00, -1.00, 577.1, 121.9)">y</text><text xml:space="preserve" font-family="Cantarell-Regular,Cantarell" font-size="50.0" fill="#D8D8D8" transform="matrix(1.00, 0.00, -0.00, -1.00, 603.0, 121.9)">e</text><text xml:space="preserve" font-family="Cantarell-Regular,Cantarell" font-size="50.0" fill="#D8D8D8" transform="matrix(1.00, 0.00, -0.00, -1.00, 629.9, 121.9)">a</text><text xml:space="preserve" font-family="Cantarell-Regular,Cantarell" font-size="50.0" fill="#D8D8D8" transform="matrix(1.00, 0.00, -0.00, -1.00, 656.0, 121.9)">r</text><text xml:space="preserve" font-family="Cantarell-Regular,Cantarell" font-size="50.0" fill="#D8D8D8" transform="matrix(1.00, 0.00, -0.00, -1.00, 675.6, 121.9)">s</text><text xml:space="preserve" font-family="Cantarell-Regular,Cantarell" font-size="50.0" fill="#D8D8D8" transform="matrix(1.00, 0.00, -0.00, -1.00, 700.4, 121.9)"> </text><text xml:space="preserve" font-family="ArialMT,Arial" font-size="50.0" fill="#009ED8" transform="matrix(1.00, 0.00, -0.00, -1.00, 0.7, 16.7)">•</text><text xml:space="preserve" font-family="Cantarell-Regular,Cantarell" font-size="50.0" fill="#D8D8D8" transform="matrix(1.00, 0.00, -0.00, -1.00, 18.2, 14.9)"> </text><text xml:space="preserve" font-family="Cantarell-Regular,Cantarell" font-size="50.0" fill="#D8D8D8" transform="matrix(1.00, 0.00, -0.00, -1.00, 31.9, 14.9)">R</text><text xml:space="preserve" font-family="Cantarell-Regular,Cantarell" font-size="50.0" fill="#D8D8D8" transform="matrix(1.00, 0.00, -0.00, -1.00, 67.1, 14.9)">o</text><text xml:space="preserve" font-family="Cantarell-Regular,Cantarell" font-size="50.0" fill="#D8D8D8" transform="matrix(1.00, 0.00, -0.00, -1.00, 96.6, 14.9)">u</text><text xml:space="preserve" font-family="Cantarell-Regular,Cantarell" font-size="50.0" fill="#D8D8D8" transform="matrix(1.00, 0.00, -0.00, -1.00, 125.4, 14.9)">n</text><text xml:space="preserve" font-family="Cantarell-Regular,Cantarell" font-size="50.0" fill="#D8D8D8" transform="matrix(1.00, 0.00, -0.00, -1.00, 154.1, 14.9)">d</text><text xml:space="preserve" font-family="Cantarell-Regular,Cantarell" font-size="50.0" fill="#D8D8D8" transform="matrix(1.00, 0.00, -0.00, -1.00, 183.1, 14.9)"> </text><text xml:space="preserve" font-family="Cantarell-Regular,Cantarell" font-size="50.0" fill="#D8D8D8" transform="matrix(1.00, 0.00, -0.00, -1.00, 196.8, 14.9)">R</text><text xml:space="preserve" font-family="Cantarell-Regular,Cantarell" font-size="50.0" fill="#D8D8D8" transform="matrix(1.00, 0.00, -0.00, -1.00, 231.9, 14.9)">o</text><text xml:space="preserve" font-family="Cantarell-Regular,Cantarell" font-size="50.0" fill="#D8D8D8" transform="matrix(1.00, 0.00, -0.00, -1.00, 261.5, 14.9)">b</text><text xml:space="preserve" font-family="Cantarell-Regular,Cantarell" font-size="50.0" fill="#D8D8D8" transform="matrix(1.00, 0.00, -0.00, -1.00, 290.3, 14.9)">i</text><text xml:space="preserve" font-family="Cantarell-Regular,Cantarell" font-size="50.0" fill="#D8D8D8" transform="matrix(1.00, 0.00, -0.00, -1.00, 303.1, 14.9)">n</text><text xml:space="preserve" font-family="Cantarell-Regular,Cantarell" font-size="50.0" fill="#D8D8D8" transform="matrix(1.00, 0.00, -0.00, -1.00, 331.8, 14.9)"> </text><text xml:space="preserve" font-family="Cantarell-Regular,Cantarell" font-size="50.0" fill="#D8D8D8" transform="matrix(1.00, 0.00, -0.00, -1.00, 345.5, 14.9)">C</text><text xml:space="preserve" font-family="Cantarell-Regular,Cantarell" font-size="50.0" fill="#D8D8D8" transform="matrix(1.00, 0.00, -0.00, -1.00, 381.0, 14.9)">o</text><text xml:space="preserve" font-family="Cantarell-Regular,Cantarell" font-size="50.0" fill="#D8D8D8" transform="matrix(1.00, 0.00, -0.00, -1.00, 410.6, 14.9)">o</text><text xml:space="preserve" font-family="Cantarell-Regular,Cantarell" font-size="50.0" fill="#D8D8D8" transform="matrix(1.00, 0.00, -0.00, -1.00, 440.1, 14.9)">r</text><text xml:space="preserve" font-family="Cantarell-Regular,Cantarell" font-size="50.0" fill="#D8D8D8" transform="matrix(1.00, 0.00, -0.00, -1.00, 459.7, 14.9)">d</text><text xml:space="preserve" font-family="Cantarell-Regular,Cantarell" font-size="50.0" fill="#D8D8D8" transform="matrix(1.00, 0.00, -0.00, -1.00, 488.7, 14.9)">i</text><text xml:space="preserve" font-family="Cantarell-Regular,Cantarell" font-size="50.0" fill="#D8D8D8" transform="matrix(1.00, 0.00, -0.00, -1.00, 501.5, 14.9)">n</text><text xml:space="preserve" font-family="Cantarell-Regular,Cantarell" font-size="50.0" fill="#D8D8D8" transform="matrix(1.00, 0.00, -0.00, -1.00, 530.2, 14.9)">a</text><text xml:space="preserve" font-family="Cantarell-Regular,Cantarell" font-size="50.0" fill="#D8D8D8" transform="matrix(1.00, 0.00, -0.00, -1.00, 556.3, 14.9)">t</text><text xml:space="preserve" font-family="Cantarell-Regular,Cantarell" font-size="50.0" fill="#D8D8D8" transform="matrix(1.00, 0.00, -0.00, -1.00, 575.3, 14.9)">o</text><text xml:space="preserve" font-family="Cantarell-Regular,Cantarell" font-size="50.0" fill="#D8D8D8" transform="matrix(1.00, 0.00, -0.00, -1.00, 604.8, 14.9)">r</text><text xml:space="preserve" font-family="Cantarell-Regular,Cantarell" font-size="50.0" fill="#D8D8D8" transform="matrix(1.00, 0.00, -0.00, -1.00, 624.4, 14.9)"> </text><text xml:space="preserve" font-family="Cantarell-Regular,Cantarell" font-size="50.0" fill="#D8D8D8" transform="matrix(1.00, 0.00, -0.00, -1.00, 638.1, 14.9)">f</text><text xml:space="preserve" font-family="Cantarell-Regular,Cantarell" font-size="50.0" fill="#D8D8D8" transform="matrix(1.00, 0.00, -0.00, -1.00, 658.1, 14.9)">o</text><text xml:space="preserve" font-family="Cantarell-Regular,Cantarell" font-size="50.0" fill="#D8D8D8" transform="matrix(1.00, 0.00, -0.00, -1.00, 687.7, 14.9)">r</text><text xml:space="preserve" font-family="Cantarell-Regular,Cantarell" font-size="50.0" fill="#D8D8D8" transform="matrix(1.00, 0.00, -0.00, -1.00, 707.3, 14.9)"> </text><text xml:space="preserve" font-family="Cantarell-Regular,Cantarell" font-size="50.0" fill="#D8D8D8" transform="matrix(1.00, 0.00, -0.00, -1.00, 721.0, 14.9)">1</text><text xml:space="preserve" font-family="Cantarell-Regular,Cantarell" font-size="50.0" fill="#D8D8D8" transform="matrix(1.00, 0.00, -0.00, -1.00, 752.7, 14.9)"> </text><text xml:space="preserve" font-family="Cantarell-Regular,Cantarell" font-size="50.0" fill="#D8D8D8" transform="matrix(1.00, 0.00, -0.00, -1.00, 766.4, 14.9)">y</text><text xml:space="preserve" font-family="Cantarell-Regular,Cantarell" font-size="50.0" fill="#D8D8D8" transform="matrix(1.00, 0.00, -0.00, -1.00, 792.2, 14.9)">e</text><text xml:space="preserve" font-family="Cantarell-Regular,Cantarell" font-size="50.0" fill="#D8D8D8" transform="matrix(1.00, 0.00, -0.00, -1.00, 819.2, 14.9)">a</text><text xml:space="preserve" font-family="Cantarell-Regular,Cantarell" font-size="50.0" fill="#D8D8D8" transform="matrix(1.00, 0.00, -0.00, -1.00, 845.3, 14.9)">r</text></g></svg>