<?xml version="1.0" encoding="UTF-8" standalone="no"?><svg xmlns="http://www.w3.org/2000/svg" xmlns:xlink="http://www.w3.org/1999/xlink" clip-rule="evenodd" stroke-miterlimit="10" viewBox="0 0 2048 1536"><desc>SVG generated by Keynote</desc><defs></defs><g transform="matrix(1.00, 0.00, -0.00, -1.00, 0.0, 1536.0)"><g><clipPath id="clip0x7fac75cf8460"><path d="M 0.0 1536.0 L 2048.0 1536.0 L 2048.0 0.0 L 0.0 0.0 Z M 0.0 1536.0 "></path></clipPath><g clip-path="url(#clip0x7fac75cf8460)"><image xlink:href="../../10608769-753F-4634-8741-A78A32A9A97F/assets/6226BCCF418C71F3710EAD4022AB8668.jpeg" width="2048.00" height="1536.00" transform="matrix(1.00, 0.00, -0.00, -1.00, 0.0, 1536.0)"></image></g></g><g><clipPath id="clip0x7fac75cfb110"><path d="M 1888.1 60.7 L 1978.8 60.7 L 1978.8 151.4 L 1888.1 151.4 Z M 1888.1 60.7 "></path></clipPath><g clip-path="url(#clip0x7fac75cfb110)"><path d="M 1964.8 137.4 C 1982.1 120.1 1982.1 92.1 1964.8 74.7 C 1947.5 57.4 1919.4 57.4 1902.1 74.7 C 1884.8 92.1 1884.8 120.1 1902.1 137.4 C 1919.4 154.8 1947.5 154.8 1964.8 137.4 " fill="#10ABC8"></path></g></g><g><clipPath id="clip0x7fac76201100"><path d="M 1930.4 81.8 L 1906.2 106.0 L 1930.4 130.2 L 1954.6 106.0 Z M 1930.4 81.8 "></path></clipPath><g clip-path="url(#clip0x7fac76201100)"><path d="M 1930.4 83.2 L 1923.8 89.8 L 1940.6 106.6 L 1924.4 122.9 L 1930.4 128.8 L 1953.2 106.0 Z M 1930.4 83.2 " fill="#FEFFFF"></path></g></g><g><clipPath id="clip0x7fac762022f0"><path d="M 1770.6 60.7 L 1861.3 60.7 L 1861.3 151.4 L 1770.6 151.4 Z M 1770.6 60.7 "></path></clipPath><g clip-path="url(#clip0x7fac762022f0)"><path d="M 1847.3 137.4 C 1864.6 120.1 1864.6 92.1 1847.3 74.7 C 1830.0 57.4 1801.9 57.4 1784.6 74.7 C 1767.2 92.1 1767.2 120.1 1784.6 137.4 C 1801.9 154.8 1830.0 154.8 1847.3 137.4 " fill="#10ABC8"></path></g></g><g><clipPath id="clip0x7fac76203240"><path d="M 1817.5 130.2 L 1841.7 106.0 L 1817.5 81.8 L 1793.3 106.0 Z M 1817.5 130.2 "></path></clipPath><g clip-path="url(#clip0x7fac76203240)"><path d="M 1817.5 128.8 L 1824.1 122.3 L 1807.3 105.4 L 1823.5 89.2 L 1817.5 83.2 L 1794.7 106.0 Z M 1817.5 128.8 " fill="#FEFFFF"></path></g></g><text xml:space="preserve" font-family="Novecentosanswide-Medium,Novecento sans wide" font-size="112.0" fill="#FEFFFF" transform="matrix(1.00, 0.00, -0.00, -1.00, 152.3, 1350.0)">W</text><text xml:space="preserve" font-family="Novecentosanswide-Medium,Novecento sans wide" font-size="112.0" fill="#FEFFFF" transform="matrix(1.00, 0.00, -0.00, -1.00, 260.5, 1350.0)">H</text><text xml:space="preserve" font-family="Novecentosanswide-Medium,Novecento sans wide" font-size="112.0" fill="#FEFFFF" transform="matrix(1.00, 0.00, -0.00, -1.00, 335.5, 1350.0)">A</text><text xml:space="preserve" font-family="Novecentosanswide-Medium,Novecento sans wide" font-size="112.0" fill="#FEFFFF" transform="matrix(1.00, 0.00, -0.00, -1.00, 401.9, 1350.0)">T</text><text xml:space="preserve" font-family="Novecentosanswide-Medium,Novecento sans wide" font-size="112.0" fill="#FEFFFF" transform="matrix(1.00, 0.00, -0.00, -1.00, 469.8, 1350.0)"> </text><text xml:space="preserve" font-family="Novecentosanswide-DemiBold,Novecento sans wide" font-weight="bold" font-size="112.0" fill="#01A1D6" transform="matrix(1.00, 0.00, -0.00, -1.00, 493.6, 1350.0)">A</text><text xml:space="preserve" font-family="Novecentosanswide-DemiBold,Novecento sans wide" font-weight="bold" font-size="112.0" fill="#01A1D6" transform="matrix(1.00, 0.00, -0.00, -1.00, 573.3, 1350.0)">R</text><text xml:space="preserve" font-family="Novecentosanswide-DemiBold,Novecento sans wide" font-weight="bold" font-size="112.0" fill="#01A1D6" transform="matrix(1.00, 0.00, -0.00, -1.00, 639.8, 1350.0)">E</text><text xml:space="preserve" font-family="Novecentosanswide-DemiBold,Novecento sans wide" font-weight="bold" font-size="112.0" fill="#01A1D6" transform="matrix(1.00, 0.00, -0.00, -1.00, 703.8, 1350.0)"> </text><text xml:space="preserve" font-family="Novecentosanswide-DemiBold,Novecento sans wide" font-weight="bold" font-size="112.0" fill="#01A1D6" transform="matrix(1.00, 0.00, -0.00, -1.00, 727.6, 1350.0)">Y</text><text xml:space="preserve" font-family="Novecentosanswide-DemiBold,Novecento sans wide" font-weight="bold" font-size="112.0" fill="#01A1D6" transform="matrix(1.00, 0.00, -0.00, -1.00, 795.5, 1350.0)">O</text><text xml:space="preserve" font-family="Novecentosanswide-DemiBold,Novecento sans wide" font-weight="bold" font-size="112.0" fill="#01A1D6" transform="matrix(1.00, 0.00, -0.00, -1.00, 881.3, 1350.0)">U</text><text xml:space="preserve" font-family="Novecentosanswide-DemiBold,Novecento sans wide" font-weight="bold" font-size="112.0" fill="#01A1D6" transform="matrix(1.00, 0.00, -0.00, -1.00, 956.1, 1350.0)"> </text><text xml:space="preserve" font-family="Novecentosanswide-DemiBold,Novecento sans wide" font-weight="bold" font-size="112.0" fill="#01A1D6" transform="matrix(1.00, 0.00, -0.00, -1.00, 979.9, 1350.0)">T</text><text xml:space="preserve" font-family="Novecentosanswide-DemiBold,Novecento sans wide" font-weight="bold" font-size="112.0" fill="#01A1D6" transform="matrix(1.00, 0.00, -0.00, -1.00, 1036.3, 1350.0)">A</text><text xml:space="preserve" font-family="Novecentosanswide-DemiBold,Novecento sans wide" font-weight="bold" font-size="112.0" fill="#01A1D6" transform="matrix(1.00, 0.00, -0.00, -1.00, 1116.0, 1350.0)">L</text><text xml:space="preserve" font-family="Novecentosanswide-DemiBold,Novecento sans wide" font-weight="bold" font-size="112.0" fill="#01A1D6" transform="matrix(1.00, 0.00, -0.00, -1.00, 1175.3, 1350.0)">K</text><text xml:space="preserve" font-family="Novecentosanswide-DemiBold,Novecento sans wide" font-weight="bold" font-size="112.0" fill="#01A1D6" transform="matrix(1.00, 0.00, -0.00, -1.00, 1247.9, 1350.0)">I</text><text xml:space="preserve" font-family="Novecentosanswide-DemiBold,Novecento sans wide" font-weight="bold" font-size="112.0" fill="#01A1D6" transform="matrix(1.00, 0.00, -0.00, -1.00, 1273.4, 1350.0)">N</text><text xml:space="preserve" font-family="Novecentosanswide-DemiBold,Novecento sans wide" font-weight="bold" font-size="112.0" fill="#01A1D6" transform="matrix(1.00, 0.00, -0.00, -1.00, 1352.3, 1350.0)">G</text><text xml:space="preserve" font-family="Novecentosanswide-DemiBold,Novecento sans wide" font-weight="bold" font-size="112.0" fill="#01A1D6" transform="matrix(1.00, 0.00, -0.00, -1.00, 1435.8, 1350.0)"> </text><text xml:space="preserve" font-family="Novecentosanswide-DemiBold,Novecento sans wide" font-weight="bold" font-size="112.0" fill="#01A1D6" transform="matrix(1.00, 0.00, -0.00, -1.00, 1459.6, 1350.0)">A</text><text xml:space="preserve" font-family="Novecentosanswide-DemiBold,Novecento sans wide" font-weight="bold" font-size="112.0" fill="#01A1D6" transform="matrix(1.00, 0.00, -0.00, -1.00, 1539.3, 1350.0)">B</text><text xml:space="preserve" font-family="Novecentosanswide-DemiBold,Novecento sans wide" font-weight="bold" font-size="112.0" fill="#01A1D6" transform="matrix(1.00, 0.00, -0.00, -1.00, 1605.5, 1350.0)">O</text><text xml:space="preserve" font-family="Novecentosanswide-DemiBold,Novecento sans wide" font-weight="bold" font-size="112.0" fill="#01A1D6" transform="matrix(1.00, 0.00, -0.00, -1.00, 1691.4, 1350.0)">U</text><text xml:space="preserve" font-family="Novecentosanswide-DemiBold,Novecento sans wide" font-weight="bold" font-size="112.0" fill="#01A1D6" transform="matrix(1.00, 0.00, -0.00, -1.00, 1766.1, 1350.0)">T</text><text xml:space="preserve" font-family="Novecentosanswide-DemiBold,Novecento sans wide" font-weight="bold" font-size="112.0" fill="#01A1D6" transform="matrix(1.00, 0.00, -0.00, -1.00, 1834.9, 1350.0)">?</text></g></svg>