<?xml version="1.0" encoding="UTF-8" standalone="no"?><svg xmlns="http://www.w3.org/2000/svg" xmlns:xlink="http://www.w3.org/1999/xlink" clip-rule="evenodd" stroke-miterlimit="10" viewBox="0 0 308 39"><desc>SVG generated by Keynote</desc><defs></defs><g transform="matrix(1.00, 0.00, -0.00, -1.00, 0.0, 39.0)"><text xml:space="preserve" font-family="Novecentosanswide-Medium,Novecento sans wide" font-size="50.0" fill="#DCDDE0" transform="matrix(1.00, 0.00, -0.00, -1.00, 1.0, 2.6)">T</text><text xml:space="preserve" font-family="Novecentosanswide-Medium,Novecento sans wide" font-size="50.0" fill="#DCDDE0" transform="matrix(1.00, 0.00, -0.00, -1.00, 28.2, 2.6)">a</text><text xml:space="preserve" font-family="Novecentosanswide-Medium,Novecento sans wide" font-size="50.0" fill="#DCDDE0" transform="matrix(1.00, 0.00, -0.00, -1.00, 58.5, 2.6)">l</text><text xml:space="preserve" font-family="Novecentosanswide-Medium,Novecento sans wide" font-size="50.0" fill="#DCDDE0" transform="matrix(1.00, 0.00, -0.00, -1.00, 82.8, 2.6)">k</text><text xml:space="preserve" font-family="Novecentosanswide-Medium,Novecento sans wide" font-size="50.0" fill="#DCDDE0" transform="matrix(1.00, 0.00, -0.00, -1.00, 112.3, 2.6)"> </text><text xml:space="preserve" font-family="Novecentosanswide-Medium,Novecento sans wide" font-size="50.0" fill="#DCDDE0" transform="matrix(1.00, 0.00, -0.00, -1.00, 124.8, 2.6)">a</text><text xml:space="preserve" font-family="Novecentosanswide-Medium,Novecento sans wide" font-size="50.0" fill="#DCDDE0" transform="matrix(1.00, 0.00, -0.00, -1.00, 155.1, 2.6)">b</text><text xml:space="preserve" font-family="Novecentosanswide-Medium,Novecento sans wide" font-size="50.0" fill="#DCDDE0" transform="matrix(1.00, 0.00, -0.00, -1.00, 182.4, 2.6)">o</text><text xml:space="preserve" font-family="Novecentosanswide-Medium,Novecento sans wide" font-size="50.0" fill="#DCDDE0" transform="matrix(1.00, 0.00, -0.00, -1.00, 215.6, 2.6)">u</text><text xml:space="preserve" font-family="Novecentosanswide-Medium,Novecento sans wide" font-size="50.0" fill="#DCDDE0" transform="matrix(1.00, 0.00, -0.00, -1.00, 246.5, 2.6)">t</text><text xml:space="preserve" font-family="Novecentosanswide-Medium,Novecento sans wide" font-size="50.0" fill="#DCDDE0" transform="matrix(1.00, 0.00, -0.00, -1.00, 270.2, 2.6)">.</text><text xml:space="preserve" font-family="Novecentosanswide-Medium,Novecento sans wide" font-size="50.0" fill="#DCDDE0" transform="matrix(1.00, 0.00, -0.00, -1.00, 282.4, 2.6)">.</text><text xml:space="preserve" font-family="Novecentosanswide-Medium,Novecento sans wide" font-size="50.0" fill="#DCDDE0" transform="matrix(1.00, 0.00, -0.00, -1.00, 294.6, 2.6)">.</text><text xml:space="preserve" font-family="Novecentosanswide-Medium,Novecento sans wide" font-size="50.0" fill="#DCDDE0" transform="matrix(1.00, 0.00, -0.00, -1.00, 306.8, 2.6)"> </text></g></svg>