<?xml version="1.0" encoding="UTF-8" standalone="no"?><svg xmlns="http://www.w3.org/2000/svg" xmlns:xlink="http://www.w3.org/1999/xlink" clip-rule="evenodd" stroke-miterlimit="10" viewBox="0 0 354 51"><desc>SVG generated by Keynote</desc><defs></defs><g transform="matrix(1.00, 0.00, -0.00, -1.00, 0.0, 51.0)"><text xml:space="preserve" font-family="ArialMT,Arial" font-size="45.0" fill="#009ED8" transform="matrix(1.00, 0.00, -0.00, -1.00, 0.2, 10.1)">•</text><text xml:space="preserve" font-family="Cantarell-Regular,Cantarell" font-size="45.0" fill="#D8D8D8" transform="matrix(1.00, 0.00, -0.00, -1.00, 15.9, 8.3)"> </text><text xml:space="preserve" font-family="Cantarell-Regular,Cantarell" font-size="45.0" fill="#D8D8D8" transform="matrix(1.00, 0.00, -0.00, -1.00, 28.3, 8.3)">Y</text><text xml:space="preserve" font-family="Cantarell-Regular,Cantarell" font-size="45.0" fill="#D8D8D8" transform="matrix(1.00, 0.00, -0.00, -1.00, 56.0, 8.3)">o</text><text xml:space="preserve" font-family="Cantarell-Regular,Cantarell" font-size="45.0" fill="#D8D8D8" transform="matrix(1.00, 0.00, -0.00, -1.00, 82.6, 8.3)">u</text><text xml:space="preserve" font-family="Cantarell-Regular,Cantarell" font-size="45.0" fill="#D8D8D8" transform="matrix(1.00, 0.00, -0.00, -1.00, 108.5, 8.3)">t</text><text xml:space="preserve" font-family="Cantarell-Regular,Cantarell" font-size="45.0" fill="#D8D8D8" transform="matrix(1.00, 0.00, -0.00, -1.00, 125.5, 8.3)">h</text><text xml:space="preserve" font-family="Cantarell-Regular,Cantarell" font-size="45.0" fill="#D8D8D8" transform="matrix(1.00, 0.00, -0.00, -1.00, 151.6, 8.3)"> </text><text xml:space="preserve" font-family="Cantarell-Regular,Cantarell" font-size="45.0" fill="#D8D8D8" transform="matrix(1.00, 0.00, -0.00, -1.00, 164.0, 8.3)">m</text><text xml:space="preserve" font-family="Cantarell-Regular,Cantarell" font-size="45.0" fill="#D8D8D8" transform="matrix(1.00, 0.00, -0.00, -1.00, 202.0, 8.3)">i</text><text xml:space="preserve" font-family="Cantarell-Regular,Cantarell" font-size="45.0" fill="#D8D8D8" transform="matrix(1.00, 0.00, -0.00, -1.00, 213.5, 8.3)">n</text><text xml:space="preserve" font-family="Cantarell-Regular,Cantarell" font-size="45.0" fill="#D8D8D8" transform="matrix(1.00, 0.00, -0.00, -1.00, 239.4, 8.3)">i</text><text xml:space="preserve" font-family="Cantarell-Regular,Cantarell" font-size="45.0" fill="#D8D8D8" transform="matrix(1.00, 0.00, -0.00, -1.00, 250.9, 8.3)">s</text><text xml:space="preserve" font-family="Cantarell-Regular,Cantarell" font-size="45.0" fill="#D8D8D8" transform="matrix(1.00, 0.00, -0.00, -1.00, 273.2, 8.3)">t</text><text xml:space="preserve" font-family="Cantarell-Regular,Cantarell" font-size="45.0" fill="#D8D8D8" transform="matrix(1.00, 0.00, -0.00, -1.00, 290.3, 8.3)">e</text><text xml:space="preserve" font-family="Cantarell-Regular,Cantarell" font-size="45.0" fill="#D8D8D8" transform="matrix(1.00, 0.00, -0.00, -1.00, 314.5, 8.3)">r</text><text xml:space="preserve" font-family="Cantarell-Regular,Cantarell" font-size="45.0" fill="#D8D8D8" transform="matrix(1.00, 0.00, -0.00, -1.00, 332.1, 8.3)">s</text></g></svg>