<?xml version="1.0" encoding="UTF-8" standalone="no"?><svg xmlns="http://www.w3.org/2000/svg" xmlns:xlink="http://www.w3.org/1999/xlink" clip-rule="evenodd" stroke-miterlimit="10" viewBox="0 0 407 57"><desc>SVG generated by Keynote</desc><defs></defs><g transform="matrix(1.00, 0.00, -0.00, -1.00, 0.0, 57.0)"><text xml:space="preserve" font-family="ArialMT,Arial" font-size="45.0" fill="#009ED8" transform="matrix(1.00, 0.00, -0.00, -1.00, 0.3, 16.0)">•</text><text xml:space="preserve" font-family="Cantarell-Regular,Cantarell" font-size="45.0" fill="#D8D8D8" transform="matrix(1.00, 0.00, -0.00, -1.00, 16.1, 14.3)">H</text><text xml:space="preserve" font-family="Cantarell-Regular,Cantarell" font-size="45.0" fill="#D8D8D8" transform="matrix(1.00, 0.00, -0.00, -1.00, 51.2, 14.3)">a</text><text xml:space="preserve" font-family="Cantarell-Regular,Cantarell" font-size="45.0" fill="#D8D8D8" transform="matrix(1.00, 0.00, -0.00, -1.00, 74.7, 14.3)">v</text><text xml:space="preserve" font-family="Cantarell-Regular,Cantarell" font-size="45.0" fill="#D8D8D8" transform="matrix(1.00, 0.00, -0.00, -1.00, 96.5, 14.3)">e</text><text xml:space="preserve" font-family="Cantarell-Regular,Cantarell" font-size="45.0" fill="#D8D8D8" transform="matrix(1.00, 0.00, -0.00, -1.00, 120.8, 14.3)"> </text><text xml:space="preserve" font-family="Cantarell-Regular,Cantarell" font-size="45.0" fill="#D8D8D8" transform="matrix(1.00, 0.00, -0.00, -1.00, 133.1, 14.3)">a</text><text xml:space="preserve" font-family="Cantarell-Regular,Cantarell" font-size="45.0" fill="#D8D8D8" transform="matrix(1.00, 0.00, -0.00, -1.00, 156.6, 14.3)"> </text><text xml:space="preserve" font-family="Cantarell-Regular,Cantarell" font-size="45.0" fill="#D8D8D8" transform="matrix(1.00, 0.00, -0.00, -1.00, 168.9, 14.3)">d</text><text xml:space="preserve" font-family="Cantarell-Regular,Cantarell" font-size="45.0" fill="#D8D8D8" transform="matrix(1.00, 0.00, -0.00, -1.00, 195.0, 14.3)">e</text><text xml:space="preserve" font-family="Cantarell-Regular,Cantarell" font-size="45.0" fill="#D8D8D8" transform="matrix(1.00, 0.00, -0.00, -1.00, 219.2, 14.3)">m</text><text xml:space="preserve" font-family="Cantarell-Regular,Cantarell" font-size="45.0" fill="#D8D8D8" transform="matrix(1.00, 0.00, -0.00, -1.00, 257.3, 14.3)">o</text><text xml:space="preserve" font-family="Cantarell-Regular,Cantarell" font-size="45.0" fill="#D8D8D8" transform="matrix(1.00, 0.00, -0.00, -1.00, 283.9, 14.3)"> </text><text xml:space="preserve" font-family="Cantarell-Regular,Cantarell" font-size="45.0" fill="#D8D8D8" transform="matrix(1.00, 0.00, -0.00, -1.00, 296.2, 14.3)">g</text><text xml:space="preserve" font-family="Cantarell-Regular,Cantarell" font-size="45.0" fill="#D8D8D8" transform="matrix(1.00, 0.00, -0.00, -1.00, 322.1, 14.3)">a</text><text xml:space="preserve" font-family="Cantarell-Regular,Cantarell" font-size="45.0" fill="#D8D8D8" transform="matrix(1.00, 0.00, -0.00, -1.00, 345.6, 14.3)">m</text><text xml:space="preserve" font-family="Cantarell-Regular,Cantarell" font-size="45.0" fill="#D8D8D8" transform="matrix(1.00, 0.00, -0.00, -1.00, 383.7, 14.3)">e</text></g></svg>