<?xml version="1.0" encoding="UTF-8" standalone="no"?><svg xmlns="http://www.w3.org/2000/svg" xmlns:xlink="http://www.w3.org/1999/xlink" clip-rule="evenodd" stroke-miterlimit="10" viewBox="0 0 1283 138"><desc>SVG generated by Keynote</desc><defs></defs><g transform="matrix(1.00, 0.00, -0.00, -1.00, 0.0, 138.0)"><text xml:space="preserve" font-family="Cantarell-Regular,Cantarell" font-size="55.0" fill="#D8D8D8" transform="matrix(1.00, 0.00, -0.00, -1.00, -2.1, 79.7)">A</text><text xml:space="preserve" font-family="Cantarell-Regular,Cantarell" font-size="55.0" fill="#D8D8D8" transform="matrix(1.00, 0.00, -0.00, -1.00, 35.0, 79.7)">v</text><text xml:space="preserve" font-family="Cantarell-Regular,Cantarell" font-size="55.0" fill="#D8D8D8" transform="matrix(1.00, 0.00, -0.00, -1.00, 61.7, 79.7)">a</text><text xml:space="preserve" font-family="Cantarell-Regular,Cantarell" font-size="55.0" fill="#D8D8D8" transform="matrix(1.00, 0.00, -0.00, -1.00, 90.4, 79.7)">i</text><text xml:space="preserve" font-family="Cantarell-Regular,Cantarell" font-size="55.0" fill="#D8D8D8" transform="matrix(1.00, 0.00, -0.00, -1.00, 104.5, 79.7)">l</text><text xml:space="preserve" font-family="Cantarell-Regular,Cantarell" font-size="55.0" fill="#D8D8D8" transform="matrix(1.00, 0.00, -0.00, -1.00, 119.6, 79.7)">a</text><text xml:space="preserve" font-family="Cantarell-Regular,Cantarell" font-size="55.0" fill="#D8D8D8" transform="matrix(1.00, 0.00, -0.00, -1.00, 148.4, 79.7)">b</text><text xml:space="preserve" font-family="Cantarell-Regular,Cantarell" font-size="55.0" fill="#D8D8D8" transform="matrix(1.00, 0.00, -0.00, -1.00, 180.1, 79.7)">l</text><text xml:space="preserve" font-family="Cantarell-Regular,Cantarell" font-size="55.0" fill="#D8D8D8" transform="matrix(1.00, 0.00, -0.00, -1.00, 195.3, 79.7)">e</text><text xml:space="preserve" font-family="Cantarell-Regular,Cantarell" font-size="55.0" fill="#D8D8D8" transform="matrix(1.00, 0.00, -0.00, -1.00, 224.9, 79.7)"> </text><text xml:space="preserve" font-family="Cantarell-Regular,Cantarell" font-size="55.0" fill="#D8D8D8" transform="matrix(1.00, 0.00, -0.00, -1.00, 239.9, 79.7)">@</text><text xml:space="preserve" font-family="Cantarell-Regular,Cantarell" font-size="55.0" fill="#D8D8D8" transform="matrix(1.00, 0.00, -0.00, -1.00, 296.3, 79.7)"> </text><text xml:space="preserve" font-family="Cantarell-Regular,Cantarell" font-size="55.0" fill="#D8D8D8" transform="matrix(1.00, 0.00, -0.00, -1.00, 311.3, 79.7)">h</text><text xml:space="preserve" font-family="Cantarell-Regular,Cantarell" font-size="55.0" fill="#D8D8D8" transform="matrix(1.00, 0.00, -0.00, -1.00, 343.3, 79.7)">t</text><text xml:space="preserve" font-family="Cantarell-Regular,Cantarell" font-size="55.0" fill="#D8D8D8" transform="matrix(1.00, 0.00, -0.00, -1.00, 364.1, 79.7)">t</text><text xml:space="preserve" font-family="Cantarell-Regular,Cantarell" font-size="55.0" fill="#D8D8D8" transform="matrix(1.00, 0.00, -0.00, -1.00, 384.9, 79.7)">p</text><text xml:space="preserve" font-family="Cantarell-Regular,Cantarell" font-size="55.0" fill="#D8D8D8" transform="matrix(1.00, 0.00, -0.00, -1.00, 416.5, 79.7)">:</text><text xml:space="preserve" font-family="Cantarell-Regular,Cantarell" font-size="55.0" fill="#D8D8D8" transform="matrix(1.00, 0.00, -0.00, -1.00, 431.9, 79.7)">/</text><text xml:space="preserve" font-family="Cantarell-Regular,Cantarell" font-size="55.0" fill="#D8D8D8" transform="matrix(1.00, 0.00, -0.00, -1.00, 451.4, 79.7)">/</text><text xml:space="preserve" font-family="Cantarell-Regular,Cantarell" font-size="55.0" fill="#D8D8D8" transform="matrix(1.00, 0.00, -0.00, -1.00, 470.9, 79.7)">w</text><text xml:space="preserve" font-family="Cantarell-Regular,Cantarell" font-size="55.0" fill="#D8D8D8" transform="matrix(1.00, 0.00, -0.00, -1.00, 516.1, 79.7)">i</text><text xml:space="preserve" font-family="Cantarell-Regular,Cantarell" font-size="55.0" fill="#D8D8D8" transform="matrix(1.00, 0.00, -0.00, -1.00, 530.2, 79.7)">k</text><text xml:space="preserve" font-family="Cantarell-Regular,Cantarell" font-size="55.0" fill="#D8D8D8" transform="matrix(1.00, 0.00, -0.00, -1.00, 559.0, 79.7)">i</text><text xml:space="preserve" font-family="Cantarell-Regular,Cantarell" font-size="55.0" fill="#D8D8D8" transform="matrix(1.00, 0.00, -0.00, -1.00, 573.1, 79.7)">.</text><text xml:space="preserve" font-family="Cantarell-Regular,Cantarell" font-size="55.0" fill="#D8D8D8" transform="matrix(1.00, 0.00, -0.00, -1.00, 588.4, 79.7)">B</text><text xml:space="preserve" font-family="Cantarell-Regular,Cantarell" font-size="55.0" fill="#D8D8D8" transform="matrix(1.00, 0.00, -0.00, -1.00, 626.7, 79.7)">i</text><text xml:space="preserve" font-family="Cantarell-Regular,Cantarell" font-size="55.0" fill="#D8D8D8" transform="matrix(1.00, 0.00, -0.00, -1.00, 640.7, 79.7)">b</text><text xml:space="preserve" font-family="Cantarell-Regular,Cantarell" font-size="55.0" fill="#D8D8D8" transform="matrix(1.00, 0.00, -0.00, -1.00, 672.5, 79.7)">l</text><text xml:space="preserve" font-family="Cantarell-Regular,Cantarell" font-size="55.0" fill="#D8D8D8" transform="matrix(1.00, 0.00, -0.00, -1.00, 687.7, 79.7)">e</text><text xml:space="preserve" font-family="Cantarell-Regular,Cantarell" font-size="55.0" fill="#D8D8D8" transform="matrix(1.00, 0.00, -0.00, -1.00, 717.3, 79.7)">B</text><text xml:space="preserve" font-family="Cantarell-Regular,Cantarell" font-size="55.0" fill="#D8D8D8" transform="matrix(1.00, 0.00, -0.00, -1.00, 755.5, 79.7)">o</text><text xml:space="preserve" font-family="Cantarell-Regular,Cantarell" font-size="55.0" fill="#D8D8D8" transform="matrix(1.00, 0.00, -0.00, -1.00, 788.1, 79.7)">w</text><text xml:space="preserve" font-family="Cantarell-Regular,Cantarell" font-size="55.0" fill="#D8D8D8" transform="matrix(1.00, 0.00, -0.00, -1.00, 833.3, 79.7)">l</text><text xml:space="preserve" font-family="Cantarell-Regular,Cantarell" font-size="55.0" fill="#D8D8D8" transform="matrix(1.00, 0.00, -0.00, -1.00, 848.5, 79.7)">.</text><text xml:space="preserve" font-family="Cantarell-Regular,Cantarell" font-size="55.0" fill="#D8D8D8" transform="matrix(1.00, 0.00, -0.00, -1.00, 863.8, 79.7)">n</text><text xml:space="preserve" font-family="Cantarell-Regular,Cantarell" font-size="55.0" fill="#D8D8D8" transform="matrix(1.00, 0.00, -0.00, -1.00, 895.4, 79.7)">e</text><text xml:space="preserve" font-family="Cantarell-Regular,Cantarell" font-size="55.0" fill="#D8D8D8" transform="matrix(1.00, 0.00, -0.00, -1.00, 925.0, 79.7)">t</text><text xml:space="preserve" font-family="Cantarell-Regular,Cantarell" font-size="55.0" fill="#D8D8D8" transform="matrix(1.00, 0.00, -0.00, -1.00, 945.8, 79.7)">/</text><text xml:space="preserve" font-family="Cantarell-Regular,Cantarell" font-size="55.0" fill="#D8D8D8" transform="matrix(1.00, 0.00, -0.00, -1.00, 965.3, 79.7)">M</text><text xml:space="preserve" font-family="Cantarell-Regular,Cantarell" font-size="55.0" fill="#D8D8D8" transform="matrix(1.00, 0.00, -0.00, -1.00, 1015.9, 79.7)">a</text><text xml:space="preserve" font-family="Cantarell-Regular,Cantarell" font-size="55.0" fill="#D8D8D8" transform="matrix(1.00, 0.00, -0.00, -1.00, 1044.6, 79.7)">r</text><text xml:space="preserve" font-family="Cantarell-Regular,Cantarell" font-size="55.0" fill="#D8D8D8" transform="matrix(1.00, 0.00, -0.00, -1.00, 1066.2, 79.7)">k</text><text xml:space="preserve" font-family="Cantarell-Regular,Cantarell" font-size="55.0" fill="#D8D8D8" transform="matrix(1.00, 0.00, -0.00, -1.00, 1095.0, 79.7)">e</text><text xml:space="preserve" font-family="Cantarell-Regular,Cantarell" font-size="55.0" fill="#D8D8D8" transform="matrix(1.00, 0.00, -0.00, -1.00, 1124.6, 79.7)">t</text><text xml:space="preserve" font-family="Cantarell-Regular,Cantarell" font-size="55.0" fill="#D8D8D8" transform="matrix(1.00, 0.00, -0.00, -1.00, 1145.4, 79.7)">i</text><text xml:space="preserve" font-family="Cantarell-Regular,Cantarell" font-size="55.0" fill="#D8D8D8" transform="matrix(1.00, 0.00, -0.00, -1.00, 1159.5, 79.7)">n</text><text xml:space="preserve" font-family="Cantarell-Regular,Cantarell" font-size="55.0" fill="#D8D8D8" transform="matrix(1.00, 0.00, -0.00, -1.00, 1191.1, 79.7)">g</text><text xml:space="preserve" font-family="Cantarell-Regular,Cantarell" font-size="55.0" fill="#D8D8D8" transform="matrix(1.00, 0.00, -0.00, -1.00, 1222.4, 79.7)"> </text><text xml:space="preserve" font-family="Cantarell-Regular,Cantarell" font-size="55.0" fill="#D8D8D8" transform="matrix(1.00, 0.00, -0.00, -1.00, 1237.5, 79.7)">&amp;</text><text xml:space="preserve" font-family="Cantarell-Regular,Cantarell" font-size="55.0" fill="#D8D8D8" transform="matrix(1.00, 0.00, -0.00, -1.00, 1280.1, 79.7)"> </text><g><clipPath id="clip0x7fac78cf7d50"><path d="M 310.3 69.3 L 1222.4 69.3 L 1222.4 74.4 L 310.3 74.4 Z M 310.3 69.3 "></path></clipPath><g clip-path="url(#clip0x7fac78cf7d50)"><path d="M 326.2 69.2 L 1237.3 69.2 " fill="none" stroke="#D8D8D8" stroke-width="3.12" transform="matrix(1.00, 0.00, 0.00, -1.00, -14.9, 141.1)"></path></g></g><text xml:space="preserve" font-family="Cantarell-Regular,Cantarell" font-size="55.0" fill="#D8D8D8" transform="matrix(1.00, 0.00, -0.00, -1.00, 236.0, 1.7)">f</text><text xml:space="preserve" font-family="Cantarell-Regular,Cantarell" font-size="55.0" fill="#D8D8D8" transform="matrix(1.00, 0.00, -0.00, -1.00, 258.1, 1.7)">r</text><text xml:space="preserve" font-family="Cantarell-Regular,Cantarell" font-size="55.0" fill="#D8D8D8" transform="matrix(1.00, 0.00, -0.00, -1.00, 279.6, 1.7)">o</text><text xml:space="preserve" font-family="Cantarell-Regular,Cantarell" font-size="55.0" fill="#D8D8D8" transform="matrix(1.00, 0.00, -0.00, -1.00, 312.1, 1.7)">m</text><text xml:space="preserve" font-family="Cantarell-Regular,Cantarell" font-size="55.0" fill="#D8D8D8" transform="matrix(1.00, 0.00, -0.00, -1.00, 358.7, 1.7)"> </text><text xml:space="preserve" font-family="Cantarell-Regular,Cantarell" font-size="55.0" fill="#D8D8D8" transform="matrix(1.00, 0.00, -0.00, -1.00, 373.7, 1.7)">N</text><text xml:space="preserve" font-family="Cantarell-Regular,Cantarell" font-size="55.0" fill="#D8D8D8" transform="matrix(1.00, 0.00, -0.00, -1.00, 418.3, 1.7)">a</text><text xml:space="preserve" font-family="Cantarell-Regular,Cantarell" font-size="55.0" fill="#D8D8D8" transform="matrix(1.00, 0.00, -0.00, -1.00, 447.0, 1.7)">t</text><text xml:space="preserve" font-family="Cantarell-Regular,Cantarell" font-size="55.0" fill="#D8D8D8" transform="matrix(1.00, 0.00, -0.00, -1.00, 467.8, 1.7)">i</text><text xml:space="preserve" font-family="Cantarell-Regular,Cantarell" font-size="55.0" fill="#D8D8D8" transform="matrix(1.00, 0.00, -0.00, -1.00, 481.9, 1.7)">o</text><text xml:space="preserve" font-family="Cantarell-Regular,Cantarell" font-size="55.0" fill="#D8D8D8" transform="matrix(1.00, 0.00, -0.00, -1.00, 514.4, 1.7)">n</text><text xml:space="preserve" font-family="Cantarell-Regular,Cantarell" font-size="55.0" fill="#D8D8D8" transform="matrix(1.00, 0.00, -0.00, -1.00, 546.0, 1.7)">a</text><text xml:space="preserve" font-family="Cantarell-Regular,Cantarell" font-size="55.0" fill="#D8D8D8" transform="matrix(1.00, 0.00, -0.00, -1.00, 574.7, 1.7)">l</text><text xml:space="preserve" font-family="Cantarell-Regular,Cantarell" font-size="55.0" fill="#D8D8D8" transform="matrix(1.00, 0.00, -0.00, -1.00, 589.9, 1.7)"> </text><text xml:space="preserve" font-family="Cantarell-Regular,Cantarell" font-size="55.0" fill="#D8D8D8" transform="matrix(1.00, 0.00, -0.00, -1.00, 605.0, 1.7)">B</text><text xml:space="preserve" font-family="Cantarell-Regular,Cantarell" font-size="55.0" fill="#D8D8D8" transform="matrix(1.00, 0.00, -0.00, -1.00, 643.2, 1.7)">i</text><text xml:space="preserve" font-family="Cantarell-Regular,Cantarell" font-size="55.0" fill="#D8D8D8" transform="matrix(1.00, 0.00, -0.00, -1.00, 657.3, 1.7)">b</text><text xml:space="preserve" font-family="Cantarell-Regular,Cantarell" font-size="55.0" fill="#D8D8D8" transform="matrix(1.00, 0.00, -0.00, -1.00, 689.0, 1.7)">l</text><text xml:space="preserve" font-family="Cantarell-Regular,Cantarell" font-size="55.0" fill="#D8D8D8" transform="matrix(1.00, 0.00, -0.00, -1.00, 704.2, 1.7)">e</text><text xml:space="preserve" font-family="Cantarell-Regular,Cantarell" font-size="55.0" fill="#D8D8D8" transform="matrix(1.00, 0.00, -0.00, -1.00, 733.8, 1.7)"> </text><text xml:space="preserve" font-family="Cantarell-Regular,Cantarell" font-size="55.0" fill="#D8D8D8" transform="matrix(1.00, 0.00, -0.00, -1.00, 748.9, 1.7)">B</text><text xml:space="preserve" font-family="Cantarell-Regular,Cantarell" font-size="55.0" fill="#D8D8D8" transform="matrix(1.00, 0.00, -0.00, -1.00, 787.1, 1.7)">o</text><text xml:space="preserve" font-family="Cantarell-Regular,Cantarell" font-size="55.0" fill="#D8D8D8" transform="matrix(1.00, 0.00, -0.00, -1.00, 819.7, 1.7)">w</text><text xml:space="preserve" font-family="Cantarell-Regular,Cantarell" font-size="55.0" fill="#D8D8D8" transform="matrix(1.00, 0.00, -0.00, -1.00, 864.9, 1.7)">l</text><text xml:space="preserve" font-family="Cantarell-Regular,Cantarell" font-size="55.0" fill="#D8D8D8" transform="matrix(1.00, 0.00, -0.00, -1.00, 880.1, 1.7)"> </text><text xml:space="preserve" font-family="Cantarell-Regular,Cantarell" font-size="55.0" fill="#D8D8D8" transform="matrix(1.00, 0.00, -0.00, -1.00, 895.1, 1.7)">o</text><text xml:space="preserve" font-family="Cantarell-Regular,Cantarell" font-size="55.0" fill="#D8D8D8" transform="matrix(1.00, 0.00, -0.00, -1.00, 927.7, 1.7)">f</text><text xml:space="preserve" font-family="Cantarell-Regular,Cantarell" font-size="55.0" fill="#D8D8D8" transform="matrix(1.00, 0.00, -0.00, -1.00, 949.7, 1.7)">f</text><text xml:space="preserve" font-family="Cantarell-Regular,Cantarell" font-size="55.0" fill="#D8D8D8" transform="matrix(1.00, 0.00, -0.00, -1.00, 971.8, 1.7)">i</text><text xml:space="preserve" font-family="Cantarell-Regular,Cantarell" font-size="55.0" fill="#D8D8D8" transform="matrix(1.00, 0.00, -0.00, -1.00, 985.8, 1.7)">c</text><text xml:space="preserve" font-family="Cantarell-Regular,Cantarell" font-size="55.0" fill="#D8D8D8" transform="matrix(1.00, 0.00, -0.00, -1.00, 1012.7, 1.7)">e</text></g></svg>