<?xml version="1.0" encoding="UTF-8" standalone="no"?><svg xmlns="http://www.w3.org/2000/svg" xmlns:xlink="http://www.w3.org/1999/xlink" clip-rule="evenodd" stroke-miterlimit="10" viewBox="0 0 1111 57"><desc>SVG generated by Keynote</desc><defs></defs><g transform="matrix(1.00, 0.00, -0.00, -1.00, 0.0, 57.0)"><text xml:space="preserve" font-family="ArialMT,Arial" font-size="45.0" fill="#009ED8" transform="matrix(1.00, 0.00, -0.00, -1.00, 0.3, 16.0)">•</text><text xml:space="preserve" font-family="Cantarell-Regular,Cantarell" font-size="45.0" fill="#D8D8D8" transform="matrix(1.00, 0.00, -0.00, -1.00, 16.1, 14.3)">G</text><text xml:space="preserve" font-family="Cantarell-Regular,Cantarell" font-size="45.0" fill="#D8D8D8" transform="matrix(1.00, 0.00, -0.00, -1.00, 51.0, 14.3)">e</text><text xml:space="preserve" font-family="Cantarell-Regular,Cantarell" font-size="45.0" fill="#D8D8D8" transform="matrix(1.00, 0.00, -0.00, -1.00, 75.2, 14.3)">t</text><text xml:space="preserve" font-family="Cantarell-Regular,Cantarell" font-size="45.0" fill="#D8D8D8" transform="matrix(1.00, 0.00, -0.00, -1.00, 92.3, 14.3)"> </text><text xml:space="preserve" font-family="Cantarell-Regular,Cantarell" font-size="45.0" fill="#D8D8D8" transform="matrix(1.00, 0.00, -0.00, -1.00, 104.6, 14.3)">t</text><text xml:space="preserve" font-family="Cantarell-Regular,Cantarell" font-size="45.0" fill="#D8D8D8" transform="matrix(1.00, 0.00, -0.00, -1.00, 121.7, 14.3)">h</text><text xml:space="preserve" font-family="Cantarell-Regular,Cantarell" font-size="45.0" fill="#D8D8D8" transform="matrix(1.00, 0.00, -0.00, -1.00, 147.8, 14.3)">e</text><text xml:space="preserve" font-family="Cantarell-Regular,Cantarell" font-size="45.0" fill="#D8D8D8" transform="matrix(1.00, 0.00, -0.00, -1.00, 172.0, 14.3)">m</text><text xml:space="preserve" font-family="Cantarell-Regular,Cantarell" font-size="45.0" fill="#D8D8D8" transform="matrix(1.00, 0.00, -0.00, -1.00, 210.1, 14.3)"> </text><text xml:space="preserve" font-family="Cantarell-Regular,Cantarell" font-size="45.0" fill="#D8D8D8" transform="matrix(1.00, 0.00, -0.00, -1.00, 222.4, 14.3)">c</text><text xml:space="preserve" font-family="Cantarell-Regular,Cantarell" font-size="45.0" fill="#D8D8D8" transform="matrix(1.00, 0.00, -0.00, -1.00, 244.4, 14.3)">o</text><text xml:space="preserve" font-family="Cantarell-Regular,Cantarell" font-size="45.0" fill="#D8D8D8" transform="matrix(1.00, 0.00, -0.00, -1.00, 271.0, 14.3)">n</text><text xml:space="preserve" font-family="Cantarell-Regular,Cantarell" font-size="45.0" fill="#D8D8D8" transform="matrix(1.00, 0.00, -0.00, -1.00, 296.9, 14.3)">n</text><text xml:space="preserve" font-family="Cantarell-Regular,Cantarell" font-size="45.0" fill="#D8D8D8" transform="matrix(1.00, 0.00, -0.00, -1.00, 322.7, 14.3)">e</text><text xml:space="preserve" font-family="Cantarell-Regular,Cantarell" font-size="45.0" fill="#D8D8D8" transform="matrix(1.00, 0.00, -0.00, -1.00, 347.0, 14.3)">c</text><text xml:space="preserve" font-family="Cantarell-Regular,Cantarell" font-size="45.0" fill="#D8D8D8" transform="matrix(1.00, 0.00, -0.00, -1.00, 368.9, 14.3)">t</text><text xml:space="preserve" font-family="Cantarell-Regular,Cantarell" font-size="45.0" fill="#D8D8D8" transform="matrix(1.00, 0.00, -0.00, -1.00, 386.0, 14.3)">e</text><text xml:space="preserve" font-family="Cantarell-Regular,Cantarell" font-size="45.0" fill="#D8D8D8" transform="matrix(1.00, 0.00, -0.00, -1.00, 410.2, 14.3)">d</text><text xml:space="preserve" font-family="Cantarell-Regular,Cantarell" font-size="45.0" fill="#D8D8D8" transform="matrix(1.00, 0.00, -0.00, -1.00, 436.3, 14.3)"> </text><text xml:space="preserve" font-family="Cantarell-Regular,Cantarell" font-size="45.0" fill="#D8D8D8" transform="matrix(1.00, 0.00, -0.00, -1.00, 448.6, 14.3)">(</text><text xml:space="preserve" font-family="Cantarell-Regular,Cantarell" font-size="45.0" fill="#D8D8D8" transform="matrix(1.00, 0.00, -0.00, -1.00, 465.0, 14.3)">m</text><text xml:space="preserve" font-family="Cantarell-Regular,Cantarell" font-size="45.0" fill="#D8D8D8" transform="matrix(1.00, 0.00, -0.00, -1.00, 503.0, 14.3)">a</text><text xml:space="preserve" font-family="Cantarell-Regular,Cantarell" font-size="45.0" fill="#D8D8D8" transform="matrix(1.00, 0.00, -0.00, -1.00, 526.5, 14.3)">i</text><text xml:space="preserve" font-family="Cantarell-Regular,Cantarell" font-size="45.0" fill="#D8D8D8" transform="matrix(1.00, 0.00, -0.00, -1.00, 538.0, 14.3)">l</text><text xml:space="preserve" font-family="Cantarell-Regular,Cantarell" font-size="45.0" fill="#D8D8D8" transform="matrix(1.00, 0.00, -0.00, -1.00, 550.4, 14.3)">i</text><text xml:space="preserve" font-family="Cantarell-Regular,Cantarell" font-size="45.0" fill="#D8D8D8" transform="matrix(1.00, 0.00, -0.00, -1.00, 562.0, 14.3)">n</text><text xml:space="preserve" font-family="Cantarell-Regular,Cantarell" font-size="45.0" fill="#D8D8D8" transform="matrix(1.00, 0.00, -0.00, -1.00, 587.8, 14.3)">g</text><text xml:space="preserve" font-family="Cantarell-Regular,Cantarell" font-size="45.0" fill="#D8D8D8" transform="matrix(1.00, 0.00, -0.00, -1.00, 613.7, 14.3)"> </text><text xml:space="preserve" font-family="Cantarell-Regular,Cantarell" font-size="45.0" fill="#D8D8D8" transform="matrix(1.00, 0.00, -0.00, -1.00, 626.0, 14.3)">l</text><text xml:space="preserve" font-family="Cantarell-Regular,Cantarell" font-size="45.0" fill="#D8D8D8" transform="matrix(1.00, 0.00, -0.00, -1.00, 638.4, 14.3)">i</text><text xml:space="preserve" font-family="Cantarell-Regular,Cantarell" font-size="45.0" fill="#D8D8D8" transform="matrix(1.00, 0.00, -0.00, -1.00, 649.9, 14.3)">s</text><text xml:space="preserve" font-family="Cantarell-Regular,Cantarell" font-size="45.0" fill="#D8D8D8" transform="matrix(1.00, 0.00, -0.00, -1.00, 672.2, 14.3)">t</text><text xml:space="preserve" font-family="Cantarell-Regular,Cantarell" font-size="45.0" fill="#D8D8D8" transform="matrix(1.00, 0.00, -0.00, -1.00, 689.3, 14.3)">,</text><text xml:space="preserve" font-family="Cantarell-Regular,Cantarell" font-size="45.0" fill="#D8D8D8" transform="matrix(1.00, 0.00, -0.00, -1.00, 701.8, 14.3)"> </text><text xml:space="preserve" font-family="Cantarell-Regular,Cantarell" font-size="45.0" fill="#D8D8D8" transform="matrix(1.00, 0.00, -0.00, -1.00, 714.1, 14.3)">w</text><text xml:space="preserve" font-family="Cantarell-Regular,Cantarell" font-size="45.0" fill="#D8D8D8" transform="matrix(1.00, 0.00, -0.00, -1.00, 751.1, 14.3)">e</text><text xml:space="preserve" font-family="Cantarell-Regular,Cantarell" font-size="45.0" fill="#D8D8D8" transform="matrix(1.00, 0.00, -0.00, -1.00, 775.4, 14.3)">b</text><text xml:space="preserve" font-family="Cantarell-Regular,Cantarell" font-size="45.0" fill="#D8D8D8" transform="matrix(1.00, 0.00, -0.00, -1.00, 801.3, 14.3)"> </text><text xml:space="preserve" font-family="Cantarell-Regular,Cantarell" font-size="45.0" fill="#D8D8D8" transform="matrix(1.00, 0.00, -0.00, -1.00, 813.7, 14.3)">s</text><text xml:space="preserve" font-family="Cantarell-Regular,Cantarell" font-size="45.0" fill="#D8D8D8" transform="matrix(1.00, 0.00, -0.00, -1.00, 836.0, 14.3)">i</text><text xml:space="preserve" font-family="Cantarell-Regular,Cantarell" font-size="45.0" fill="#D8D8D8" transform="matrix(1.00, 0.00, -0.00, -1.00, 847.5, 14.3)">t</text><text xml:space="preserve" font-family="Cantarell-Regular,Cantarell" font-size="45.0" fill="#D8D8D8" transform="matrix(1.00, 0.00, -0.00, -1.00, 864.5, 14.3)">e</text><text xml:space="preserve" font-family="Cantarell-Regular,Cantarell" font-size="45.0" fill="#D8D8D8" transform="matrix(1.00, 0.00, -0.00, -1.00, 888.8, 14.3)">,</text><text xml:space="preserve" font-family="Cantarell-Regular,Cantarell" font-size="45.0" fill="#D8D8D8" transform="matrix(1.00, 0.00, -0.00, -1.00, 901.3, 14.3)"> </text><text xml:space="preserve" font-family="Cantarell-Regular,Cantarell" font-size="45.0" fill="#D8D8D8" transform="matrix(1.00, 0.00, -0.00, -1.00, 913.6, 14.3)">w</text><text xml:space="preserve" font-family="Cantarell-Regular,Cantarell" font-size="45.0" fill="#D8D8D8" transform="matrix(1.00, 0.00, -0.00, -1.00, 950.6, 14.3)">i</text><text xml:space="preserve" font-family="Cantarell-Regular,Cantarell" font-size="45.0" fill="#D8D8D8" transform="matrix(1.00, 0.00, -0.00, -1.00, 962.2, 14.3)">k</text><text xml:space="preserve" font-family="Cantarell-Regular,Cantarell" font-size="45.0" fill="#D8D8D8" transform="matrix(1.00, 0.00, -0.00, -1.00, 985.7, 14.3)">i</text><text xml:space="preserve" font-family="Cantarell-Regular,Cantarell" font-size="45.0" fill="#D8D8D8" transform="matrix(1.00, 0.00, -0.00, -1.00, 997.2, 14.3)">,</text><text xml:space="preserve" font-family="Cantarell-Regular,Cantarell" font-size="45.0" fill="#D8D8D8" transform="matrix(1.00, 0.00, -0.00, -1.00, 1009.8, 14.3)"> </text><text xml:space="preserve" font-family="Cantarell-Regular,Cantarell" font-size="45.0" fill="#D8D8D8" transform="matrix(1.00, 0.00, -0.00, -1.00, 1022.1, 14.3)">e</text><text xml:space="preserve" font-family="Cantarell-Regular,Cantarell" font-size="45.0" fill="#D8D8D8" transform="matrix(1.00, 0.00, -0.00, -1.00, 1046.3, 14.3)">t</text><text xml:space="preserve" font-family="Cantarell-Regular,Cantarell" font-size="45.0" fill="#D8D8D8" transform="matrix(1.00, 0.00, -0.00, -1.00, 1063.4, 14.3)">c</text><text xml:space="preserve" font-family="Cantarell-Regular,Cantarell" font-size="45.0" fill="#D8D8D8" transform="matrix(1.00, 0.00, -0.00, -1.00, 1085.3, 14.3)">.</text><text xml:space="preserve" font-family="Cantarell-Regular,Cantarell" font-size="45.0" fill="#D8D8D8" transform="matrix(1.00, 0.00, -0.00, -1.00, 1097.9, 14.3)">)</text></g></svg>