<?xml version="1.0" encoding="UTF-8" standalone="no"?><svg xmlns="http://www.w3.org/2000/svg" xmlns:xlink="http://www.w3.org/1999/xlink" clip-rule="evenodd" stroke-miterlimit="10" viewBox="0 0 810 58"><desc>SVG generated by Keynote</desc><defs></defs><g transform="matrix(1.00, 0.00, -0.00, -1.00, 0.0, 58.0)"><text xml:space="preserve" font-family="ArialMT,Arial" font-size="45.0" fill="#009ED8" transform="matrix(1.00, 0.00, -0.00, -1.00, 0.3, 16.4)">•</text><text xml:space="preserve" font-family="Cantarell-Regular,Cantarell" font-size="45.0" fill="#D8D8D8" transform="matrix(1.00, 0.00, -0.00, -1.00, 16.1, 14.6)"> </text><text xml:space="preserve" font-family="Cantarell-Regular,Cantarell" font-size="45.0" fill="#D8D8D8" transform="matrix(1.00, 0.00, -0.00, -1.00, 28.4, 14.6)">H</text><text xml:space="preserve" font-family="Cantarell-Regular,Cantarell" font-size="45.0" fill="#D8D8D8" transform="matrix(1.00, 0.00, -0.00, -1.00, 63.6, 14.6)">o</text><text xml:space="preserve" font-family="Cantarell-Regular,Cantarell" font-size="45.0" fill="#D8D8D8" transform="matrix(1.00, 0.00, -0.00, -1.00, 90.2, 14.6)">s</text><text xml:space="preserve" font-family="Cantarell-Regular,Cantarell" font-size="45.0" fill="#D8D8D8" transform="matrix(1.00, 0.00, -0.00, -1.00, 112.5, 14.6)">t</text><text xml:space="preserve" font-family="Cantarell-Regular,Cantarell" font-size="45.0" fill="#D8D8D8" transform="matrix(1.00, 0.00, -0.00, -1.00, 129.6, 14.6)"> </text><text xml:space="preserve" font-family="Cantarell-Regular,Cantarell" font-size="45.0" fill="#D8D8D8" transform="matrix(1.00, 0.00, -0.00, -1.00, 141.9, 14.6)">a</text><text xml:space="preserve" font-family="Cantarell-Regular,Cantarell" font-size="45.0" fill="#D8D8D8" transform="matrix(1.00, 0.00, -0.00, -1.00, 165.4, 14.6)"> </text><text xml:space="preserve" font-family="Cantarell-Regular,Cantarell" font-size="45.0" fill="#D8D8D8" transform="matrix(1.00, 0.00, -0.00, -1.00, 177.7, 14.6)">l</text><text xml:space="preserve" font-family="Cantarell-Regular,Cantarell" font-size="45.0" fill="#D8D8D8" transform="matrix(1.00, 0.00, -0.00, -1.00, 190.1, 14.6)">o</text><text xml:space="preserve" font-family="Cantarell-Regular,Cantarell" font-size="45.0" fill="#D8D8D8" transform="matrix(1.00, 0.00, -0.00, -1.00, 216.7, 14.6)">c</text><text xml:space="preserve" font-family="Cantarell-Regular,Cantarell" font-size="45.0" fill="#D8D8D8" transform="matrix(1.00, 0.00, -0.00, -1.00, 238.7, 14.6)">a</text><text xml:space="preserve" font-family="Cantarell-Regular,Cantarell" font-size="45.0" fill="#D8D8D8" transform="matrix(1.00, 0.00, -0.00, -1.00, 262.2, 14.6)">l</text><text xml:space="preserve" font-family="Cantarell-Regular,Cantarell" font-size="45.0" fill="#D8D8D8" transform="matrix(1.00, 0.00, -0.00, -1.00, 274.6, 14.6)"> </text><text xml:space="preserve" font-family="Cantarell-Regular,Cantarell" font-size="45.0" fill="#D8D8D8" transform="matrix(1.00, 0.00, -0.00, -1.00, 286.9, 14.6)">n</text><text xml:space="preserve" font-family="Cantarell-Regular,Cantarell" font-size="45.0" fill="#D8D8D8" transform="matrix(1.00, 0.00, -0.00, -1.00, 312.8, 14.6)">e</text><text xml:space="preserve" font-family="Cantarell-Regular,Cantarell" font-size="45.0" fill="#D8D8D8" transform="matrix(1.00, 0.00, -0.00, -1.00, 337.0, 14.6)">w</text><text xml:space="preserve" font-family="Cantarell-Regular,Cantarell" font-size="45.0" fill="#D8D8D8" transform="matrix(1.00, 0.00, -0.00, -1.00, 374.0, 14.6)"> </text><text xml:space="preserve" font-family="Cantarell-Regular,Cantarell" font-size="45.0" fill="#D8D8D8" transform="matrix(1.00, 0.00, -0.00, -1.00, 386.3, 14.6)">p</text><text xml:space="preserve" font-family="Cantarell-Regular,Cantarell" font-size="45.0" fill="#D8D8D8" transform="matrix(1.00, 0.00, -0.00, -1.00, 412.2, 14.6)">l</text><text xml:space="preserve" font-family="Cantarell-Regular,Cantarell" font-size="45.0" fill="#D8D8D8" transform="matrix(1.00, 0.00, -0.00, -1.00, 424.6, 14.6)">a</text><text xml:space="preserve" font-family="Cantarell-Regular,Cantarell" font-size="45.0" fill="#D8D8D8" transform="matrix(1.00, 0.00, -0.00, -1.00, 448.1, 14.6)">y</text><text xml:space="preserve" font-family="Cantarell-Regular,Cantarell" font-size="45.0" fill="#D8D8D8" transform="matrix(1.00, 0.00, -0.00, -1.00, 471.4, 14.6)">e</text><text xml:space="preserve" font-family="Cantarell-Regular,Cantarell" font-size="45.0" fill="#D8D8D8" transform="matrix(1.00, 0.00, -0.00, -1.00, 495.6, 14.6)">r</text><text xml:space="preserve" font-family="Cantarell-Regular,Cantarell" font-size="45.0" fill="#D8D8D8" transform="matrix(1.00, 0.00, -0.00, -1.00, 513.2, 14.6)"> </text><text xml:space="preserve" font-family="Cantarell-Regular,Cantarell" font-size="45.0" fill="#D8D8D8" transform="matrix(1.00, 0.00, -0.00, -1.00, 525.5, 14.6)">t</text><text xml:space="preserve" font-family="Cantarell-Regular,Cantarell" font-size="45.0" fill="#D8D8D8" transform="matrix(1.00, 0.00, -0.00, -1.00, 542.5, 14.6)">r</text><text xml:space="preserve" font-family="Cantarell-Regular,Cantarell" font-size="45.0" fill="#D8D8D8" transform="matrix(1.00, 0.00, -0.00, -1.00, 560.2, 14.6)">a</text><text xml:space="preserve" font-family="Cantarell-Regular,Cantarell" font-size="45.0" fill="#D8D8D8" transform="matrix(1.00, 0.00, -0.00, -1.00, 583.6, 14.6)">i</text><text xml:space="preserve" font-family="Cantarell-Regular,Cantarell" font-size="45.0" fill="#D8D8D8" transform="matrix(1.00, 0.00, -0.00, -1.00, 595.2, 14.6)">n</text><text xml:space="preserve" font-family="Cantarell-Regular,Cantarell" font-size="45.0" fill="#D8D8D8" transform="matrix(1.00, 0.00, -0.00, -1.00, 621.0, 14.6)">i</text><text xml:space="preserve" font-family="Cantarell-Regular,Cantarell" font-size="45.0" fill="#D8D8D8" transform="matrix(1.00, 0.00, -0.00, -1.00, 632.5, 14.6)">n</text><text xml:space="preserve" font-family="Cantarell-Regular,Cantarell" font-size="45.0" fill="#D8D8D8" transform="matrix(1.00, 0.00, -0.00, -1.00, 658.4, 14.6)">g</text><text xml:space="preserve" font-family="Cantarell-Regular,Cantarell" font-size="45.0" fill="#D8D8D8" transform="matrix(1.00, 0.00, -0.00, -1.00, 684.2, 14.6)"> </text><text xml:space="preserve" font-family="Cantarell-Regular,Cantarell" font-size="45.0" fill="#D8D8D8" transform="matrix(1.00, 0.00, -0.00, -1.00, 696.5, 14.6)">e</text><text xml:space="preserve" font-family="Cantarell-Regular,Cantarell" font-size="45.0" fill="#D8D8D8" transform="matrix(1.00, 0.00, -0.00, -1.00, 720.7, 14.6)">v</text><text xml:space="preserve" font-family="Cantarell-Regular,Cantarell" font-size="45.0" fill="#D8D8D8" transform="matrix(1.00, 0.00, -0.00, -1.00, 742.6, 14.6)">e</text><text xml:space="preserve" font-family="Cantarell-Regular,Cantarell" font-size="45.0" fill="#D8D8D8" transform="matrix(1.00, 0.00, -0.00, -1.00, 766.8, 14.6)">n</text><text xml:space="preserve" font-family="Cantarell-Regular,Cantarell" font-size="45.0" fill="#D8D8D8" transform="matrix(1.00, 0.00, -0.00, -1.00, 792.6, 14.6)">t</text></g></svg>